<?xml version="1.0" standalone="no"?>
<!DOCTYPE svg PUBLIC "-//W3C//DTD SVG 20010904//EN"
 "http://www.w3.org/TR/2001/REC-SVG-20010904/DTD/svg10.dtd">
<svg version="1.0" xmlns="http://www.w3.org/2000/svg"
 width="1008.000000pt" height="1008.000000pt" viewBox="0 0 1008.000000 1008.000000"
 preserveAspectRatio="xMidYMid meet">
<metadata>
Created by potrace 1.11, written by Peter Selinger 2001-2013
</metadata>
<g transform="translate(0.000000,1008.000000) scale(0.100000,-0.100000)"
fill="#000000" stroke="none">
<path d="M1452 9974 c-72 -17 -112 -37 -165 -84 -52 -46 -103 -135 -113 -197
-7 -39 -8 -8776 -1 -8803 8 -35 49 -115 77 -150 29 -37 118 -103 137 -102 4 0
13 -4 19 -9 7 -5 34 -12 60 -15 27 -3 985 -7 2129 -7 l2080 -2 2 -263 c0 -145
3 -265 5 -268 6 -5 109 52 327 182 43 25 201 118 251 147 19 11 49 28 65 38
17 11 37 22 45 26 8 3 26 14 40 23 14 10 46 29 71 42 77 43 94 53 99 58 7 7
49 30 54 30 3 0 5 -53 6 -118 0 -64 0 -124 1 -132 0 -8 0 -44 0 -80 -1 -36 -1
-72 0 -80 0 -8 0 -41 -1 -73 -1 -32 0 -60 2 -63 6 -5 42 15 300 166 117 69
218 126 225 128 7 2 13 8 13 13 0 5 4 9 10 9 5 0 58 29 117 64 60 35 124 73
143 84 132 75 188 108 207 122 l21 16 -36 19 c-21 11 -55 31 -77 44 -22 14
-49 31 -60 37 -54 30 -98 56 -160 93 -37 23 -68 41 -70 41 -2 0 -33 18 -70 41
-37 22 -84 50 -104 61 -20 11 -127 74 -238 139 -112 66 -207 119 -213 119 -12
0 -11 3 -11 -313 l0 -237 -47 27 c-26 14 -51 30 -57 34 -5 4 -26 16 -45 27
-45 25 -253 147 -305 179 -22 13 -48 26 -57 30 -10 3 -18 9 -18 13 0 4 -11 11
-25 14 -14 4 -25 11 -25 16 0 6 -4 10 -10 10 -8 0 -115 59 -180 99 -77 48
-171 101 -180 101 -11 0 -11 -6 -10 -303 l0 -197 -78 0 c-42 -1 -987 -1 -2098
-1 -1995 -1 -2022 0 -2060 19 -45 23 -75 53 -98 99 -15 30 -16 374 -16 4412
l-1 4379 23 38 c30 51 64 80 113 96 33 11 678 13 3625 13 1972 -1 3600 -5
3618 -9 17 -4 32 -12 32 -17 0 -5 6 -9 13 -9 19 0 53 -39 75 -84 18 -37 19
-175 19 -4387 0 -2392 2 -4351 4 -4353 4 -4 84 -8 131 -7 l28 1 0 4358 c0
4009 -2 4361 -17 4407 -41 126 -147 227 -265 251 -59 12 -7224 10 -7276 -2z"/>
<path d="M2965 7589 c-8 -25 -10 -137 -2 -145 4 -4 3661 -8 4238 -4 l65 0 -1
75 c-1 41 -4 78 -8 81 -6 7 -96 7 -139 1 -14 -2 -32 -1 -39 4 -7 4 -23 3 -36
-2 -12 -5 -23 -5 -23 -1 0 4 -28 6 -62 4 -35 -2 -75 -3 -90 -3 -36 1 -54 1
-75 1 -10 0 -43 0 -73 0 -30 0 -67 -1 -82 -3 -14 -2 -32 -1 -39 4 -7 4 -23 3
-36 -2 -12 -5 -23 -5 -23 -1 0 4 -28 6 -62 4 -35 -2 -75 -3 -90 -3 -36 1 -54
1 -75 1 -10 0 -43 0 -73 0 -30 0 -67 -1 -82 -3 -14 -2 -32 -1 -39 4 -7 4 -23
3 -36 -2 -12 -5 -23 -5 -23 -1 0 4 -28 6 -62 4 -35 -2 -75 -3 -90 -3 -36 1
-54 1 -75 1 -10 0 -43 0 -73 0 -30 0 -67 -1 -82 -3 -14 -2 -32 -1 -39 4 -7 4
-23 3 -36 -2 -12 -5 -23 -5 -23 -1 0 4 -28 6 -62 4 -35 -2 -75 -3 -90 -3 -36
1 -54 1 -75 1 -10 0 -43 0 -73 0 -30 0 -67 -1 -82 -3 -14 -2 -32 -1 -39 4 -7
4 -23 3 -36 -2 -12 -5 -23 -5 -23 -1 0 4 -28 6 -62 4 -35 -2 -75 -3 -90 -3
-36 1 -54 1 -75 1 -10 0 -43 0 -73 0 -30 0 -67 -1 -82 -3 -14 -2 -32 -1 -39 4
-7 4 -23 3 -36 -2 -12 -5 -23 -5 -23 -1 0 4 -28 6 -62 4 -35 -2 -75 -3 -90 -3
-36 1 -54 1 -75 1 -10 0 -43 0 -73 0 -30 0 -67 -1 -82 -3 -14 -2 -32 -1 -39 4
-7 4 -23 3 -36 -2 -12 -5 -23 -5 -23 -1 0 4 -28 6 -62 4 -35 -2 -75 -3 -90 -3
-36 1 -54 1 -75 1 -10 0 -43 0 -73 0 -30 0 -67 -1 -82 -3 -14 -2 -32 -1 -39 4
-7 4 -23 3 -36 -2 -12 -5 -23 -5 -23 -1 0 4 -28 6 -62 4 -35 -2 -75 -3 -90 -3
-36 1 -54 1 -75 1 -10 0 -43 0 -73 0 -30 0 -67 -1 -82 -3 -14 -2 -32 -1 -39 4
-7 4 -23 3 -36 -2 -12 -5 -23 -5 -23 -1 0 4 -26 6 -57 4 -87 -4 -134 -3 -143
3 -5 3 -12 -4 -15 -16z"/>
<path d="M2969 5339 c-8 -5 -13 -70 -10 -134 l1 -21 2150 0 c1493 0 2150 3
2153 10 2 6 3 42 2 81 l-1 70 -2143 0 c-1178 0 -2147 -3 -2152 -6z"/>
<path d="M2998 3072 c-41 -3 -38 2 -40 -90 -1 -21 3 -46 8 -54 8 -15 190 -16
2154 -15 l2144 2 1 73 c0 41 -3 76 -8 79 -9 6 -4192 10 -4259 5z"/>
</g>
</svg>
