<?xml version="1.0" standalone="no"?>
<!DOCTYPE svg PUBLIC "-//W3C//DTD SVG 20010904//EN"
 "http://www.w3.org/TR/2001/REC-SVG-20010904/DTD/svg10.dtd">
<svg version="1.0" xmlns="http://www.w3.org/2000/svg"
 width="700.000000pt" height="700.000000pt" viewBox="0 0 700.000000 700.000000"
 preserveAspectRatio="xMidYMid meet">
<metadata>
Created by potrace 1.11, written by Peter Selinger 2001-2013
</metadata>
<g transform="translate(0.000000,700.000000) scale(0.100000,-0.100000)"
fill="#000000" stroke="none">
<path d="M1106 6693 c-96 -29 -163 -90 -208 -189 l-22 -49 -1 -2790 c-1 -2061
2 -2802 10 -2835 7 -25 19 -59 28 -76 25 -49 98 -115 157 -143 l55 -26 895 0
895 -1 0 -217 c0 -181 2 -216 14 -212 7 3 58 33 113 66 55 33 114 68 131 78
34 19 511 304 537 321 8 5 53 31 99 58 84 49 84 50 60 65 -31 20 -206 125
-244 147 -16 10 -156 93 -310 185 -154 92 -295 176 -313 187 -18 10 -44 26
-58 34 -13 9 -24 15 -25 13 -1 -2 -2 -101 -2 -219 l-2 -215 -867 0 c-476 0
-870 3 -874 8 -4 4 -7 1247 -7 2763 0 2169 2 2757 12 2763 21 14 4641 8 4649
-6 4 -6 7 -1247 6 -2757 l-1 -2747 146 3 146 3 0 2755 c1 2030 -2 2767 -10
2800 -26 100 -87 173 -182 218 l-58 27 -2360 2 c-2088 1 -2366 0 -2409 -14z"/>
<path d="M2049 5100 c-5 -3 -7 -69 -6 -145 l2 -140 1456 -2 1456 -3 1 145 c0
80 -3 146 -6 146 -24 5 -2896 3 -2903 -1z"/>
<path d="M2042 3515 c-1 -71 1 -137 3 -146 5 -14 150 -15 1458 -15 l1452 1 2
125 c2 69 1 134 -2 145 l-4 21 -1454 0 -1454 0 -1 -131z"/>
<path d="M2042 2044 c-2 -130 0 -144 16 -145 9 -1 666 -2 1459 -3 l1442 -1 -2
145 -2 145 -1456 2 -1456 2 -1 -145z"/>
<path d="M3939 1309 c0 -2 -1 -264 -2 -582 -2 -459 1 -576 11 -572 16 6 933
554 949 567 9 7 -71 60 -290 190 -166 99 -318 190 -337 203 -19 13 -54 33 -77
46 -22 13 -67 40 -100 59 -32 19 -67 39 -78 45 -11 6 -32 19 -47 29 -16 10
-28 17 -29 15z"/>
</g>
</svg>
