<?xml version="1.0" encoding="UTF-8"?>
<svg viewBox="0 0 461 205" reserveAspectRatio="xMidYMid meet" version="1.1" xmlns="http://www.w3.org/2000/svg" xmlns:xlink="http://www.w3.org/1999/xlink">
    <!-- Generator: Sketch 42 (36781) - http://www.bohemiancoding.com/sketch -->
    <title>epidemics-chart</title>
    <desc>Created with Sketch.</desc>
    <defs></defs>
    <g id="Page-1" stroke="none" stroke-width="1" fill="none" fill-rule="evenodd" stroke-linecap="round" stroke-linejoin="round">
        <g id="epidemics" transform="translate(0.000000, 1.000000)">
            <path d="M0.67,4.99 L7.27,4.98 L13.24,4.91 L19.84,4.89 L26.24,4.44 L32.84,4 L39.24,2.25 L45.84,3.37 L52.45,4.21 L58.84,4.76 L65.45,4.83 L71.84,4.97 L78.44,4.97 L85.05,4.99 L91.02,4.95 L97.62,4.86 L104.02,4.84 L110.62,4.61 L117.01,4.39 L123.62,4.09 L130.23,4.7 L136.62,4.84 L143.22,4.93 L149.62,4.93 L156.22,4.87 L162.83,4.95 L168.79,4.74 L175.4,4.49 L181.79,2.77 L188.4,0 L194.79,0.81 L201.4,4.25 L208,4.64 L214.4,4.61 L221,4.81 L227.39,4.95 L234,4.96 L240.61,4.98 L246.79,4.92 L253.39,4.76 L259.78,4.6 L266.39,4.14 L272.78,4.14 L279.39,4.32 L285.99,4.55 L292.39,4.66 L298.99,4.9 L305.39,4.96 L311.99,5 L318.6,4.99 L324.56,4.98 L331.17,4.95 L337.56,4.8 L344.17,4.59 L350.56,4.62 L357.17,4.64 L363.77,4.78 L370.16,4.8 L376.77,4.92 L383.16,4.95 L389.77,4.89 L396.37,4.95 L402.34,4.87 L408.95,4.93 L415.34,4.65 L421.95,4.06 L428.34,2.43 L434.94,2.76 L441.55,3.44 L447.94,4.56 L454.55,4.92 L460.94,4.98 M0.67,7 L7.27,7 L13.24,6.93 L19.84,6.95 L26.24,6.62 L32.84,6.25 L39.24,5.35 L45.84,5.53 L52.45,6 L58.84,6.7 L65.45,6.73 L71.84,6.98 L78.44,6.95 L85.05,6.97 L91.02,6.95 L97.62,6.87 L104.02,6.5 L110.62,6.43 L117.01,6.52 L123.62,6.6 L130.23,6.82 L136.62,6.8 L143.22,6.87 L149.62,6.92 L156.22,6.95 L162.83,6.97 L168.79,6.85 L175.4,6.45 L181.79,5.33 L188.4,5.02 L194.79,2 L201.4,6.33 L208,6.7 L214.4,6.7 L221,6.83 L227.39,7 L234,6.83 L240.61,6.98 L246.79,6.92 L253.39,6.9 L259.78,6.82 L266.39,6.63 L272.78,6.62 L279.39,6.6 L285.99,6.7 L292.39,6.7 L298.99,6.77 L305.39,6.95 L311.99,6.98 L318.6,6.97 L324.56,6.98 L331.17,6.98 L337.56,6.85 L344.17,6.55 L350.56,6.3 L357.17,6.28 L363.77,6.4 L370.16,6.43 L376.77,6.88 L383.16,6.9 L389.77,6.93 L396.37,6.95 L402.34,6.9 L408.95,6.92 L415.34,6.75 L421.95,6.18 L428.34,5.37 L434.94,5.02 L441.55,6.05 L447.94,6.72 L454.55,6.93 L460.94,6.95" id="Stroke-1" stroke="#000000" stroke-width="0.38"></path>
            <path d="M0.67,8.97 L7.27,8.98 L13.24,8.91 L19.84,8.93 L26.24,8.74 L32.84,8.43 L39.24,7.43 L45.84,8.17 L52.45,8.71 L58.84,8.89 L65.45,8.92 L71.84,8.95 L78.44,8.97 L85.05,8.98 L91.02,8.87 L97.62,8.76 L104.02,8.23 L110.62,7.97 L117.01,7.89 L123.62,7.8 L130.23,8.4 L136.62,8.65 L143.22,8.75 L149.62,8.79 L156.22,8.77 L162.83,8.88 L168.79,8.67 L175.4,8.1 L181.79,6.52 L188.4,4 L194.79,5.43 L201.4,8.58 L208,8.85 L214.4,8.85 L221,8.95 L227.39,8.98 L234,8.98 L240.61,8.99 L246.79,8.98 L253.39,8.9 L259.78,8.61 L266.39,8.33 L272.78,8.33 L279.39,8.49 L285.99,8.62 L292.39,8.83 L298.99,8.81 L305.39,8.95 L311.99,8.96 L318.6,8.96 L324.56,8.93 L331.17,8.8 L337.56,8.41 L344.17,7.84 L350.56,8.14 L357.17,8.42 L363.77,8.71 L370.16,8.81 L376.77,9 L383.16,8.97 L389.77,8.96 L396.37,8.97 L402.34,8.95 L408.95,8.9 L415.34,8.67 L421.95,8.21 L428.34,7.18 L434.94,7.74 L441.55,8.4 L447.94,8.72 L454.55,8.89 L460.94,8.95 M0.67,10.98 L7.27,10.98 L13.24,11 L19.84,10.98 L26.24,10.86 L32.84,10.73 L39.24,10.29 L45.84,10.2 L52.45,10.53 L58.84,10.82 L65.45,10.98 L71.84,10.96 L78.44,10.98 L85.05,11 L91.02,10.84 L97.62,8.92 L104.02,9.02 L110.62,7.82 L117.01,6 L123.62,6.59 L130.23,8.78 L136.62,10.45 L143.22,10.84 L149.62,10.84 L156.22,10.76 L162.83,10.82 L168.79,10.88 L175.4,10.86 L181.79,10.29 L188.4,7.57 L194.79,7.43 L201.4,10.04 L208,10.84 L214.4,10.8 L221,10.84 L227.39,11 L234,10.98 L240.61,11 L246.79,10.96 L253.39,10.92 L259.78,10.76 L266.39,10.31 L272.78,10.29 L279.39,10.41 L285.99,10.59 L292.39,10.69 L298.99,10.92 L305.39,10.96 L311.99,10.92 L318.6,10.98 L324.56,10.92 L331.17,10.71 L337.56,10.33 L344.17,9.92 L350.56,7.33 L357.17,9.2 L363.77,10.18 L370.16,10.65 L376.77,10.96 L383.16,10.98 L396.37,10.98 L402.34,10.92 L408.95,10.88 L415.34,9.9 L421.95,9.16 L428.34,7.27 L434.94,7.37 L441.55,8.9 L447.94,10.29 L454.55,10.8 L460.94,10.96" id="Stroke-2" stroke="#000000" stroke-width="0.38"></path>
            <path d="M0.67,12.9 L7.27,12.87 L13.24,12.86 L19.84,12.86 L26.24,12.71 L32.84,12.67 L39.24,12.45 L45.84,12.49 L52.45,12.54 L58.84,12.43 L65.45,12.87 L71.84,12.98 L78.44,12.98 L85.05,12.95 L91.02,12.93 L97.62,12.9 L104.02,12.74 L110.62,12.49 L117.01,11.86 L123.62,12.02 L130.23,12.05 L136.62,12.42 L143.22,12.71 L149.62,12.85 L156.22,12.7 L162.83,12.72 L168.79,12.47 L175.4,12.12 L181.79,10.05 L188.4,8 L194.79,9.65 L201.4,12.62 L208,12.92 L214.4,12.91 L221,12.93 L227.39,12.98 L234,12.99 L240.61,12.99 L246.79,12.98 L253.39,12.96 L259.78,12.89 L266.39,12.63 L272.78,12.63 L279.39,12.66 L285.99,12.63 L292.39,12.61 L298.99,12.81 L305.39,12.94 L311.99,12.96 L318.6,12.95 L324.56,12.85 L331.17,12.7 L337.56,12.04 L344.17,11.88 L350.56,12.35 L357.17,12.69 L363.77,12.78 L370.16,12.84 L376.77,12.96 L383.16,12.96 L389.77,12.95 L396.37,12.93 L402.34,12.89 L408.95,12.94 L415.34,12.69 L421.95,12.54 L428.34,11.94 L434.94,12.09 L441.55,12.48 L447.94,12.7 L454.55,12.86 L460.94,12.96 M0.67,14.86 L7.27,14.95 L13.24,14.91 L19.84,14.86 L26.24,14.7 L32.84,14.4 L39.24,13.45 L45.84,13.73 L52.45,14.57 L58.84,14.95 L65.45,14.83 L71.84,14.91 L78.44,14.9 L85.05,14.9 L91.02,14.88 L97.62,14.83 L104.02,14.14 L110.62,12.87 L117.01,11.27 L123.62,10.29 L130.23,12.38 L136.62,14.34 L143.22,14.79 L149.62,14.82 L156.22,14.69 L162.83,14.84 L168.79,14.66 L175.4,14.28 L181.79,13.09 L188.4,10 L194.79,10.12 L201.4,13.86 L208,14.57 L214.4,14.55 L221,14.86 L227.39,14.87 L234,14.88 L240.61,14.93 L246.79,14.88 L253.39,14.64 L259.78,14.2 L266.39,14.12 L272.78,14.12 L279.39,14.39 L285.99,14.43 L292.39,14.4 L298.99,14.77 L305.39,14.92 L311.99,14.95 L318.6,14.97 L324.56,14.89 L331.17,14.9 L337.56,14.61 L344.17,14.21 L350.56,14.04 L357.17,14.27 L363.77,14.72 L370.16,14.88 L376.77,14.96 L383.16,14.96 L389.77,14.99 L396.37,14.97 L402.34,14.96 L408.95,14.93 L415.34,14.9 L421.95,14.69 L428.34,14.18 L434.94,13.73 L441.55,14.23 L447.94,14.54 L454.55,14.85 L460.94,14.89" id="Stroke-3" stroke="#000000" stroke-width="0.38"></path>
            <path d="M0.67,16.95 L7.27,16.99 L13.24,16.97 L19.84,16.91 L26.24,16.65 L32.84,16.65 L39.24,16.51 L45.84,16.74 L52.45,16.75 L58.84,16.9 L65.45,16.97 L71.84,16.99 L78.44,16.99 L85.05,17 L91.02,16.99 L97.62,17 L104.02,16.94 L110.62,16.91 L117.01,16.92 L123.62,16.95 L130.23,16.92 L136.62,16.94 L143.22,16.94 L149.62,16.91 L156.22,16.94 L162.83,16.95 L168.79,16.71 L175.4,15.76 L181.79,14.42 L188.4,12 L194.79,14.04 L201.4,16.83 L208,16.97 L214.4,16.97 L221,16.99 L234,16.99 L240.61,17 L246.79,17 L253.39,16.91 L259.78,16.85 L266.39,16.93 L272.78,16.92 L279.39,16.92 L285.99,16.89 L292.39,16.82 L298.99,16.86 L305.39,16.98 L311.99,16.99 L318.6,16.99 L324.56,16.91 L331.17,16.86 L337.56,16.82 L344.17,16.62 L350.56,16.76 L357.17,16.69 L363.77,16.82 L370.16,16.86 L376.77,16.99 L383.16,16.99 L389.77,16.97 L396.37,16.98 L402.34,16.94 L408.95,16.87 L415.34,16.53 L421.95,15.63 L428.34,15.11 L434.94,16.04 L441.55,16.42 L447.94,16.66 L454.55,16.89 L460.94,16.97 M0.67,18.9 L7.27,18.89 L13.24,18.9 L19.84,18.85 L26.24,18.67 L32.84,18.46 L39.24,18.17 L45.84,18.01 L52.45,18.26 L58.84,18.5 L65.45,18.74 L71.84,18.9 L78.44,18.9 L85.05,18.96 L91.02,18.9 L97.62,18.71 L104.02,17.84 L110.62,17.24 L117.01,16.49 L123.62,15.83 L130.23,16.31 L136.62,17.49 L143.22,18.01 L149.62,18.17 L156.22,18.44 L162.83,18.61 L168.79,18.58 L175.4,17.86 L181.79,16.12 L188.4,14 L194.79,14.61 L201.4,18.07 L208,18.74 L214.4,18.73 L221,18.89 L227.39,18.96 L234,18.97 L240.61,18.98 L246.79,18.97 L253.39,18.98 L259.78,18.86 L266.39,18.03 L272.78,18.03 L279.39,18.25 L285.99,18.33 L292.39,18.62 L298.99,18.68 L305.39,18.81 L311.99,18.89 L318.6,18.87 L324.56,18.79 L331.17,18.66 L337.56,18.03 L344.17,17.32 L350.56,17.3 L357.17,17.53 L363.77,18.12 L370.16,18.41 L376.77,18.88 L383.16,18.93 L389.77,18.94 L396.37,18.94 L402.34,18.92 L408.95,18.88 L415.34,18.64 L421.95,18.23 L428.34,17.54 L434.94,17.6 L441.55,18.29 L447.94,18.51 L454.55,18.8 L460.94,18.83" id="Stroke-4" stroke="#000000" stroke-width="0.38"></path>
            <path d="M0.67,20.96 L13.24,20.96 L19.84,20.92 L26.24,21 L32.84,20.8 L39.24,20.69 L45.84,20.92 L52.45,20.84 L58.84,20.8 L65.45,20.88 L71.84,20.92 L78.44,21 L85.05,21 L91.02,19.58 L97.62,20.96 L104.02,20.57 L110.62,16 L117.01,20.29 L123.62,20.72 L130.23,20.88 L136.62,21 L143.22,20.96 L156.22,20.96 L162.83,20.92 L168.79,20.76 L175.4,20.37 L181.79,19.15 L188.4,19.54 L194.79,18.8 L201.4,20.8 L208,20.96 L214.4,20.96 L221,21 L234,21 L240.61,20.92 L246.79,21 L253.39,20.96 L259.78,20.8 L266.39,20.69 L272.78,20.69 L279.39,20.76 L285.99,20.57 L292.39,20.84 L298.99,20.96 L305.39,20.92 L311.99,21 L318.6,20.92 L324.56,20.92 L331.17,20.53 L337.56,19.23 L344.17,16.35 L350.56,19.11 L357.17,19.82 L363.77,20.88 L370.16,21 L402.34,21 L408.95,20.92 L415.34,20.72 L421.95,20.72 L428.34,20.33 L434.94,20.65 L441.55,20.88 L447.94,20.84 L454.55,20.92 M0.67,22.73 L7.27,22.96 L13.24,22.88 L19.84,22.77 L26.24,22.27 L32.84,21.5 L39.24,22.54 L45.84,22.38 L52.45,22.58 L58.84,22.85 L65.45,22.77 L71.84,23 L78.44,22.85 L85.05,23 L91.02,23 L97.62,22.92 L104.02,22.81 L110.62,22.88 L117.01,22.69 L123.62,22.81 L130.23,22.69 L136.62,22.92 L143.22,22.73 L149.62,22.81 L156.22,22.54 L162.83,22.62 L168.79,22.35 L175.4,22.12 L181.79,19.35 L188.4,18 L194.79,21.54 L201.4,22.69 L208,22.77 L214.4,22.77 L221,23 L227.39,23 L234,22.96 L240.61,22.96 L246.79,23 L253.39,23 L259.78,22.92 L279.39,22.92 L285.99,22.69 L292.39,22.88 L298.99,22.77 L305.39,22.77 L311.99,22.85 L318.6,22.81 L324.56,22.62 L331.17,22.04 L337.56,22.04 L344.17,22.12 L350.56,22.19 L357.17,22.58 L363.77,22.69 L370.16,22.77 L376.77,22.96 L383.16,22.88 L389.77,22.96 L396.37,22.81 L402.34,22.77 L408.95,22.85 L415.34,22.38 L421.95,22.23 L428.34,21.69 L434.94,22.46 L441.55,22.35 L447.94,22.58 L454.55,22.85 L460.94,22.77" id="Stroke-5" stroke="#000000" stroke-width="0.38"></path>
            <path d="M0.67,24.97 L7.27,25 L13.24,25 L19.84,24.9 L26.24,24.8 L32.84,24.26 L39.24,24.36 L45.84,24.09 L52.45,24.39 L58.84,24.66 L65.45,24.8 L71.84,24.97 L78.44,25 L85.05,25 L91.02,24.9 L97.62,24.97 L104.02,24.97 L110.62,24.36 L117.01,23.95 L123.62,24.36 L130.23,24.83 L136.62,24.83 L143.22,24.97 L149.62,25 L162.83,25 L168.79,24.86 L175.4,24.76 L181.79,23.61 L188.4,21.28 L194.79,20 L201.4,23.18 L208,24.32 L214.4,24.29 L221,24.76 L227.39,24.76 L234,24.93 L240.61,24.83 L246.79,24.83 L253.39,24.53 L259.78,24.12 L266.39,22.8 L272.78,22.77 L279.39,24.02 L285.99,24.32 L292.39,24.76 L298.99,24.97 L305.39,25 L311.99,24.93 L318.6,24.97 L324.56,25 L331.17,24.93 L337.56,24.76 L344.17,24.49 L350.56,24.76 L357.17,24.66 L363.77,24.97 L370.16,24.86 L376.77,24.93 L383.16,24.9 L389.77,24.97 L396.37,24.93 L402.34,24.93 L408.95,25 L415.34,24.97 L421.95,24.66 L428.34,24.26 L434.94,24.22 L441.55,23.99 L447.94,24.56 L454.55,24.97 L460.94,24.97 M0.67,26.77 L7.27,26.85 L13.24,26.83 L19.84,26.91 L26.24,26.89 L32.84,26.77 L39.24,26.5 L45.84,26.18 L52.45,26.23 L58.84,26.09 L65.45,26.43 L71.84,26.62 L78.44,26.7 L85.05,26.74 L91.02,26.72 L97.62,26.59 L104.02,26.43 L110.62,26.17 L117.01,25.55 L123.62,24.81 L130.23,25.09 L136.62,25.6 L143.22,25.46 L149.62,25.64 L156.22,26.12 L162.83,26.59 L168.79,26.67 L175.4,26.33 L181.79,25.39 L188.4,23.35 L194.79,22 L201.4,25.16 L208,26.1 L214.4,26.07 L221,26.55 L227.39,26.8 L234,26.86 L240.61,26.95 L246.79,26.95 L253.39,26.91 L259.78,26.69 L266.39,26 L272.78,25.99 L279.39,25.88 L285.99,25.57 L292.39,25.38 L298.99,25.68 L305.39,26.5 L311.99,26.64 L318.6,26.73 L324.56,26.7 L331.17,26.6 L337.56,26.3 L344.17,25.65 L350.56,25.53 L357.17,25.77 L363.77,26.26 L370.16,26.24 L376.77,26.83 L383.16,26.72 L389.77,26.81 L396.37,26.85 L402.34,26.75 L408.95,26.87 L415.34,26.76 L421.95,26.66 L428.34,26.05 L434.94,25.63 L441.55,25.76 L447.94,26.14 L454.55,26.46 L460.94,26.52" id="Stroke-6" stroke="#000000" stroke-width="0.38"></path>
            <path d="M0.67,29 L7.27,29 L13.24,28.89 L19.84,28.36 L26.24,27.51 L32.84,25.49 L39.24,25.17 L45.84,26.55 L52.45,28.04 L58.84,28.79 L65.45,28.89 L71.84,29 L78.44,28.89 L85.05,29 L97.62,29 L104.02,28.79 L110.62,28.89 L117.01,28.68 L123.62,28.89 L130.23,29 L136.62,29 L143.22,28.68 L149.62,28.89 L156.22,29 L162.83,28.89 L168.79,28.68 L175.4,28.89 L181.79,28.68 L188.4,27.72 L194.79,27.3 L201.4,27.3 L208,28.36 L214.4,28.36 L221,28.79 L227.39,29 L240.61,29 L246.79,28.79 L253.39,28.79 L259.78,27.83 L266.39,24.85 L272.78,24.85 L279.39,28.15 L285.99,28.47 L292.39,28.47 L298.99,27.94 L305.39,28.36 L311.99,28.68 L318.6,29 L324.56,28.68 L331.17,28.57 L337.56,28.36 L344.17,26.02 L350.56,24 L357.17,24.64 L363.77,26.77 L370.16,27.4 L376.77,28.36 L383.16,28.89 L389.77,28.68 L396.37,29 L402.34,28.79 L408.95,28.68 L415.34,28.57 L421.95,28.26 L428.34,25.49 L434.94,26.77 L441.55,28.04 L447.94,28.57 L454.55,28.89 M0.67,30.99 L7.27,31 L13.24,30.98 L19.84,30.99 L26.24,30.89 L32.84,30.65 L39.24,30.83 L45.84,30.7 L52.45,30.81 L58.84,30.85 L65.45,30.83 L71.84,30.94 L78.44,30.97 L85.05,30.94 L91.02,30.95 L97.62,30.91 L104.02,30.85 L110.62,30.4 L117.01,29.85 L123.62,29.7 L130.23,29.81 L136.62,30.4 L143.22,30.47 L149.62,30.68 L156.22,30.73 L162.83,30.88 L168.79,30.77 L175.4,30.37 L181.79,28.48 L188.4,26 L194.79,27.53 L201.4,30.42 L208,30.78 L214.4,30.78 L221,30.91 L227.39,30.99 L234,30.96 L240.61,30.96 L246.79,30.97 L253.39,30.94 L259.78,30.85 L266.39,30.64 L272.78,30.64 L279.39,30.67 L285.99,30.64 L292.39,30.7 L298.99,30.82 L305.39,30.93 L311.99,30.97 L318.6,30.97 L324.56,30.93 L331.17,30.72 L337.56,30.65 L344.17,30.49 L350.56,30.4 L357.17,30.41 L363.77,30.7 L370.16,30.82 L376.77,30.94 L383.16,30.95 L389.77,30.99 L396.37,31 L402.34,30.98 L408.95,30.96 L415.34,30.91 L421.95,30.83 L428.34,30.57 L434.94,30.48 L441.55,30.49 L447.94,30.71 L454.55,30.85 L460.94,30.94" id="Stroke-7" stroke="#000000" stroke-width="0.38"></path>
            <path d="M0.67,32.97 L7.27,32.99 L13.24,32.97 L19.84,32.97 L26.24,32.95 L32.84,32.82 L39.24,32.58 L45.84,32.6 L52.45,32.78 L58.84,32.89 L65.45,32.95 L71.84,32.97 L78.44,32.96 L85.05,32.98 L91.02,32.95 L97.62,32.94 L104.02,32.82 L110.62,32.73 L117.01,32.54 L123.62,32.31 L130.23,32.5 L136.62,32.71 L143.22,32.82 L149.62,32.88 L156.22,32.79 L162.83,32.92 L168.79,32.65 L175.4,32.17 L181.79,31.19 L188.4,28.07 L194.79,28 L201.4,31.8 L208,32.43 L214.4,32.43 L221,32.76 L227.39,32.81 L234,32.85 L240.61,32.93 L246.79,32.86 L253.39,32.72 L259.78,32.51 L266.39,32.35 L272.78,32.35 L279.39,32.12 L285.99,32.23 L292.39,32.29 L298.99,32.62 L305.39,32.91 L311.99,32.95 L318.6,32.95 L324.56,32.94 L331.17,32.82 L337.56,32.76 L344.17,32.29 L350.56,31.77 L357.17,31.75 L363.77,32.25 L370.16,32.62 L376.77,32.96 L383.16,32.9 L389.77,32.97 L396.37,32.95 L402.34,32.93 L408.95,32.94 L415.34,32.9 L421.95,32.66 L428.34,31.91 L434.94,31.53 L441.55,32.05 L447.94,32.55 L454.55,32.88 L460.94,32.91 M0.67,35 L85.05,35 L91.02,34.58 L97.62,35 L104.02,35 L110.62,33.33 L117.01,33.75 L123.62,34.58 L130.23,35 L136.62,34.58 L143.22,35 L149.62,34.58 L156.22,35 L168.79,35 L175.4,34.58 L181.79,33.75 L188.4,32.92 L194.79,31.25 L201.4,35 L240.61,35 L246.79,34.58 L253.39,34.17 L259.78,35 L266.39,34.17 L285.99,34.17 L292.39,34.58 L298.99,34.17 L305.39,35 L331.17,35 L337.56,34.58 L350.56,34.58 L357.17,33.75 L363.77,33.75 L370.16,35 L376.77,34.17 L383.16,34.58 L389.77,35 L396.37,35 L402.34,34.58 L421.95,34.58 L428.34,30 L434.94,32.08 L441.55,34.58 M0.67,36.99 L7.27,36.99 L13.24,37 L19.84,37 L26.24,36.99 L32.84,36.99 L39.24,36.71 L45.84,36.78 L52.45,36.79 L58.84,36.88 L65.45,36.85 L71.84,36.98 L78.44,37 L91.02,37 L97.62,36.99 L104.02,36.7 L110.62,36.73 L117.01,35.71 L123.62,36.21 L130.23,36.8 L136.62,36.98 L143.22,36.91 L149.62,36.96 L156.22,36.98 L162.83,36.96 L168.79,37 L175.4,36.96 L181.79,36.71 L188.4,33.64 L194.79,32 L201.4,35.46 L208,36.98 L221,36.98 L227.39,37 L259.78,37 L266.39,36.9 L272.78,36.9 L279.39,36.86 L285.99,36.73 L292.39,36.57 L298.99,36.99 L305.39,37 L311.99,36.98 L318.6,36.99 L324.56,36.96 L331.17,36.99 L337.56,36.86 L344.17,36.81 L350.56,36.79 L357.17,36.81 L363.77,36.91 L370.16,36.88 L376.77,36.98 L383.16,36.99 L389.77,36.98 L396.37,37 L402.34,36.99 L408.95,37 L415.34,36.99 L421.95,36.9 L428.34,36.78 L434.94,36.64 L441.55,36.79 L447.94,36.93 L454.55,36.93 L460.94,36.99" id="Stroke-8" stroke="#000000" stroke-width="0.38"></path>
            <path d="M0.67,39 L7.27,38.99 L13.24,38.99 L19.84,38.98 L26.24,38.96 L32.84,38.81 L39.24,38.06 L45.84,38.54 L52.45,38.55 L58.84,38.8 L65.45,38.93 L71.84,38.99 L78.44,38.99 L85.05,39 L91.02,38.99 L97.62,39 L104.02,38.97 L110.62,38.87 L117.01,38.74 L123.62,38.76 L130.23,38.74 L136.62,38.75 L143.22,38.94 L149.62,38.92 L156.22,38.91 L162.83,38.95 L168.79,38.91 L175.4,38.38 L181.79,37.45 L188.4,34 L194.79,35.23 L201.4,38.83 L208,38.96 L214.4,38.96 L221,38.98 L227.39,39 L234,38.99 L240.61,39 L253.39,39 L259.78,38.98 L266.39,38.86 L272.78,38.86 L279.39,38.88 L285.99,38.81 L292.39,38.91 L298.99,38.89 L305.39,38.98 L311.99,38.99 L318.6,38.97 L324.56,38.97 L331.17,38.93 L337.56,38.75 L344.17,38.56 L350.56,38.7 L357.17,38.8 L363.77,38.88 L370.16,38.96 L376.77,39 L383.16,38.99 L389.77,38.99 L396.37,38.98 L402.34,38.98 L408.95,38.99 L415.34,38.95 L421.95,38.94 L428.34,38.7 L434.94,38.62 L441.55,38.83 L447.94,38.9 L454.55,38.96 L460.94,38.99 M0.67,41 L7.27,40.98 L13.24,41 L19.84,41 L26.24,40.98 L32.84,41 L52.45,41 L58.84,40.95 L65.45,41 L104.02,41 L110.62,40.95 L117.01,40.98 L123.62,41 L130.23,40.98 L136.62,40.98 L143.22,41 L201.4,41 L208,40.98 L214.4,41 L227.39,41 L234,40.98 L240.61,41 L253.39,41 L259.78,40.72 L266.39,39.77 L272.78,40.95 L279.39,40.79 L285.99,40.24 L292.39,39.89 L298.99,39.73 L305.39,40.88 L311.99,40.98 L318.6,41 L324.56,40.98 L331.17,40.93 L337.56,39.29 L344.17,36 L350.56,36.09 L357.17,38.45 L363.77,39.8 L370.16,40.28 L376.77,40.88 L383.16,40.91 L389.77,40.98 L396.37,40.98 L402.34,40.95 L408.95,41 L415.34,40.98 L421.95,40.88 L428.34,40.79 L434.94,40.81 L441.55,40.38 L447.94,40.49 L454.55,40.58 L460.94,40.91 M0.67,42.98 L7.27,42.86 L13.24,42.89 L19.84,42.85 L26.24,42.41 L32.84,42.12 L39.24,41.79 L45.84,42.65 L52.45,42.63 L58.84,42.7 L65.45,42.61 L71.84,42.7 L78.44,42.97 L85.05,42.98 L91.02,42.99 L97.62,42.98 L104.02,42.94 L110.62,42.82 L117.01,42.68 L123.62,42.65 L130.23,41.94 L136.62,42.78 L143.22,42.85 L149.62,42.78 L156.22,42.98 L162.83,42.99 L168.79,42.89 L175.4,42.84 L181.79,42.91 L188.4,42.79 L194.79,42.54 L201.4,42.74 L208,42.14 L214.4,42.65 L221,42.87 L227.39,42.99 L234,42.89 L240.61,42.92 L246.79,42.99 L253.39,42.97 L259.78,42.83 L266.39,42.78 L272.78,42.65 L279.39,42.63 L285.99,42.66 L292.39,42.94 L298.99,42.86 L305.39,42.99 L311.99,42.98 L318.6,42.97 L324.56,43 L331.17,42.98 L337.56,43 L344.17,42.92 L350.56,42.6 L357.17,42.9 L363.77,43 L370.16,42.99 L376.77,42.98 L383.16,42.99 L389.77,43 L396.37,42.94 L402.34,42.89 L408.95,42.24 L415.34,41.04 L421.95,41.01 L428.34,38 L434.94,40.13 L441.55,40.95 L447.94,42.34 L454.55,42.93 L460.94,42.93" id="Stroke-9" stroke="#000000" stroke-width="0.38"></path>
            <path d="M0.67,44.96 L7.27,44.91 L13.24,43.79 L19.84,44.63 L26.24,44.11 L32.84,43.62 L39.24,43.26 L45.84,43.87 L52.45,44.47 L58.84,44.37 L65.45,44.47 L71.84,44.46 L78.44,44.77 L85.05,44.87 L91.02,44.71 L97.62,44.85 L104.02,44.7 L110.62,44.53 L117.01,44.03 L123.62,44.12 L130.23,44.12 L136.62,44.21 L143.22,44.31 L149.62,43.49 L156.22,44.67 L162.83,44.64 L168.79,44.66 L175.4,44.55 L181.79,44.6 L188.4,44.32 L194.79,43.81 L201.4,43.08 L208,43.67 L214.4,44.42 L221,44.51 L227.39,44.61 L234,44.55 L240.61,44.45 L246.79,44.44 L253.39,44.58 L259.78,44.31 L266.39,43.19 L272.78,44.01 L279.39,44.12 L285.99,43.87 L292.39,44.14 L298.99,44.38 L305.39,44.55 L311.99,44.81 L318.6,44.71 L324.56,44.63 L331.17,44.38 L337.56,44.6 L344.17,44.24 L350.56,44.25 L357.17,44.33 L363.77,44.36 L370.16,44.64 L376.77,44.79 L383.16,44.8 L389.77,44.88 L396.37,44.76 L402.34,44.79 L408.95,44.58 L415.34,44.3 L421.95,43.81 L428.34,41.11 L434.94,41.32 L441.55,40 L447.94,42.93 L454.55,44.17 L460.94,44.82 M0.67,47 L85.05,47 L91.02,46 L97.62,47 L110.62,47 L117.01,46 L123.62,47 L221,47 L227.39,46 L234,47 L279.39,47 L285.99,46 L292.39,47 L298.99,47 L305.39,46 L311.99,47 L357.17,47 L363.77,46 L383.16,46 L389.77,47 L421.95,47 L428.34,45 L434.94,42 L441.55,43 L447.94,45 L454.55,47 L460.94,47 M0.67,49 L32.84,49 L39.24,48.77 L45.84,49 L130.23,49 L136.62,48.77 L143.22,49 L324.56,49 L331.17,48.89 L337.56,49 L344.17,48.77 L350.56,48.89 L357.17,49 L363.77,48.55 L370.16,48.43 L376.77,48.32 L383.16,48.55 L389.77,49 L396.37,48.77 L402.34,48.55 L408.95,48.32 L415.34,48.2 L421.95,48.89 L428.34,48.55 L434.94,46.5 L441.55,44 L447.94,45.7 L454.55,47.52 L460.94,48.77" id="Stroke-10" stroke="#000000" stroke-width="0.38"></path>
            <path d="M0.67,51 L7.27,50.99 L26.24,50.99 L32.84,51 L39.24,50.85 L45.84,50.89 L52.45,51 L58.84,50.9 L65.45,50.98 L71.84,50.99 L97.62,50.99 L104.02,50.98 L110.62,50.82 L117.01,50.84 L123.62,50.98 L130.23,50.88 L136.62,50.91 L143.22,50.99 L149.62,50.99 L156.22,51 L168.79,51 L175.4,50.99 L181.79,50.97 L188.4,50.98 L194.79,50.78 L201.4,50.93 L208,50.97 L214.4,50.93 L221,50.91 L227.39,50.97 L234,51 L240.61,50.91 L246.79,50.88 L253.39,50.82 L259.78,50.36 L266.39,50.11 L272.78,50.91 L279.39,50.93 L285.99,50.92 L292.39,50.82 L298.99,50.36 L305.39,50.11 L311.99,51 L337.56,51 L344.17,50.95 L350.56,50.83 L357.17,50.82 L363.77,49.27 L370.16,50.09 L376.77,50.52 L383.16,51 L389.77,50.96 L396.37,50.99 L415.34,50.99 L421.95,50.84 L428.34,50.11 L434.94,49.25 L441.55,46 L447.94,49.09 L454.55,50.37 L460.94,50.96 M0.67,53 L104.02,53 L110.62,52.98 L117.01,52.98 L123.62,52.94 L130.23,52.98 L136.62,52.94 L143.22,53 L175.4,53 L181.79,52.98 L188.4,53 L194.79,52.98 L201.4,53 L350.56,53 L357.17,52.98 L363.77,52.69 L370.16,52.88 L376.77,52.73 L383.16,52.63 L389.77,52.98 L396.37,53 L415.34,53 L421.95,52.77 L428.34,50.58 L434.94,51.63 L441.55,49 L447.94,48 L454.55,49.54 L460.94,52.26 M0.67,54.99 L7.27,54.98 L13.24,54.99 L19.84,54.95 L26.24,54.88 L32.84,54.67 L39.24,53.15 L45.84,54.12 L52.45,53.95 L58.84,54.52 L65.45,54.8 L71.84,54.99 L78.44,55 L85.05,54.99 L91.02,55 L97.62,54.89 L104.02,54.73 L110.62,54.55 L117.01,53.87 L123.62,53.65 L130.23,53.88 L136.62,54.02 L143.22,54.28 L149.62,54.59 L156.22,54.81 L162.83,54.97 L168.79,54.88 L175.4,54.76 L181.79,54.45 L188.4,53.82 L194.79,52.59 L201.4,52.81 L208,52.52 L214.4,54.33 L221,54.91 L227.39,55 L234,54.99 L246.79,54.99 L253.39,55 L259.78,54.99 L266.39,54.94 L272.78,54.93 L279.39,54.98 L285.99,54.99 L292.39,54.94 L298.99,54.99 L305.39,55 L337.56,55 L344.17,54.99 L350.56,54.92 L357.17,54.79 L363.77,54.7 L370.16,54.9 L376.77,54.79 L383.16,54.98 L389.77,54.99 L396.37,54.99 L402.34,54.88 L408.95,54.68 L415.34,54.77 L421.95,53.18 L428.34,50 L434.94,51.48 L441.55,51.46 L447.94,54.02 L454.55,54.85 L460.94,55" id="Stroke-11" stroke="#000000" stroke-width="0.38"></path>
            <path d="M0.67,56.99 L7.27,56.92 L13.24,56.95 L19.84,56.88 L26.24,56.89 L32.84,56.77 L39.24,56.71 L45.84,56.9 L52.45,56.94 L58.84,56.78 L65.45,56.92 L71.84,57 L78.44,56.97 L85.05,56.98 L91.02,56.97 L97.62,56.98 L104.02,56.85 L110.62,56.71 L117.01,56.58 L123.62,56.47 L130.23,56.59 L136.62,56.92 L143.22,56.76 L149.62,56.73 L156.22,56.95 L162.83,56.88 L168.79,56.78 L175.4,56.96 L181.79,56.92 L188.4,56.87 L194.79,56.79 L201.4,56.62 L208,56.87 L214.4,56.82 L221,56.96 L227.39,56.95 L234,56.99 L240.61,56.93 L246.79,56.89 L253.39,56.99 L259.78,56.96 L266.39,56.73 L272.78,56.7 L279.39,56.69 L285.99,56.59 L292.39,56.6 L298.99,56.54 L305.39,56.79 L311.99,56.92 L318.6,56.9 L324.56,56.93 L331.17,56.85 L337.56,56.81 L344.17,56.76 L350.56,56.76 L357.17,56.67 L363.77,56.49 L370.16,56.36 L376.77,56.25 L383.16,56.25 L389.77,56.79 L396.37,56.3 L402.34,56.62 L408.95,56.56 L415.34,56.2 L421.95,55.54 L428.34,52.34 L434.94,52 L441.55,52.31 L447.94,54.43 L454.55,56.27 L460.94,56.77 M0.67,58.98 L7.27,59 L13.24,58.98 L19.84,58.92 L26.24,58.91 L32.84,58.74 L39.24,58.65 L45.84,58.58 L52.45,58.57 L58.84,58.58 L65.45,58.76 L71.84,58.87 L78.44,58.95 L85.05,58.93 L91.02,58.98 L97.62,58.96 L104.02,58.86 L110.62,58.46 L117.01,57.45 L123.62,57.51 L130.23,57.84 L136.62,57.97 L143.22,58.09 L149.62,58.1 L156.22,58.82 L162.83,58.91 L168.79,58.93 L175.4,58.93 L181.79,58.95 L188.4,58.78 L194.79,58.18 L201.4,58.21 L208,57.84 L214.4,58.12 L221,58.48 L227.39,58.65 L234,58.89 L240.61,58.99 L246.79,58.95 L253.39,58.99 L259.78,58.95 L266.39,58.9 L272.78,58.64 L279.39,58.6 L285.99,58.6 L292.39,58.83 L298.99,58.73 L305.39,58.76 L311.99,58.89 L318.6,58.97 L324.56,58.96 L331.17,58.95 L337.56,58.89 L344.17,58.72 L350.56,57.95 L357.17,57.79 L363.77,57.44 L370.16,57.28 L376.77,57.36 L383.16,57.96 L389.77,58.57 L396.37,58.64 L402.34,58.74 L408.95,58.66 L415.34,58.55 L421.95,58.25 L428.34,55.7 L434.94,54 L441.55,54.67 L447.94,56.65 L454.55,58.18 L460.94,58.86" id="Stroke-12" stroke="#000000" stroke-width="0.38"></path>
            <path d="M0.67,61 L13.24,61 L19.84,60.41 L26.24,57.13 L32.84,56.86 L39.24,56 L45.84,56.32 L52.45,60.82 L58.84,60.82 L65.45,61 L71.84,60.95 L78.44,61 L85.05,59.29 L91.02,60.68 L97.62,60.95 L104.02,61 L110.62,60.95 L117.01,56.05 L123.62,61 L130.23,60.86 L136.62,61 L175.4,61 L181.79,60.95 L188.4,60.64 L194.79,57.85 L201.4,59.24 L208,57.67 L214.4,60.95 L221,61 L227.39,60.95 L234,61 L253.39,61 L259.78,60.91 L266.39,60.73 L272.78,60.14 L279.39,60.68 L285.99,60.95 L292.39,60.86 L298.99,60.91 L305.39,60.95 L311.99,61 L331.17,61 L337.56,60.95 L344.17,60.37 L350.56,60.5 L357.17,59.33 L363.77,60.5 L370.16,60.77 L376.77,60.77 L383.16,61 L402.34,61 L408.95,60.91 L415.34,61 L421.95,59.96 L428.34,59.02 L434.94,59.24 L441.55,59.15 L447.94,60.28 L454.55,61 L460.94,60.77 M0.67,63 L117.01,63 L123.62,62.74 L130.23,63 L259.78,63 L266.39,62.87 L272.78,63 L331.17,63 L337.56,58 L344.17,58.77 L350.56,62.87 L357.17,61.72 L363.77,63 L421.95,63 L428.34,61.85 L434.94,59.41 L441.55,58.64 L447.94,62.36 L454.55,62.74 L460.94,62.74 M0.67,62.69 L7.27,63.43 L13.24,63.84 L19.84,64.3 L26.24,64.14 L32.84,63.65 L39.24,63.23 L45.84,62.56 L52.45,62.01 L58.84,61.83 L65.45,62.57 L71.84,61.96 L78.44,62 L85.05,62.18 L91.02,62.74 L97.62,63.83 L104.02,63.46 L110.62,63.4 L117.01,63.41 L123.62,63.16 L130.23,63.52 L136.62,63.7 L143.22,63.33 L149.62,63.45 L156.22,62.06 L162.83,62.66 L168.79,63.38 L175.4,63.22 L181.79,62.34 L188.4,62.84 L194.79,62.12 L201.4,61.86 L208,63.43 L214.4,62.86 L221,63.18 L227.39,63.12 L234,62.8 L240.61,63.01 L246.79,63.57 L253.39,62.3 L259.78,62.32 L266.39,62.7 L272.78,61.54 L279.39,61.76 L285.99,62.63 L292.39,62.11 L298.99,62.38 L305.39,61.62 L311.99,62.84 L318.6,63.05 L324.56,63.37 L331.17,62.43 L337.56,63.18 L344.17,63.48 L350.56,63.42 L357.17,63.62 L363.77,63.8 L370.16,63.68 L376.77,63.7 L383.16,63.22 L389.77,63.04 L396.37,63.1 L402.34,62.81 L408.95,63.03 L415.34,62.66 L421.95,60.82 L428.34,61.27 L434.94,62.07 L441.55,60 L447.94,60.59 L454.55,62.56 L460.94,62.8" id="Stroke-13" stroke="#000000" stroke-width="0.38"></path>
            <path d="M0.67,65.04 L7.27,65.53 L13.24,65.86 L19.84,66.02 L26.24,65.72 L32.84,64.75 L39.24,65.61 L45.84,64.12 L52.45,64.25 L58.84,64.66 L65.45,65.39 L71.84,65.24 L78.44,65.8 L85.05,65.62 L91.02,64.85 L97.62,65.78 L104.02,64.94 L110.62,64.91 L117.01,64.96 L123.62,65.42 L130.23,65.97 L136.62,66.1 L143.22,65.31 L149.62,65.34 L156.22,64.66 L162.83,66.07 L168.79,65.86 L175.4,65.8 L181.79,64.1 L188.4,64.85 L194.79,64.96 L201.4,64.83 L208,65.8 L214.4,65.75 L221,65.62 L227.39,65.53 L234,65.2 L240.61,65.62 L246.79,65.61 L253.39,65.1 L259.78,65.47 L266.39,65.18 L272.78,64.25 L279.39,64.85 L285.99,65.28 L292.39,65.15 L298.99,65.34 L305.39,64.74 L311.99,65.13 L318.6,65.91 L324.56,66 L331.17,65.32 L337.56,65.88 L344.17,65.37 L350.56,65.96 L357.17,66.13 L363.77,65.88 L370.16,65.83 L376.77,65.4 L383.16,64.47 L389.77,64.72 L396.37,62 L402.34,64.93 L408.95,64.83 L415.34,64.01 L421.95,62.95 L428.34,65.29 L434.94,66.05 L441.55,66.24 L447.94,66.4 L454.55,66.37 L460.94,66.46 M0.67,65.14 L7.27,64.77 L13.24,67.24 L19.84,67.98 L26.24,68.14 L32.84,66.41 L39.24,66.99 L45.84,66.44 L52.45,67.09 L58.84,66.39 L65.45,66.56 L71.84,66.7 L78.44,67.21 L85.05,67.41 L91.02,67.36 L97.62,67.95 L104.02,67.33 L110.62,66.82 L117.01,67.15 L123.62,67.27 L130.23,67.32 L136.62,68 L143.22,66.64 L149.62,66.58 L156.22,65.05 L162.83,67.47 L168.79,67.13 L175.4,66.39 L181.79,64 L188.4,64.97 L194.79,64.74 L201.4,64.59 L208,66.5 L214.4,64.86 L221,65.16 L227.39,68.6 L234,65.91 L240.61,66.99 L246.79,67.92 L253.39,67.67 L259.78,67.92 L266.39,67.87 L272.78,67.53 L279.39,67.61 L285.99,67.44 L292.39,67.1 L298.99,67.32 L305.39,66.22 L311.99,66.85 L318.6,67.67 L324.56,68 L331.17,68.12 L337.56,67.98 L344.17,67.77 L350.56,67.63 L357.17,68.14 L363.77,68.12 L370.16,68.03 L376.77,67.64 L383.16,68.06 L389.77,67.63 L396.37,67.18 L402.34,66.85 L408.95,67.86 L415.34,67.77 L421.95,65.59 L428.34,66.61 L434.94,66.81 L441.55,66.98 L447.94,66.72 L454.55,66.27 L460.94,65.7" id="Stroke-14" stroke="#000000" stroke-width="0.38"></path>
            <path d="M0.67,68.25 L7.27,67.28 L13.24,68.75 L19.84,69.67 L26.24,69.16 L32.84,68.44 L39.24,68.95 L45.84,69.08 L52.45,69.97 L58.84,68.27 L65.45,69.49 L71.84,68.07 L78.44,69.48 L85.05,69.14 L91.02,69.11 L97.62,69.96 L104.02,70.06 L110.62,69.77 L117.01,69.63 L123.62,69.5 L130.23,69.87 L136.62,69.77 L143.22,69.23 L149.62,69.07 L156.22,68.25 L162.83,68.66 L168.79,69.01 L175.4,69.45 L181.79,68.19 L188.4,69.01 L194.79,69.09 L201.4,68.96 L208,69.67 L214.4,69.16 L221,69.13 L227.39,68.47 L234,67 L240.61,67.62 L246.79,69.13 L253.39,67.41 L259.78,67.75 L266.39,69.11 L272.78,68.98 L279.39,69.32 L285.99,68.31 L292.39,66 L298.99,67.97 L305.39,66.97 L311.99,67.07 L318.6,67.29 L324.56,68.2 L331.17,68.38 L337.56,68.62 L344.17,69.11 L350.56,69.08 L357.17,69.64 L363.77,70.03 L370.16,70.31 L376.77,70.4 L383.16,70.26 L389.77,70.11 L396.37,70 L402.34,69.2 L408.95,69.65 L415.34,69.74 L421.95,68.07 L428.34,68.82 L434.94,68.87 L441.55,68.9 L447.94,69.45 L454.55,69.88 L460.94,69.55 M0.67,71.72 L7.27,70.55 L13.24,70.23 L19.84,71.83 L26.24,71.19 L32.84,69.81 L39.24,68.53 L45.84,69.38 L52.45,69.91 L58.84,68.64 L65.45,68.96 L71.84,70.77 L78.44,71.4 L85.05,71.4 L91.02,71.09 L97.62,72.57 L104.02,72.04 L110.62,72.26 L117.01,71.94 L123.62,70.66 L130.23,70.55 L136.62,71.4 L143.22,69.6 L149.62,70.55 L156.22,70.13 L162.83,71.19 L168.79,71.19 L175.4,69.06 L181.79,68.32 L188.4,68 L194.79,69.7 L201.4,70.45 L208,70.45 L214.4,71.09 L221,71.62 L227.39,71.72 L234,71.72 L240.61,71.94 L246.79,72.57 L253.39,70.34 L259.78,71.4 L266.39,71.4 L272.78,71.72 L279.39,71.4 L285.99,72.04 L292.39,70.66 L298.99,71.19 L305.39,70.02 L311.99,71.62 L318.6,71.4 L324.56,71.51 L331.17,69.7 L337.56,69.17 L344.17,69.91 L350.56,71.09 L357.17,72.57 L363.77,72.26 L370.16,71.72 L376.77,72.04 L383.16,72.68 L389.77,72.04 L396.37,71.3 L402.34,72.26 L408.95,71.72 L415.34,71.19 L421.95,71.19 L428.34,70.55 L434.94,70.66 L441.55,69.49 L447.94,69.81 L454.55,71.3 L460.94,71.62" id="Stroke-15" stroke="#000000" stroke-width="0.38"></path>
            <path d="M0.67,73.29 L7.27,73.51 L13.24,74.12 L19.84,74.25 L26.24,74.04 L32.84,73.92 L39.24,73.82 L45.84,73.19 L52.45,70.89 L58.84,70 L65.45,73.25 L71.84,73.63 L78.44,74.39 L85.05,74.25 L91.02,73.63 L97.62,74.44 L104.02,74.23 L110.62,74.3 L117.01,73.82 L123.62,73.54 L130.23,73.59 L136.62,73.31 L143.22,71.27 L149.62,72.61 L156.22,72.64 L162.83,74.15 L168.79,74.24 L175.4,74.07 L181.79,73.32 L188.4,73.24 L194.79,73.27 L201.4,72.93 L208,72.51 L214.4,72.89 L221,73.4 L227.39,73.88 L234,73.77 L240.61,74.19 L246.79,74.32 L253.39,74.04 L259.78,74.19 L266.39,73.87 L272.78,73.82 L279.39,73.97 L285.99,73.94 L292.39,73 L298.99,73.17 L305.39,73.16 L311.99,72.94 L318.6,73.8 L324.56,73.88 L331.17,72.81 L337.56,73.25 L344.17,73.7 L350.56,73.63 L357.17,74.27 L363.77,74.18 L370.16,74.22 L376.77,74.12 L383.16,73.88 L389.77,74.3 L396.37,74.35 L402.34,74.39 L408.95,74.56 L415.34,74.48 L421.95,74.14 L428.34,74 L434.94,73.86 L441.55,73.11 L447.94,73.73 L454.55,73.94 L460.94,73.64 M0.67,75.54 L7.27,75.96 L13.24,76.21 L19.84,76.62 L26.24,76.46 L32.84,76.28 L39.24,76.62 L45.84,76.39 L52.45,76.37 L58.84,76.27 L65.45,76.52 L71.84,76.47 L78.44,76.48 L85.05,76.47 L91.02,76.15 L97.62,76.26 L104.02,75.88 L110.62,76.08 L117.01,75.88 L123.62,75.82 L130.23,76.2 L136.62,76.19 L143.22,75.65 L149.62,75.55 L156.22,74.89 L162.83,75.78 L168.79,76.11 L175.4,76.25 L181.79,76 L188.4,76.19 L194.79,76.17 L201.4,76.16 L208,76.34 L214.4,76.36 L221,76.45 L227.39,76.43 L234,76.28 L240.61,76.46 L246.79,76.51 L253.39,76.34 L259.78,76.22 L266.39,76.42 L272.78,76.21 L279.39,76.28 L285.99,76.45 L292.39,76.37 L298.99,76.29 L305.39,76.2 L311.99,72 L318.6,73.12 L324.56,73.02 L331.17,73.26 L337.56,74.24 L344.17,74.71 L350.56,74.73 L357.17,75.41 L363.77,75.38 L370.16,75.47 L376.77,75.53 L383.16,74.41 L389.77,73.76 L396.37,73.49 L402.34,72.8 L408.95,73.85 L415.34,74.62 L421.95,74.07 L428.34,74.65 L434.94,75.17 L441.55,75.14 L447.94,75.37 L454.55,75.54 L460.94,75.51" id="Stroke-16" stroke="#000000" stroke-width="0.38"></path>
            <path d="M0.67,78.73 L7.27,78.68 L13.24,78.64 L19.84,78.5 L26.24,78.27 L32.84,78.24 L39.24,78.12 L45.84,78.56 L52.45,78.76 L58.84,78.83 L65.45,78.9 L71.84,78.93 L78.44,78.95 L85.05,78.97 L91.02,78.97 L97.62,78.92 L104.02,78.88 L110.62,78.84 L117.01,78.9 L123.62,78.8 L130.23,78.86 L136.62,78.88 L143.22,78.74 L149.62,78.87 L156.22,78.74 L162.83,78.86 L168.79,78.86 L175.4,78.66 L181.79,78.47 L188.4,78.01 L194.79,77.14 L201.4,78.4 L208,78.68 L214.4,78.73 L221,78.92 L227.39,78.9 L234,78.83 L240.61,78.92 L246.79,78.89 L253.39,78.96 L259.78,78.97 L266.39,78.9 L272.78,78.85 L279.39,78.82 L285.99,78.9 L292.39,78.87 L298.99,78.97 L305.39,78.98 L311.99,78.92 L318.6,78.91 L324.56,78.82 L331.17,78.92 L337.56,78.9 L344.17,78.79 L350.56,78.44 L357.17,78.21 L363.77,78.56 L370.16,78.72 L376.77,78.41 L383.16,78.88 L389.77,78.37 L396.37,78.5 L402.34,78.41 L408.95,78.42 L415.34,77.55 L421.95,75.36 L428.34,74 L434.94,76.26 L441.55,77.73 L447.94,78.43 L454.55,78.84 L460.94,78.97 M0.67,80.54 L7.27,80.66 L13.24,80.81 L19.84,80.88 L26.24,80.83 L32.84,80.63 L39.24,79.77 L45.84,79.33 L52.45,80.32 L58.84,80.8 L65.45,80.7 L71.84,80.68 L78.44,80.41 L85.05,80.63 L91.02,80.69 L97.62,80.73 L104.02,80.73 L110.62,80.21 L117.01,79.43 L123.62,79.11 L130.23,78.93 L136.62,80.55 L143.22,80.93 L149.62,80.96 L156.22,80.86 L162.83,80.92 L168.79,80.97 L175.4,80.98 L181.79,80.95 L188.4,80.85 L194.79,80.46 L201.4,80.33 L208,80.41 L214.4,80.38 L221,80.58 L227.39,80.69 L234,80.31 L240.61,80.44 L246.79,80.72 L253.39,80.78 L259.78,80.61 L266.39,79.94 L272.78,78.94 L279.39,79.18 L285.99,80.07 L292.39,80.48 L298.99,80.72 L305.39,80.91 L311.99,80.65 L318.6,80.82 L324.56,80.88 L331.17,80.92 L337.56,80.85 L344.17,80.45 L350.56,80.44 L357.17,80.49 L363.77,80.57 L370.16,80.68 L376.77,80.81 L383.16,80.89 L389.77,80.42 L396.37,80.73 L402.34,80.84 L408.95,80.84 L415.34,80.9 L421.95,80.71 L428.34,79.43 L434.94,76.42 L441.55,76 L447.94,79.01 L454.55,79.4 L460.94,79.95" id="Stroke-17" stroke="#000000" stroke-width="0.38"></path>
            <path d="M0.67,82.91 L7.27,82.94 L13.24,82.92 L19.84,82.93 L26.24,82.93 L32.84,82.82 L39.24,82.56 L45.84,82.4 L52.45,82.62 L58.84,82.84 L65.45,82.87 L71.84,82.94 L78.44,82.96 L85.05,82.98 L91.02,82.98 L97.62,82.97 L104.02,82.97 L110.62,82.95 L117.01,82.92 L123.62,82.47 L130.23,81.41 L136.62,82.26 L143.22,82.69 L149.62,82.95 L156.22,82.94 L162.83,82.94 L168.79,82.98 L181.79,82.98 L188.4,82.93 L194.79,82.73 L201.4,82.49 L208,82.26 L214.4,82.19 L221,82.4 L227.39,82.51 L234,82.79 L240.61,82.74 L246.79,82.93 L253.39,82.9 L259.78,82.96 L266.39,82.9 L272.78,82.71 L279.39,82.53 L285.99,82.58 L292.39,82.5 L298.99,82.62 L305.39,82.93 L311.99,82.87 L318.6,82.88 L324.56,82.93 L331.17,82.89 L337.56,82.82 L344.17,82.68 L350.56,81.96 L357.17,82.17 L363.77,82.53 L370.16,82.65 L376.77,82.82 L383.16,82.95 L389.77,82.52 L396.37,82.79 L402.34,82.79 L408.95,82.82 L415.34,82.8 L421.95,82.7 L428.34,80.85 L434.94,79.18 L441.55,78 L447.94,81.37 L454.55,81.94 L460.94,82.44 M0.67,84.86 L7.27,84.94 L13.24,84.98 L19.84,84.99 L26.24,84.97 L32.84,84.93 L39.24,84.95 L45.84,84.84 L52.45,84.87 L58.84,84.87 L65.45,84.89 L71.84,84.91 L78.44,84.84 L85.05,84.91 L91.02,84.97 L97.62,84.96 L104.02,84.95 L110.62,84.94 L117.01,84.93 L123.62,84.81 L130.23,84.02 L136.62,84.3 L143.22,84.51 L149.62,84.57 L156.22,83.87 L162.83,84.45 L168.79,84.64 L175.4,84.9 L181.79,84.92 L188.4,84.78 L194.79,84.8 L201.4,84.69 L208,84.66 L214.4,84.38 L221,84.39 L227.39,84.28 L234,83.97 L240.61,84.46 L246.79,84.85 L253.39,84.93 L259.78,84.96 L266.39,84.96 L272.78,84.91 L279.39,84.76 L285.99,84.75 L292.39,84.76 L298.99,84.71 L305.39,84.75 L311.99,84.71 L318.6,84.86 L324.56,84.85 L331.17,84.96 L337.56,84.91 L344.17,84.7 L350.56,84.35 L357.17,84.01 L363.77,84.18 L370.16,84.36 L376.77,84.17 L383.16,84.76 L389.77,84.21 L396.37,84.58 L402.34,84.77 L408.95,84.84 L415.34,84.72 L421.95,84.68 L428.34,83.31 L434.94,81.07 L441.55,80 L447.94,81.84 L454.55,83.06 L460.94,83.32" id="Stroke-18" stroke="#000000" stroke-width="0.38"></path>
            <path d="M0.67,85.74 L7.27,86.06 L13.24,85.96 L19.84,86.24 L26.24,86.39 L32.84,86.14 L39.24,85.85 L45.84,86.5 L52.45,85.96 L58.84,86.64 L65.45,86.89 L71.84,86.93 L78.44,86.68 L85.05,86.71 L91.02,86.5 L97.62,86.53 L104.02,86.68 L110.62,86.6 L117.01,86.42 L123.62,86.39 L130.23,86.39 L136.62,86.57 L143.22,86.03 L149.62,86.71 L156.22,86.5 L162.83,86.6 L168.79,86.46 L175.4,86.53 L181.79,86.32 L188.4,86.17 L194.79,85.56 L201.4,85.49 L208,85.53 L214.4,86.42 L221,86.24 L227.39,86.06 L234,86.14 L240.61,86.57 L246.79,86.42 L253.39,86.03 L259.78,86.21 L266.39,85.78 L272.78,86.03 L279.39,86.14 L285.99,86.46 L292.39,86.32 L298.99,86.35 L305.39,86.78 L311.99,85.92 L318.6,86.5 L324.56,86.32 L331.17,86.32 L337.56,86.46 L344.17,85.35 L350.56,85.85 L357.17,86.42 L363.77,85.78 L370.16,86.21 L376.77,85.67 L383.16,84.3 L389.77,84.34 L396.37,84.66 L402.34,85.38 L408.95,85.63 L415.34,86.21 L421.95,83.08 L428.34,82 L434.94,82.65 L441.55,84.66 L447.94,85.81 L454.55,86.1 L460.94,86.6 M0.67,88.62 L7.27,88.71 L13.24,88.8 L19.84,88.87 L26.24,88.85 L32.84,88.51 L39.24,88.25 L45.84,88.2 L52.45,88.37 L58.84,88.73 L65.45,88.84 L71.84,88.91 L78.44,88.66 L85.05,88.68 L91.02,88.73 L97.62,88.79 L104.02,88.88 L110.62,88.65 L117.01,88.48 L123.62,88.67 L130.23,88.21 L136.62,88.54 L143.22,88.58 L149.62,88.74 L156.22,88.63 L162.83,88.71 L168.79,88.7 L175.4,88.8 L181.79,88.7 L188.4,88.24 L194.79,87.67 L201.4,87.45 L208,87.99 L214.4,88.29 L221,88.44 L227.39,88.52 L234,88.56 L240.61,88.57 L246.79,88.64 L253.39,88.58 L259.78,88.53 L266.39,88.34 L272.78,88.06 L279.39,88.19 L285.99,88.2 L292.39,88.28 L298.99,88.34 L305.39,88.57 L311.99,88.36 L318.6,88.53 L324.56,88.42 L331.17,88.4 L337.56,88.42 L344.17,88.01 L350.56,88.26 L357.17,88.13 L363.77,88.07 L370.16,88.13 L376.77,88.46 L383.16,88.02 L389.77,88.08 L396.37,88.17 L402.34,88.33 L408.95,88.53 L415.34,87.93 L421.95,86.46 L428.34,84 L434.94,85.06 L441.55,86.68 L447.94,87.98 L454.55,88.46 L460.94,88.76" id="Stroke-19" stroke="#000000" stroke-width="0.38"></path>
            <path d="M0.67,89.69 L7.27,89.11 L13.24,89.83 L19.84,90.08 L26.24,90.76 L32.84,90.42 L39.24,90.42 L45.84,90.08 L52.45,90.85 L58.84,90.85 L65.45,90.61 L71.84,90.95 L78.44,90.51 L85.05,90.66 L91.02,90.22 L97.62,90.66 L104.02,90.71 L110.62,90.71 L117.01,90.42 L123.62,90.47 L130.23,90.27 L136.62,90.76 L143.22,90.27 L149.62,90.71 L156.22,90.76 L162.83,90.85 L168.79,90.9 L175.4,90.71 L181.79,90.9 L188.4,90.71 L194.79,89.88 L201.4,90.08 L208,90.17 L214.4,90.37 L221,90.76 L227.39,90.47 L234,90.76 L240.61,90.51 L246.79,90.71 L253.39,90.76 L259.78,90.71 L266.39,90.61 L272.78,90.47 L279.39,90.22 L285.99,90.66 L298.99,90.66 L305.39,90.9 L311.99,90.56 L318.6,90.08 L324.56,90.27 L331.17,89.98 L337.56,90.27 L344.17,90.08 L350.56,89.54 L357.17,89.11 L363.77,88.18 L370.16,88.28 L376.77,89.88 L383.16,88.62 L389.77,88.96 L396.37,88.48 L402.34,88.38 L408.95,89.79 L415.34,89.3 L421.95,87.55 L428.34,86 L434.94,86.1 L441.55,87.7 L447.94,89.83 L454.55,90.71 L460.94,90.76 M0.67,92.95 L7.27,92.97 L13.24,92.99 L19.84,92.99 L26.24,92.97 L32.84,92.87 L39.24,92.75 L45.84,92.71 L52.45,92.9 L58.84,92.98 L65.45,92.98 L71.84,92.99 L78.44,92.96 L85.05,92.99 L91.02,92.98 L104.02,92.98 L110.62,92.92 L117.01,92.63 L123.62,92.72 L130.23,92.72 L136.62,92.83 L143.22,92.89 L149.62,92.95 L156.22,92.91 L162.83,92.93 L168.79,92.94 L175.4,92.95 L181.79,92.95 L188.4,92.79 L194.79,92.27 L201.4,92.05 L208,92.35 L214.4,92.54 L221,92.81 L227.39,92.93 L234,92.9 L240.61,92.89 L246.79,92.93 L253.39,92.93 L259.78,92.94 L266.39,92.88 L272.78,92.78 L279.39,92.89 L285.99,92.87 L292.39,92.93 L298.99,92.92 L305.39,92.92 L311.99,92.94 L318.6,92.96 L324.56,92.95 L331.17,92.94 L337.56,92.73 L344.17,92.49 L350.56,92.26 L357.17,92.63 L363.77,92.75 L370.16,92.78 L376.77,92.92 L383.16,92.87 L389.77,92.84 L396.37,92.86 L402.34,92.9 L408.95,92.93 L415.34,92.76 L421.95,92.48 L428.34,90.72 L434.94,88 L441.55,90.01 L447.94,92.36 L454.55,92.86 L460.94,92.96" id="Stroke-20" stroke="#000000" stroke-width="0.38"></path>
            <path d="M0.67,94.86 L7.27,94.98 L13.24,94.9 L19.84,94.98 L26.24,94.81 L32.84,94.69 L39.24,94.16 L45.84,94.54 L52.45,94.52 L58.84,94.71 L65.45,94.66 L71.84,94.88 L85.05,94.88 L91.02,94.93 L97.62,94.86 L104.02,94.93 L110.62,94.93 L117.01,94.64 L123.62,94.01 L130.23,92.45 L136.62,93.29 L143.22,93.92 L149.62,94.78 L156.22,94.42 L162.83,94.59 L168.79,94.62 L175.4,94.33 L181.79,94.59 L188.4,93.82 L194.79,92.31 L201.4,92.74 L208,92.36 L214.4,92.5 L221,92.6 L227.39,92.98 L234,93.7 L240.61,94.47 L246.79,94.71 L253.39,94.47 L259.78,94.62 L266.39,94.35 L272.78,93.46 L279.39,93.87 L285.99,94.01 L292.39,94.35 L298.99,94.21 L305.39,94.81 L311.99,94.21 L318.6,94.52 L324.56,94.35 L331.17,94.42 L337.56,92.74 L344.17,90.67 L350.56,90 L357.17,92.02 L363.77,93.27 L370.16,93.75 L376.77,94.06 L383.16,94.71 L389.77,94.06 L396.37,94.66 L402.34,94.88 L408.95,94.83 L415.34,94.78 L421.95,94.76 L428.34,93.39 L434.94,90.96 L441.55,91.25 L447.94,92.14 L454.55,93.03 L460.94,92.91 M0.67,96.95 L7.27,96.98 L13.24,96.98 L19.84,96.99 L26.24,96.97 L32.84,96.99 L39.24,96.96 L45.84,96.94 L52.45,96.96 L58.84,96.96 L65.45,96.97 L71.84,96.98 L78.44,96.95 L85.05,96.95 L91.02,96.97 L97.62,96.97 L104.02,96.98 L110.62,96.95 L117.01,96.88 L123.62,96.9 L130.23,96.8 L136.62,96.84 L143.22,96.86 L149.62,96.95 L156.22,96.88 L162.83,96.86 L168.79,96.93 L175.4,96.95 L181.79,96.98 L188.4,96.92 L194.79,96.69 L201.4,96.66 L208,96.81 L214.4,96.64 L221,96.62 L227.39,96.8 L234,96.72 L240.61,96.86 L246.79,96.96 L253.39,96.98 L259.78,96.97 L266.39,96.98 L272.78,96.96 L279.39,96.66 L285.99,96.73 L292.39,96.76 L298.99,96.78 L305.39,96.89 L311.99,96.75 L318.6,96.75 L324.56,96.89 L331.17,96.9 L337.56,96.93 L344.17,96.8 L350.56,96.68 L357.17,96.63 L363.77,96.72 L370.16,96.88 L376.77,96.9 L383.16,96.94 L389.77,96.28 L396.37,96.6 L402.34,96.64 L408.95,96.73 L415.34,96.55 L421.95,96.38 L428.34,95.01 L434.94,92.07 L441.55,92 L447.94,93.6 L454.55,95.38 L460.94,95.58" id="Stroke-21" stroke="#000000" stroke-width="0.38"></path>
            <path d="M0.67,98.65 L7.27,98.84 L13.24,98.87 L19.84,98.89 L26.24,98.9 L32.84,98.88 L39.24,98.67 L45.84,98.08 L52.45,98.14 L58.84,98.55 L65.45,98.6 L71.84,98.66 L78.44,98.7 L85.05,98.71 L91.02,98.68 L97.62,98.7 L104.02,98.76 L110.62,98.71 L117.01,98.29 L123.62,97.62 L130.23,96.57 L136.62,97.31 L143.22,98.27 L149.62,98.5 L156.22,98.55 L162.83,98.72 L168.79,98.8 L175.4,98.88 L181.79,98.92 L188.4,98.84 L194.79,98.53 L201.4,98.21 L208,97.93 L214.4,97.56 L221,97.5 L227.39,97.7 L234,98.28 L240.61,98.46 L246.79,98.64 L253.39,98.8 L259.78,98.83 L266.39,98.64 L272.78,98.36 L279.39,97.63 L285.99,98.02 L292.39,98.54 L298.99,98.24 L305.39,98.56 L311.99,98.37 L318.6,98.57 L324.56,98.68 L331.17,98.77 L337.56,98.62 L344.17,98.24 L350.56,97.8 L357.17,97.69 L363.77,97.67 L370.16,97.62 L376.77,98.16 L383.16,98.35 L389.77,98.12 L396.37,98.56 L402.34,98.66 L408.95,98.76 L415.34,98.77 L421.95,98.75 L428.34,97.86 L434.94,95.46 L441.55,94 L447.94,95.83 L454.55,96.68 L460.94,98.99 M0.67,98.35 L7.27,99.24 L13.24,99.92 L19.84,100.2 L26.24,100.28 L32.84,99.65 L39.24,98.84 L45.84,97.55 L52.45,98.39 L58.84,99.46 L65.45,99.84 L71.84,100.5 L78.44,100.56 L85.05,100.36 L91.02,100.65 L97.62,100.72 L104.02,100.77 L110.62,100.68 L117.01,100.57 L123.62,100.45 L130.23,100.24 L136.62,100.38 L143.22,100.43 L149.62,100.47 L156.22,100.38 L162.83,100.52 L168.79,100.36 L175.4,100.56 L181.79,100.49 L188.4,100.35 L194.79,99.19 L201.4,98.53 L208,98.26 L214.4,98.02 L221,99.36 L227.39,99.68 L234,99.82 L240.61,100.23 L246.79,100.62 L253.39,100.72 L259.78,100.71 L266.39,100.62 L272.78,100.65 L279.39,100.62 L285.99,100.68 L292.39,100.71 L298.99,100.7 L305.39,100.92 L311.99,100.29 L318.6,100.32 L324.56,100.11 L331.17,100.54 L337.56,100.71 L344.17,100.58 L350.56,99.79 L357.17,99.6 L363.77,99.77 L370.16,100.59 L376.77,99.27 L383.16,100.38 L389.77,99.03 L396.37,99.18 L402.34,99.54 L408.95,100.1 L415.34,99.76 L421.95,99.04 L428.34,96.86 L434.94,96 L441.55,97.25 L447.94,99.02 L454.55,99.65 L460.94,100.62" id="Stroke-22" stroke="#000000" stroke-width="0.38"></path>
            <path d="M0.67,102.25 L7.27,102.55 L13.24,102.93 L19.84,102.71 L26.24,102.8 L32.84,102 L39.24,98.79 L45.84,98 L52.45,101.38 L58.84,101.9 L65.45,102.06 L71.84,101.95 L78.44,102.4 L85.05,102.43 L91.02,102.63 L97.62,102.85 L104.02,102.81 L110.62,102.41 L117.01,101.55 L123.62,100.73 L130.23,102.08 L136.62,102.93 L143.22,102.95 L149.62,102.98 L156.22,102.2 L162.83,102.71 L168.79,102.95 L175.4,102.89 L181.79,102.88 L188.4,102.9 L194.79,102.45 L201.4,101.85 L208,101.94 L214.4,102.42 L221,102.02 L227.39,101.86 L234,101.41 L240.61,102.21 L246.79,102.45 L253.39,102.69 L259.78,102.76 L266.39,102.21 L272.78,101.62 L279.39,101.54 L285.99,101.59 L292.39,101.5 L298.99,102.7 L305.39,101.6 L311.99,101.85 L318.6,102.98 L324.56,102.97 L331.17,102.8 L337.56,102.56 L344.17,101.94 L350.56,102 L357.17,101.91 L363.77,102.06 L370.16,102.24 L376.77,101.77 L383.16,102.37 L389.77,101.93 L396.37,102.27 L402.34,102.62 L408.95,102.74 L415.34,102.74 L421.95,102.79 L428.34,102.05 L434.94,99.14 L441.55,98.15 L447.94,99.19 L454.55,98.58 L460.94,98.01 M0.67,104.98 L7.27,104.97 L13.24,104.99 L19.84,104.97 L26.24,104.95 L32.84,104.93 L39.24,104.81 L45.84,104.89 L52.45,104.95 L58.84,104.98 L65.45,104.99 L71.84,104.99 L78.44,104.85 L85.05,104.87 L91.02,104.92 L97.62,104.91 L104.02,104.89 L110.62,104.72 L117.01,104.54 L123.62,104.41 L130.23,103.36 L136.62,104.15 L143.22,104.29 L149.62,104.75 L156.22,104.1 L162.83,104.33 L168.79,104.67 L175.4,104.79 L181.79,104.85 L188.4,104.79 L194.79,103.84 L201.4,103.12 L208,103.54 L214.4,103.49 L221,103.86 L227.39,104.74 L234,104.18 L240.61,104.44 L246.79,104.52 L253.39,104.66 L259.78,104.74 L266.39,104.7 L272.78,104.71 L279.39,104.68 L285.99,104.85 L292.39,104.85 L298.99,104.91 L305.39,104.96 L311.99,104.9 L318.6,104.87 L324.56,104.63 L331.17,104.75 L337.56,104.66 L344.17,103.98 L350.56,103.79 L357.17,104.53 L363.77,104.54 L370.16,104.51 L376.77,104.36 L383.16,104.84 L389.77,104.55 L396.37,104.6 L402.34,104.52 L408.95,104.64 L415.34,104.54 L421.95,104.22 L428.34,102.73 L434.94,100 L441.55,101.34 L447.94,103.48 L454.55,104.22 L460.94,104.8" id="Stroke-23" stroke="#000000" stroke-width="0.38"></path>
            <path d="M0.67,106.55 L7.27,106.75 L13.24,106.93 L19.84,106.93 L26.24,106.94 L32.84,106.96 L39.24,106.83 L45.84,106.64 L52.45,106.71 L58.84,106.9 L65.45,106.9 L71.84,106.89 L78.44,106.83 L85.05,106.82 L91.02,106.81 L97.62,106.87 L104.02,106.69 L110.62,106.13 L117.01,105.37 L123.62,105.63 L130.23,104.28 L136.62,105.58 L143.22,106.59 L149.62,106.71 L156.22,106.01 L162.83,106.43 L168.79,106.71 L175.4,106.81 L181.79,106.9 L188.4,106.84 L194.79,106.34 L201.4,105.79 L208,106.45 L214.4,106.36 L221,106.36 L227.39,106.37 L234,104.35 L240.61,105.42 L246.79,105.68 L253.39,106.16 L259.78,106.44 L266.39,105.89 L272.78,105.69 L279.39,105.12 L285.99,106.16 L292.39,106.56 L298.99,106.52 L305.39,106.84 L311.99,106.22 L318.6,106.27 L324.56,106.16 L331.17,106.44 L337.56,106.74 L344.17,106.13 L350.56,105.35 L357.17,105.39 L363.77,105.61 L370.16,105.44 L376.77,106.36 L383.16,106.34 L389.77,106.15 L396.37,106.37 L402.34,106.43 L408.95,106.62 L415.34,106.44 L421.95,106.59 L428.34,105.23 L434.94,102.71 L441.55,102 L447.94,105.11 L454.55,105.23 L460.94,105.52 M0.67,108.57 L7.27,108.59 L13.24,108.44 L19.84,108.25 L26.24,107.92 L32.84,105.67 L39.24,105.33 L45.84,107.05 L52.45,108.04 L58.84,108.5 L65.45,108.68 L71.84,108.76 L78.44,108.71 L85.05,108.76 L91.02,108.7 L97.62,108.81 L104.02,108.56 L110.62,108.36 L117.01,108.59 L123.62,108.58 L130.23,108.34 L136.62,108.27 L143.22,108.29 L149.62,108.59 L156.22,108.71 L162.83,108.6 L168.79,108.62 L175.4,108.68 L181.79,108.57 L188.4,108.07 L194.79,107.21 L201.4,107.6 L208,107.88 L214.4,108 L221,108.12 L227.39,107.99 L234,107.81 L240.61,107.44 L246.79,107.15 L253.39,107.4 L259.78,107.12 L266.39,107.63 L272.78,107.81 L279.39,108.26 L285.99,108.4 L292.39,108.58 L298.99,108.55 L305.39,108.43 L311.99,108.28 L318.6,108.55 L324.56,108.36 L331.17,108.38 L337.56,108.16 L344.17,107.67 L350.56,107.71 L357.17,108.08 L363.77,108.46 L370.16,108.3 L376.77,108.24 L383.16,107.94 L389.77,107.77 L396.37,107.82 L402.34,107.86 L408.95,108.18 L415.34,107.67 L421.95,105.07 L428.34,104 L434.94,105.07 L441.55,106.53 L447.94,107.72 L454.55,108.55 L460.94,108.82" id="Stroke-24" stroke="#000000" stroke-width="0.38"></path>
            <path d="M0.67,108.91 L7.27,109.04 L13.24,109.76 L19.84,110.05 L26.24,109.84 L32.84,108.51 L39.24,108.19 L45.84,107.03 L52.45,106 L58.84,108.07 L65.45,109.47 L71.84,110.29 L78.44,110.5 L85.05,110.53 L91.02,110.55 L97.62,110.72 L104.02,110.38 L110.62,110.34 L117.01,110.29 L123.62,110.31 L130.23,110.58 L136.62,110.66 L143.22,110.6 L149.62,110.63 L156.22,110.57 L162.83,110.63 L168.79,110.5 L175.4,110.29 L181.79,109.32 L188.4,108.6 L194.79,108.06 L201.4,108.42 L208,109.48 L214.4,109.51 L221,110.07 L227.39,110.05 L234,110.11 L240.61,110.26 L246.79,110.43 L253.39,110.14 L259.78,110.05 L266.39,109.79 L272.78,109.73 L279.39,109.87 L285.99,109.99 L292.39,109.5 L298.99,109.91 L305.39,109.29 L311.99,109.81 L318.6,110.06 L324.56,110.39 L331.17,110.11 L337.56,110.21 L344.17,110.26 L350.56,110.36 L357.17,110.43 L363.77,110.49 L370.16,110.47 L376.77,110.49 L383.16,110.36 L389.77,110.28 L396.37,110.33 L402.34,110.32 L408.95,110.5 L415.34,110.52 L421.95,110.04 L428.34,110.05 L434.94,109.99 L441.55,109.49 L447.94,109.86 L454.55,110.26 L460.94,110.15 M0.67,113 L13.24,113 L19.84,111 L26.24,113 L32.84,111 L39.24,113 L45.84,112 L52.45,113 L58.84,113 L65.45,112 L71.84,113 L104.02,113 L110.62,112 L123.62,112 L130.23,113 L136.62,113 L143.22,112 L149.62,113 L188.4,113 L194.79,112 L201.4,113 L208,113 L214.4,110 L221,112 L227.39,113 L234,113 L240.61,112 L246.79,113 L266.39,113 L272.78,109 L279.39,112 L285.99,113 L298.99,113 L305.39,112 L318.6,112 L324.56,111 L331.17,113 L337.56,112 L344.17,110 L350.56,109 L357.17,108 L363.77,110 L370.16,113 L376.77,111 L383.16,112 L389.77,113 L396.37,111 L402.34,112 L408.95,113 L415.34,113 L421.95,112 L434.94,112 L441.55,110 L447.94,113 L460.94,113 M0.67,115 L39.24,115 L45.84,114.17 L52.45,115 L58.84,115 L65.45,114.17 L71.84,115 L91.02,115 L97.62,114.17 L104.02,115 L117.01,115 L123.62,114.17 L130.23,115 L136.62,114.17 L143.22,115 L181.79,115 L188.4,110 L194.79,115 L201.4,114.17 L208,114.17 L214.4,115 L266.39,115 L272.78,114.17 L279.39,115 L285.99,114.17 L292.39,115 L324.56,115 L331.17,114.17 L337.56,115 L363.77,115 L370.16,114.17 L376.77,115 L383.16,114.17 L389.77,115 L396.37,114.17 L402.34,114.17 L408.95,115 L421.95,115 L428.34,112.5 L434.94,114.17 L441.55,114.17 L447.94,113.33 L454.55,114.17 L460.94,112.5" id="Stroke-25" stroke="#000000" stroke-width="0.38"></path>
            <path d="M0.67,117 L85.05,117 L91.02,115.75 L97.62,117 L110.62,117 L117.01,114.5 L123.62,115.75 L143.22,115.75 L149.62,117 L156.22,115.75 L162.83,117 L194.79,117 L201.4,115.75 L208,117 L214.4,114.5 L221,117 L234,117 L240.61,115.75 L246.79,117 L259.78,117 L266.39,114.5 L272.78,115.75 L279.39,112 L285.99,114.5 L292.39,115.75 L298.99,117 L305.39,117 L311.99,114.5 L318.6,115.75 L324.56,117 L337.56,117 L344.17,115.75 L350.56,114.5 L357.17,115.75 L370.16,115.75 L376.77,117 L389.77,117 L396.37,115.75 L402.34,115.75 L408.95,117 L415.34,115.75 L421.95,115.75 L428.34,117 L434.94,112 L441.55,115.75 L447.94,114.5 L454.55,117 L460.94,117 M0.67,119 L32.84,119 L39.24,116.5 L45.84,119 L52.45,116.5 L58.84,119 L65.45,116.5 L71.84,119 L181.79,119 L188.4,116.5 L194.79,119 L234,119 L240.61,114 L246.79,119 L324.56,119 L331.17,114 L337.56,116.5 L344.17,119 L396.37,119 L402.34,116.5 L408.95,119 L434.94,119 L441.55,116.5 L447.94,119 L460.94,119 M0.67,121 L32.84,121 L39.24,116 L45.84,121 L110.62,121 L117.01,116 L123.62,121 L168.79,121 L175.4,116 L181.79,121 L201.4,121 L208,116 L214.4,116 L221,121 L246.79,121 L253.39,116 L259.78,121 L311.99,121 L318.6,116 L324.56,121 L344.17,121 L350.56,116 L357.17,121 L396.37,121 L402.34,116 L408.95,121 L428.34,121 L434.94,116 L441.55,121 L454.55,121 L460.94,116 M0.67,122.89 L7.27,122.94 L13.24,123 L26.24,123 L32.84,122.98 L39.24,122.98 L45.84,122.73 L52.45,122.67 L58.84,122.51 L65.45,122.24 L71.84,122.86 L78.44,123 L85.05,122.97 L91.02,123 L97.62,122.98 L104.02,122.97 L110.62,122.95 L117.01,122.19 L123.62,121.37 L130.23,120.48 L136.62,118.7 L143.22,119.49 L149.62,121.36 L156.22,122.76 L162.83,123 L168.79,122.94 L175.4,123 L181.79,122.98 L188.4,122.92 L194.79,122.29 L201.4,122.74 L208,122.89 L214.4,122.54 L221,122.01 L227.39,122.85 L234,122.95 L240.61,123 L246.79,122.97 L253.39,122.98 L259.78,122.98 L266.39,122.91 L272.78,122.42 L279.39,121.89 L285.99,122.38 L292.39,121.01 L298.99,121.05 L305.39,122.71 L311.99,122.97 L318.6,122.98 L324.56,122.94 L331.17,122.98 L337.56,122.97 L344.17,122.97 L350.56,122.88 L357.17,122.07 L363.77,122.45 L370.16,120.84 L376.77,118.11 L383.16,120.08 L389.77,122.42 L396.37,122.95 L402.34,122.95 L408.95,122.92 L415.34,122.95 L421.95,122.94 L428.34,122.94 L434.94,122.06 L441.55,119.49 L447.94,118 L454.55,118.76 L460.94,120.8" id="Stroke-26" stroke="#000000" stroke-width="0.38"></path>
            <path d="M0.67,125 L32.84,125 L39.24,123.33 L45.84,121.67 L52.45,125 L58.84,125 L65.45,123.33 L71.84,125 L188.4,125 L194.79,123.33 L201.4,121.67 L208,123.33 L214.4,125 L279.39,125 L285.99,123.33 L292.39,121.67 L298.99,123.33 L305.39,125 L324.56,125 L331.17,120 L337.56,125 L344.17,125 L350.56,121.67 L357.17,125 L408.95,125 L415.34,123.33 L421.95,125 L428.34,123.33 L434.94,121.67 L441.55,125 L447.94,120 L454.55,125 L460.94,125 M0.67,127 L26.24,127 L32.84,125.33 L39.24,125.33 L45.84,127 L85.05,127 L91.02,125.33 L97.62,127 L143.22,127 L149.62,125.33 L156.22,127 L162.83,125.33 L168.79,127 L181.79,127 L188.4,125.33 L194.79,123.67 L201.4,127 L214.4,127 L221,123.67 L227.39,127 L266.39,127 L272.78,125.33 L279.39,127 L285.99,125.33 L292.39,125.33 L298.99,127 L318.6,127 L324.56,125.33 L331.17,127 L337.56,127 L344.17,125.33 L350.56,127 L376.77,127 L383.16,125.33 L389.77,127 L396.37,127 L402.34,125.33 L408.95,127 L428.34,127 L434.94,122 L441.55,125.33 L447.94,127 L460.94,127 M0.67,129 L344.17,129 L350.56,124 L357.17,129 L460.94,129 M0.67,130.74 L7.27,130.87 L13.24,130.87 L19.84,131 L26.24,131 L32.84,130.87 L39.24,131 L45.84,130.47 L52.45,131 L58.84,130.74 L65.45,131 L71.84,130.87 L78.44,131 L85.05,131 L91.02,130.87 L97.62,131 L104.02,131 L110.62,130.87 L117.01,130.87 L123.62,130.34 L130.23,130.08 L136.62,131 L143.22,130.87 L149.62,130.87 L156.22,131 L175.4,131 L181.79,130.87 L201.4,130.87 L208,131 L214.4,130.87 L234,130.87 L240.61,131 L266.39,131 L272.78,130.34 L279.39,130.74 L285.99,130.87 L292.39,130.87 L298.99,131 L318.6,131 L324.56,130.87 L331.17,130.87 L337.56,131 L344.17,131 L350.56,130.87 L357.17,130.87 L363.77,130.61 L370.16,127.97 L376.77,126 L383.16,129.29 L389.77,131 L402.34,131 L408.95,130.87 L415.34,131 L421.95,131 L428.34,130.87 L434.94,130.74 L441.55,130.74 L447.94,130.47 L454.55,130.21 L460.94,130.87" id="Stroke-27" stroke="#000000" stroke-width="0.38"></path>
            <path d="M0.67,133 L7.27,132.38 L13.24,133 L19.84,133 L26.24,132.38 L32.84,131.12 L39.24,133 L45.84,132.38 L52.45,131.75 L58.84,132.38 L65.45,133 L71.84,131.75 L78.44,133 L97.62,133 L104.02,132.38 L110.62,131.12 L117.01,131.75 L123.62,130.5 L130.23,133 L136.62,132.38 L143.22,133 L149.62,131.75 L156.22,133 L175.4,133 L181.79,132.38 L188.4,129.88 L194.79,131.75 L201.4,129.88 L208,132.38 L214.4,131.12 L221,132.38 L227.39,130.5 L234,132.38 L240.61,131.75 L246.79,133 L253.39,132.38 L259.78,133 L266.39,131.12 L272.78,131.12 L279.39,131.75 L285.99,131.75 L292.39,130.5 L298.99,131.75 L305.39,131.75 L311.99,129.25 L318.6,132.38 L324.56,133 L331.17,132.38 L337.56,131.75 L344.17,131.75 L350.56,132.38 L357.17,131.12 L363.77,130.5 L370.16,132.38 L376.77,131.12 L383.16,133 L389.77,133 L396.37,131.12 L402.34,132.38 L415.34,132.38 L421.95,131.12 L428.34,129.25 L434.94,130.5 L441.55,128 L447.94,131.12 L454.55,131.75 L460.94,131.12 M0.67,135 L13.24,135 L19.84,134.99 L26.24,135 L32.84,135 L39.24,134.99 L45.84,134.98 L52.45,135 L58.84,134.8 L65.45,134.79 L71.84,134.88 L78.44,134.98 L85.05,135 L91.02,134.99 L97.62,134.99 L104.02,135 L110.62,134.99 L117.01,134.99 L123.62,135 L130.23,134.98 L136.62,134.96 L143.22,134.99 L149.62,135 L156.22,135 L162.83,134.98 L168.79,134.99 L175.4,134.97 L181.79,135 L188.4,134.63 L194.79,133.9 L201.4,133.29 L208,133.27 L214.4,130 L221,130.02 L227.39,133.54 L234,134.85 L240.61,134.99 L246.79,134.96 L253.39,135 L259.78,135 L266.39,134.97 L272.78,134.97 L279.39,134.96 L285.99,134.99 L292.39,134.96 L298.99,134.96 L305.39,134.99 L311.99,135 L337.56,135 L344.17,134.98 L350.56,135 L357.17,134.97 L363.77,135 L370.16,134.95 L376.77,134.97 L383.16,134.96 L389.77,134.99 L396.37,134.98 L402.34,135 L408.95,135 L415.34,134.99 L421.95,135 L428.34,135 L434.94,134.83 L441.55,133.89 L447.94,132.86 L454.55,134.12 L460.94,134.83" id="Stroke-28" stroke="#000000" stroke-width="0.38"></path>
            <path d="M0.67,137 L13.24,137 L19.84,136.88 L32.84,136.88 L39.24,136.38 L45.84,136.25 L52.45,136.62 L58.84,136.5 L65.45,136.75 L71.84,136.38 L78.44,137 L85.05,136.75 L91.02,136.5 L97.62,137 L104.02,136.88 L110.62,136.75 L117.01,136.5 L123.62,136.75 L130.23,136.13 L136.62,135.75 L143.22,136.75 L149.62,136.88 L156.22,136.75 L162.83,136.88 L168.79,137 L175.4,136.38 L181.79,136.5 L188.4,136.62 L194.79,136.38 L201.4,135.62 L208,136.5 L214.4,136.13 L221,135.62 L227.39,136 L234,136.5 L240.61,136.88 L246.79,136.38 L253.39,136.13 L259.78,136.13 L266.39,135.75 L272.78,135 L279.39,132 L285.99,134.88 L292.39,135.75 L298.99,136 L305.39,136.13 L311.99,136 L318.6,136.88 L324.56,136.88 L331.17,136 L337.56,136.62 L344.17,136.13 L350.56,135.62 L357.17,136.13 L363.77,136.38 L370.16,136.25 L376.77,136.62 L383.16,136.38 L389.77,136.62 L396.37,136.25 L402.34,136.25 L408.95,136.62 L415.34,136.5 L421.95,135.62 L428.34,135.25 L434.94,132.88 L441.55,134.5 L447.94,134.88 L454.55,135.75 L460.94,135.75 M0.67,139 L13.24,139 L19.84,137.75 L26.24,139 L39.24,139 L45.84,134 L52.45,137.75 L58.84,139 L117.01,139 L123.62,136.5 L130.23,139 L376.77,139 L383.16,137.75 L389.77,139 L434.94,139 L441.55,137.75 L447.94,139 L460.94,139 M0.67,140.62 L7.27,141 L13.24,141 L19.84,140.23 L26.24,140.62 L32.84,140.62 L39.24,139.85 L45.84,139.08 L52.45,140.23 L58.84,140.62 L71.84,140.62 L78.44,140.23 L85.05,141 L91.02,140.62 L97.62,141 L104.02,140.23 L110.62,140.23 L117.01,141 L123.62,139.46 L130.23,139.46 L136.62,141 L143.22,140.23 L156.22,140.23 L162.83,140.62 L168.79,141 L175.4,140.62 L181.79,141 L188.4,140.62 L194.79,140.23 L201.4,139.46 L208,141 L214.4,140.62 L221,140.23 L227.39,140.62 L234,140.62 L240.61,141 L246.79,140.62 L253.39,140.23 L259.78,141 L266.39,140.62 L272.78,138.69 L279.39,139.08 L285.99,139.85 L292.39,139.08 L298.99,139.46 L305.39,139.85 L311.99,139.85 L318.6,140.23 L324.56,140.62 L331.17,140.23 L337.56,140.23 L344.17,139.46 L350.56,140.23 L357.17,137.92 L363.77,140.62 L370.16,140.23 L376.77,139.08 L383.16,139.85 L389.77,141 L396.37,139.08 L402.34,140.62 L408.95,141 L415.34,140.62 L421.95,139.85 L428.34,138.69 L434.94,136 L441.55,138.31 L447.94,140.62 L454.55,141 L460.94,140.23" id="Stroke-29" stroke="#000000" stroke-width="0.38"></path>
            <path d="M0.67,143 L7.27,140.5 L19.84,140.5 L26.24,143 L52.45,143 L58.84,140.5 L65.45,143 L130.23,143 L136.62,140.5 L143.22,143 L181.79,143 L188.4,140.5 L194.79,138 L201.4,143 L214.4,143 L221,140.5 L227.39,143 L246.79,143 L253.39,140.5 L259.78,143 L266.39,143 L272.78,140.5 L279.39,143 L298.99,143 L305.39,138 L311.99,143 L331.17,143 L337.56,140.5 L344.17,140.5 L350.56,143 L363.77,143 L370.16,138 L376.77,143 L396.37,143 L402.34,140.5 L408.95,143 L421.95,143 L428.34,140.5 L434.94,138 L441.55,140.5 L447.94,143 L460.94,143 M0.67,144.38 L7.27,143.02 L13.24,143.96 L19.84,143.54 L26.24,141.25 L32.84,143.23 L39.24,143.75 L45.84,143.02 L52.45,143.85 L58.84,144.06 L78.44,144.06 L85.05,143.85 L91.02,143.54 L97.62,143.75 L104.02,143.65 L110.62,143.23 L117.01,144.48 L123.62,143.75 L130.23,144.06 L136.62,144.06 L143.22,143.65 L149.62,145 L156.22,144.38 L162.83,145 L168.79,144.9 L175.4,144.48 L181.79,144.27 L188.4,143.44 L194.79,143.12 L201.4,141.35 L208,142.19 L214.4,142.6 L221,141.67 L227.39,140.73 L234,140.1 L240.61,140 L246.79,140.73 L253.39,141.04 L259.78,142.19 L266.39,141.56 L272.78,140.42 L279.39,142.19 L285.99,143.02 L292.39,141.25 L298.99,142.92 L305.39,143.85 L311.99,143.85 L318.6,144.06 L324.56,144.06 L331.17,144.79 L337.56,144.79 L344.17,144.69 L350.56,144.48 L357.17,144.9 L363.77,144.58 L370.16,144.48 L376.77,144.17 L383.16,145 L389.77,144.38 L396.37,144.17 L402.34,144.06 L408.95,144.48 L415.34,144.9 L421.95,143.85 L428.34,143.96 L434.94,142.5 L441.55,143.33 L447.94,144.38 L454.55,144.79 L460.94,145 M0.67,145.81 L7.27,146.14 L13.24,146.25 L19.84,146.28 L26.24,144.48 L32.84,144.78 L39.24,144.85 L45.84,145.31 L52.45,145.09 L58.84,145.46 L65.45,145.25 L71.84,145.99 L78.44,145.39 L85.05,145.82 L91.02,145.63 L97.62,146.27 L104.02,144.29 L110.62,143.93 L117.01,144.32 L123.62,144.9 L130.23,144.8 L136.62,144.77 L143.22,144.89 L149.62,144.57 L156.22,145.07 L162.83,146.08 L168.79,146.07 L175.4,146.15 L181.79,145.63 L188.4,144.7 L194.79,144.78 L201.4,144.6 L208,144.36 L214.4,144.43 L221,144.03 L227.39,145.25 L234,145.25 L240.61,145.37 L246.79,145.15 L253.39,144.93 L259.78,144.8 L266.39,143.68 L272.78,143.11 L279.39,142.47 L285.99,145.13 L292.39,142 L298.99,143.63 L305.39,144.49 L311.99,145.69 L318.6,146.17 L324.56,146.19 L331.17,146.23 L337.56,145.94 L344.17,144.85 L350.56,145.11 L357.17,144.7 L363.77,144.98 L370.16,144.62 L376.77,144.07 L383.16,144.57 L389.77,145.47 L396.37,145.35 L402.34,145.47 L408.95,146.1 L415.34,146.07 L421.95,145.65 L428.34,144.78 L434.94,143.41 L441.55,142.72 L447.94,142.63 L454.55,143.31 L460.94,146.53" id="Stroke-30" stroke="#000000" stroke-width="0.38"></path>
            <path d="M0.67,148.87 L7.27,148.78 L13.24,148.77 L19.84,148.78 L26.24,148.55 L32.84,148.24 L39.24,148.01 L45.84,148.01 L52.45,148.41 L58.84,148.68 L65.45,148.83 L71.84,148.97 L78.44,148.97 L85.05,148.93 L91.02,148.82 L97.62,148.74 L104.02,148.03 L110.62,147.28 L117.01,146.93 L123.62,147.18 L130.23,148.53 L136.62,148.75 L143.22,148.91 L149.62,148.96 L156.22,148.92 L162.83,148.96 L168.79,148.82 L175.4,148.2 L181.79,148.1 L188.4,146.3 L194.79,146.88 L201.4,146.95 L208,147.83 L214.4,148.75 L221,148.82 L227.39,148.82 L234,148.69 L240.61,148.78 L246.79,148.77 L253.39,148.67 L259.78,148.15 L266.39,147.61 L272.78,147.25 L279.39,147.46 L285.99,148.42 L292.39,148.67 L298.99,148.85 L305.39,148.93 L311.99,148.93 L318.6,148.92 L324.56,148.88 L331.17,148.78 L337.56,148.3 L344.17,147.39 L350.56,147.61 L357.17,147.07 L363.77,148.31 L370.16,148.45 L376.77,148.61 L383.16,148.82 L389.77,148.68 L396.37,148.46 L402.34,148.22 L408.95,148.32 L415.34,148.15 L421.95,147.25 L428.34,145.54 L434.94,144 L441.55,145.37 L447.94,147.8 L454.55,148.52 L460.94,148.96 M0.67,150.66 L7.27,150.74 L13.24,150.51 L19.84,150.25 L26.24,149.55 L32.84,149.83 L39.24,149.81 L45.84,149.16 L52.45,149.47 L58.84,149.83 L65.45,150.53 L71.84,150.59 L78.44,150.51 L85.05,150.87 L91.02,150.84 L97.62,150.72 L104.02,150.51 L110.62,149.96 L117.01,149.45 L123.62,149.11 L130.23,149.6 L136.62,149.55 L143.22,149.63 L149.62,150.35 L156.22,150.56 L162.83,150.79 L168.79,150.74 L175.4,150.59 L181.79,149.26 L188.4,147.99 L194.79,148.44 L201.4,149.24 L208,149.68 L214.4,150.09 L221,149.11 L227.39,150.35 L234,150.53 L240.61,150.04 L246.79,149.81 L253.39,149.47 L259.78,149.32 L266.39,146.34 L272.78,146 L279.39,147.24 L285.99,147.89 L292.39,148.56 L298.99,149.76 L305.39,150.02 L311.99,150.53 L318.6,150.38 L324.56,150.43 L331.17,150.4 L337.56,150.25 L344.17,149.11 L350.56,149.63 L357.17,149.19 L363.77,149.76 L370.16,149.89 L376.77,149.81 L383.16,150.43 L389.77,150.07 L396.37,149.86 L402.34,150.02 L408.95,149.91 L415.34,149.96 L421.95,149.65 L428.34,148.23 L434.94,147.89 L441.55,148.12 L447.94,148.54 L454.55,148.51 L460.94,150.79" id="Stroke-31" stroke="#000000" stroke-width="0.38"></path>
            <path d="M0.67,151.98 L7.27,152.2 L13.24,152.09 L19.84,152.77 L26.24,151.64 L32.84,150.95 L39.24,150.73 L45.84,149.36 L52.45,150.61 L58.84,151.86 L65.45,151.86 L71.84,152.32 L78.44,152.55 L85.05,152.2 L91.02,151.98 L97.62,152.66 L104.02,152.89 L110.62,151.86 L117.01,151.3 L123.62,152.09 L130.23,151.64 L136.62,150.95 L143.22,152.32 L149.62,152.89 L156.22,152.77 L162.83,153 L168.79,152.66 L175.4,152.43 L181.79,152.77 L188.4,151.98 L194.79,151.98 L201.4,150.5 L208,151.75 L214.4,151.86 L221,151.18 L227.39,150.27 L234,150.5 L240.61,152.2 L246.79,150.5 L253.39,149.82 L259.78,148.68 L266.39,148 L272.78,148.57 L279.39,151.41 L285.99,150.27 L292.39,151.75 L298.99,151.98 L305.39,152.66 L311.99,152.55 L318.6,152.66 L324.56,152.89 L331.17,152.2 L337.56,151.86 L344.17,151.86 L350.56,152.32 L357.17,152.77 L363.77,152.77 L370.16,152.89 L376.77,152.55 L383.16,152.89 L389.77,152.55 L396.37,152.77 L402.34,152.43 L408.95,151.86 L415.34,152.43 L421.95,152.77 L428.34,152.55 L434.94,151.64 L441.55,151.98 L447.94,152.32 L454.55,152.43 L460.94,152.89 M0.67,155 L7.27,154.75 L13.24,154.4 L19.84,154.45 L26.24,153 L32.84,151.65 L39.24,152.7 L45.84,153.5 L52.45,153.9 L58.84,153.95 L65.45,154.7 L71.84,154.95 L78.44,154.85 L85.05,154.95 L91.02,154.65 L97.62,154.15 L104.02,153.55 L110.62,152.6 L117.01,152.55 L123.62,154.15 L130.23,154.1 L136.62,153.7 L143.22,153.85 L149.62,154.6 L156.22,154.75 L162.83,154.55 L168.79,154.7 L175.4,154.75 L181.79,153.5 L188.4,151.75 L194.79,153.15 L201.4,152.6 L208,153.2 L214.4,153.2 L221,154.15 L227.39,154.55 L234,154.6 L240.61,154.85 L246.79,154.75 L253.39,154.2 L259.78,152.7 L266.39,152.05 L272.78,150.45 L279.39,153.3 L285.99,153.6 L292.39,154.1 L298.99,154.3 L305.39,154.8 L311.99,154.8 L318.6,154.65 L324.56,154.9 L331.17,154.75 L337.56,153.85 L344.17,154.3 L350.56,153.5 L357.17,154 L363.77,153.6 L370.16,153.95 L376.77,154.2 L383.16,154.5 L389.77,154.5 L396.37,154.4 L402.34,153.85 L408.95,154.25 L415.34,153.4 L421.95,151.9 L428.34,150 L434.94,150.85 L441.55,152.8 L447.94,154.05 L454.55,154.4 L460.94,154.95" id="Stroke-32" stroke="#000000" stroke-width="0.38"></path>
            <path d="M0.67,156.84 L7.27,156.77 L13.24,156.77 L19.84,156.36 L26.24,154.84 L32.84,155.05 L39.24,155.62 L45.84,156.2 L52.45,156.47 L58.84,156.59 L65.45,156.68 L71.84,156.89 L78.44,156.82 L85.05,156.89 L91.02,156.68 L97.62,156.86 L104.02,156.04 L110.62,155.72 L117.01,156.36 L123.62,156.61 L130.23,156.5 L136.62,156.86 L143.22,156.82 L149.62,156.89 L156.22,156.89 L162.83,156.98 L168.79,156.75 L175.4,156.47 L181.79,155.39 L188.4,155.07 L194.79,155.56 L201.4,155.69 L208,156.27 L214.4,156.5 L221,156.36 L227.39,156.59 L234,156.86 L240.61,156.56 L246.79,155.99 L253.39,155.92 L259.78,154.25 L266.39,154.09 L272.78,155.56 L279.39,155.92 L285.99,156.43 L292.39,156.61 L298.99,156.72 L305.39,156.93 L311.99,156.91 L318.6,156.98 L324.56,156.93 L331.17,156.66 L337.56,156.47 L344.17,156.31 L350.56,156.38 L357.17,156.08 L363.77,156.56 L370.16,156.52 L376.77,156.45 L383.16,156.38 L389.77,156.61 L396.37,156.11 L402.34,155.94 L408.95,155.49 L415.34,152.8 L421.95,152 L428.34,152.57 L434.94,154.18 L441.55,155.14 L447.94,156.13 L454.55,156.84 L460.94,157 M0.67,158.99 L7.27,158.98 L13.24,158.98 L19.84,158.93 L26.24,158.49 L32.84,158.41 L39.24,158.55 L45.84,158.7 L52.45,158.84 L58.84,158.89 L65.45,158.92 L71.84,158.99 L78.44,158.98 L85.05,158.99 L91.02,158.98 L97.62,158.94 L104.02,158.66 L110.62,158.11 L117.01,158.41 L123.62,158.54 L130.23,158.9 L136.62,158.91 L143.22,158.96 L149.62,158.98 L156.22,158.99 L162.83,159 L168.79,158.99 L175.4,158.96 L181.79,158.87 L188.4,158.7 L194.79,158.54 L201.4,158.55 L208,158.7 L214.4,158.89 L221,158.91 L227.39,158.98 L234,158.95 L240.61,158.93 L246.79,158.95 L253.39,158.8 L259.78,158.41 L266.39,157.36 L272.78,156.43 L279.39,156.34 L285.99,157.39 L292.39,157.99 L298.99,158.31 L305.39,158.72 L311.99,158.77 L318.6,158.92 L324.56,158.86 L331.17,158.9 L337.56,158.53 L344.17,158.22 L350.56,158.32 L357.17,158.31 L363.77,158.61 L370.16,158.63 L376.77,158.59 L383.16,158.86 L389.77,158.87 L396.37,158.92 L402.34,158.9 L408.95,158.87 L415.34,158.57 L421.95,157.78 L428.34,155.13 L434.94,154 L441.55,157.09 L447.94,158.15 L454.55,158.81 L460.94,158.98" id="Stroke-33" stroke="#000000" stroke-width="0.38"></path>
            <polyline id="Stroke-34" stroke="#FF0000" stroke-width="1.12" points="0.67 160.96 7.27 161 19.84 161 26.24 160.76 32.84 160.79 39.24 160.74 45.84 160.85 52.45 160.87 58.84 160.81 65.45 160.98 71.84 161 78.44 160.98 85.05 161 91.02 160.98 97.62 160.94 104.02 160.94 110.62 160.93 117.01 160.91 123.62 160.74 130.23 160.94 136.62 160.94 143.22 160.96 149.62 160.98 156.22 161 168.79 161 175.4 160.98 181.79 160.03 188.4 156.9 194.79 160.57 201.4 160.79 208 160.89 214.4 160.89 221 160.98 227.39 161 234 160.98 246.79 160.98 253.39 160.96 259.78 159.86 266.39 159.28 272.78 159.69 279.39 158.93 285.99 160.05 292.39 159.77 298.99 159.96 305.39 160.91 311.99 160.96 318.6 160.96 324.56 160.91 331.17 160.91 337.56 160.16 344.17 159.69 350.56 159.9 357.17 159.51 363.77 159.86 370.16 160.37 376.77 160.51 383.16 160.81 389.77 160.85 396.37 160.91 402.34 160.94 408.95 160.89 415.34 160.5 421.95 158.89 428.34 156.45 434.94 156 441.55 157.68 447.94 158.54 454.55 160.14 460.94 160.94"></polyline>
            <path d="M0.67,162.88 L7.27,162.92 L13.24,162.95 L19.84,162.77 L26.24,162.22 L32.84,162.8 L39.24,162.94 L45.84,162.88 L52.45,162.91 L58.84,162.95 L65.45,162.95 L71.84,162.98 L78.44,162.94 L85.05,162.95 L91.02,162.91 L97.62,162.83 L104.02,162.91 L110.62,162.89 L117.01,162.88 L123.62,162.85 L130.23,162.88 L136.62,162.92 L143.22,162.92 L149.62,163 L156.22,162.95 L162.83,163 L168.79,162.94 L175.4,162.91 L181.79,162.85 L188.4,162.59 L194.79,162.22 L201.4,162.74 L208,162.82 L214.4,162.83 L221,162.95 L227.39,162.97 L234,162.98 L240.61,162.89 L246.79,162.7 L253.39,162.44 L259.78,160.33 L266.39,158.74 L272.78,158 L279.39,158 L285.99,159.16 L292.39,160.09 L298.99,160.63 L305.39,162.23 L311.99,162.26 L318.6,162.56 L324.56,162.29 L331.17,162.2 L337.56,160.57 L344.17,159.49 L350.56,160.6 L357.17,161.75 L363.77,161.48 L370.16,161.36 L376.77,161.53 L383.16,162.05 L389.77,161.68 L396.37,161.69 L402.34,161.83 L408.95,161.72 L415.34,161 L421.95,160.58 L428.34,159.16 L434.94,158.72 L441.55,158.86 L447.94,160.94 L454.55,161.69 L460.94,162.97 M0.67,164.18 L7.27,164.18 L13.24,163.65 L19.84,164.12 L26.24,164.47 L32.84,164 L39.24,164.41 L45.84,164.71 L52.45,164.53 L58.84,164.71 L65.45,164.88 L71.84,165 L78.44,164.88 L85.05,164.82 L91.02,164.76 L97.62,164.71 L104.02,163.94 L110.62,163.76 L117.01,163.88 L123.62,164.35 L130.23,164.41 L136.62,164.59 L143.22,164.41 L149.62,164.76 L156.22,164.29 L162.83,164.82 L168.79,164.47 L175.4,163.24 L181.79,162.06 L188.4,161.12 L194.79,161.41 L201.4,161.53 L208,162.82 L214.4,164.12 L221,163.88 L227.39,164.53 L234,163.88 L240.61,164.06 L246.79,164 L253.39,163 L259.78,161.71 L266.39,162.65 L272.78,163.53 L279.39,163.47 L285.99,164.06 L292.39,164.18 L298.99,164.35 L305.39,164.94 L311.99,164.59 L318.6,164.06 L324.56,164.35 L331.17,163.76 L337.56,160 L344.17,162.24 L350.56,163.88 L357.17,164.47 L363.77,164.82 L370.16,164.76 L376.77,164.94 L383.16,164.76 L389.77,164.35 L396.37,164.71 L402.34,163.94 L408.95,163.88 L415.34,163.76 L421.95,163.18 L428.34,163.29 L434.94,163.29 L441.55,162.53 L447.94,162.65 L454.55,163.82 L460.94,165" id="Stroke-35" stroke="#000000" stroke-width="0.38"></path>
            <path d="M0.67,166.95 L7.27,166.89 L13.24,166.89 L19.84,166.84 L26.24,165.74 L32.84,165.26 L39.24,165.63 L45.84,166.16 L52.45,166.37 L58.84,166.47 L65.45,166.47 L71.84,166.89 L78.44,166.84 L85.05,166.63 L91.02,166.74 L97.62,166.32 L104.02,165.37 L110.62,163.89 L117.01,164.16 L123.62,164.37 L130.23,164.74 L136.62,166.16 L143.22,165.47 L149.62,166.21 L156.22,166.53 L162.83,166.58 L168.79,165.95 L175.4,165.63 L181.79,165.79 L188.4,163.42 L194.79,162.05 L201.4,162 L208,162.89 L214.4,164.95 L221,165.84 L227.39,166.37 L234,166.37 L240.61,166.58 L246.79,166.63 L253.39,166.68 L259.78,166.26 L266.39,165.26 L272.78,165.63 L279.39,164.68 L285.99,166.63 L292.39,166.53 L298.99,166.53 L305.39,166.84 L311.99,166.89 L318.6,166.95 L324.56,166.53 L331.17,166.05 L337.56,165.47 L344.17,165.42 L350.56,164.63 L357.17,165.68 L363.77,165.74 L370.16,166.05 L376.77,166.16 L383.16,166.79 L389.77,166.79 L396.37,165.79 L402.34,166.53 L408.95,166.58 L415.34,165.63 L421.95,163.26 L428.34,164.05 L434.94,163.89 L441.55,163.79 L447.94,165.95 L454.55,166.58 L460.94,167 M0.67,168.75 L7.27,168.26 L13.24,168.59 L19.84,167.88 L26.24,167.18 L32.84,167.84 L39.24,167.93 L45.84,167.43 L52.45,168.17 L58.84,167.6 L65.45,167.97 L71.84,167.88 L78.44,168.55 L85.05,168.42 L91.02,168.21 L97.62,168.34 L104.02,168.34 L110.62,166.19 L117.01,165.4 L123.62,166.15 L130.23,168.09 L136.62,168.46 L143.22,168.34 L149.62,168.55 L156.22,168.59 L162.83,168.63 L168.79,168.17 L175.4,168.13 L181.79,168.01 L188.4,165.61 L194.79,165.94 L201.4,166.36 L208,168.01 L214.4,168.17 L221,168.13 L227.39,168.5 L234,168.34 L240.61,168.09 L246.79,167.43 L253.39,166.64 L259.78,166.31 L266.39,164.29 L272.78,164 L279.39,166.11 L285.99,166.89 L292.39,167.35 L298.99,167.6 L305.39,168.26 L311.99,168.79 L318.6,168.71 L324.56,168.63 L331.17,168.71 L337.56,168.5 L344.17,167.88 L350.56,167.39 L357.17,167.8 L363.77,168.21 L370.16,168.5 L376.77,168.67 L383.16,168.63 L389.77,168.26 L396.37,168.38 L402.34,167.93 L408.95,168.34 L415.34,168.34 L421.95,168.21 L428.34,167.51 L434.94,167.1 L441.55,167.84 L447.94,167.93 L454.55,168.67 L460.94,168.92" id="Stroke-36" stroke="#000000" stroke-width="0.38"></path>
            <path d="M0.67,169.24 L7.27,168.87 L13.24,169.35 L19.84,168.55 L26.24,167.28 L32.84,166 L39.24,166.9 L45.84,169.03 L52.45,168.71 L58.84,169.62 L65.45,169.83 L71.84,170.68 L78.44,170.47 L85.05,170.31 L91.02,170.31 L97.62,169.99 L104.02,170.36 L110.62,169.03 L117.01,169.72 L123.62,169.19 L130.23,169.99 L136.62,169.88 L143.22,170.26 L149.62,170.36 L156.22,170.63 L162.83,170.36 L168.79,170.31 L175.4,170.57 L181.79,169.24 L188.4,166.69 L194.79,167.28 L201.4,166 L208,168.55 L214.4,168.18 L221,168.82 L227.39,170.04 L234,169.78 L240.61,169.51 L246.79,168.93 L253.39,168.71 L259.78,167.01 L266.39,166.64 L272.78,166.9 L279.39,168.02 L285.99,168.29 L292.39,167.97 L298.99,167.97 L305.39,169.51 L311.99,169.83 L318.6,170.1 L324.56,169.56 L331.17,169.72 L337.56,168.87 L344.17,167.06 L350.56,168.13 L357.17,167.33 L363.77,168.45 L370.16,168.02 L376.77,168.61 L383.16,169.99 L389.77,169.4 L396.37,169.24 L402.34,169.35 L408.95,170.15 L415.34,169.99 L421.95,169.14 L428.34,167.91 L434.94,167.7 L441.55,168.13 L447.94,169.51 L454.55,169.62 L460.94,170.89 M0.67,172.29 L7.27,172.63 L13.24,172.53 L19.84,172.63 L26.24,171.07 L32.84,171.21 L39.24,171.14 L45.84,170.94 L52.45,171.61 L58.84,171.78 L65.45,171.92 L71.84,172.46 L78.44,172.7 L85.05,172.76 L91.02,172.63 L97.62,171.95 L104.02,170.23 L110.62,169.62 L117.01,168 L123.62,169.45 L130.23,170.09 L136.62,170.6 L143.22,171.31 L149.62,172.53 L156.22,172.56 L162.83,172.8 L168.79,172.02 L175.4,172.12 L181.79,170.43 L188.4,169.76 L194.79,170.09 L201.4,170.8 L208,171.58 L214.4,172.05 L221,172.32 L227.39,172.86 L234,172.93 L240.61,172.83 L246.79,172.8 L253.39,172.59 L259.78,171.75 L266.39,170.67 L272.78,170.64 L279.39,171.45 L285.99,171.55 L292.39,171.92 L298.99,172.12 L305.39,172.73 L311.99,172.8 L318.6,172.93 L324.56,172.7 L331.17,172.59 L337.56,171.85 L344.17,168.57 L350.56,170.84 L357.17,170.2 L363.77,170.97 L370.16,171.28 L376.77,171.95 L383.16,172.53 L389.77,172.73 L396.37,172.36 L402.34,172.16 L408.95,172.7 L415.34,172.26 L421.95,171.07 L428.34,170.7 L434.94,170.77 L441.55,170.91 L447.94,171.48 L454.55,172.63 L460.94,173" id="Stroke-37" stroke="#000000" stroke-width="0.38"></path>
            <path d="M0.67,174.64 L7.27,174.72 L13.24,174.79 L19.84,174.56 L26.24,173.59 L32.84,171.97 L39.24,172.36 L45.84,172.69 L52.45,173.41 L58.84,173.49 L65.45,173.9 L71.84,174.31 L78.44,174.67 L85.05,174.95 L91.02,174.82 L97.62,174.77 L104.02,174.82 L110.62,174.62 L117.01,174.9 L123.62,174.77 L130.23,174.72 L136.62,174.9 L143.22,174.62 L149.62,174.92 L156.22,174.9 L162.83,174.87 L168.79,174.9 L175.4,174.62 L181.79,173.79 L188.4,172.9 L194.79,174.08 L201.4,174.18 L208,174.72 L214.4,174.59 L221,174.44 L227.39,174.26 L234,174.31 L240.61,174.44 L246.79,174.36 L253.39,173.97 L259.78,173.69 L266.39,173.85 L272.78,174.03 L279.39,174.15 L285.99,174.44 L292.39,174.26 L298.99,174.26 L305.39,174.49 L311.99,174.33 L318.6,174.44 L324.56,174.49 L331.17,173.69 L337.56,172.9 L344.17,173.64 L350.56,174.23 L357.17,173.79 L363.77,174.21 L370.16,174.46 L376.77,174.33 L383.16,174.59 L389.77,174.08 L396.37,174.18 L402.34,174.05 L408.95,174.28 L415.34,172.9 L421.95,171.59 L428.34,170 L434.94,170.97 L441.55,172.64 L447.94,173.74 L454.55,174.59 L460.94,175 M0.67,176.94 L7.27,176.87 L13.24,176.97 L19.84,176.77 L26.24,175.77 L32.84,176.71 L39.24,176.48 L45.84,176.26 L52.45,176.55 L58.84,176.65 L65.45,176.84 L71.84,176.9 L78.44,176.97 L91.02,176.97 L97.62,176.68 L104.02,176.48 L110.62,176.16 L117.01,176.58 L123.62,176.77 L130.23,176.97 L136.62,176.94 L143.22,177 L149.62,176.9 L156.22,177 L162.83,177 L168.79,176.94 L175.4,176.77 L181.79,176.45 L188.4,176.23 L194.79,176.45 L201.4,176.65 L208,176.94 L214.4,176.97 L234,176.97 L240.61,176.94 L246.79,176.97 L253.39,176.81 L259.78,176.45 L266.39,174.65 L272.78,174.19 L279.39,175.13 L285.99,176.16 L292.39,176.48 L298.99,176.16 L305.39,176.84 L311.99,176.84 L318.6,176.87 L324.56,176.84 L331.17,176.9 L337.56,176.68 L344.17,176.26 L350.56,176.45 L357.17,176.58 L363.77,176.84 L370.16,176.87 L376.77,176.84 L383.16,176.87 L389.77,176.87 L396.37,176.84 L402.34,176.77 L408.95,176.81 L415.34,176.58 L421.95,176.1 L428.34,174.9 L434.94,172 L441.55,175.13 L447.94,176.16 L454.55,176.77 L460.94,177" id="Stroke-38" stroke="#000000" stroke-width="0.38"></path>
            <path d="M0.67,179 L7.27,178.91 L13.24,178.64 L19.84,179 L26.24,177.75 L32.84,176.95 L39.24,176.23 L45.84,174 L52.45,176.95 L58.84,178.29 L65.45,178.46 L71.84,178.82 L78.44,178.91 L85.05,178.82 L91.02,178.82 L97.62,178.55 L104.02,177.66 L110.62,176.95 L117.01,176.77 L123.62,177.12 L130.23,178.2 L136.62,178.55 L143.22,179 L168.79,179 L175.4,178.82 L181.79,178.29 L188.4,177.75 L194.79,175.52 L201.4,176.41 L208,175.25 L214.4,176.95 L221,178.29 L227.39,178.73 L234,178.38 L240.61,178.64 L246.79,178.82 L253.39,178.64 L266.39,178.64 L272.78,176.32 L279.39,176.95 L285.99,176.77 L292.39,178.11 L298.99,178.29 L305.39,179 L318.6,179 L324.56,178.91 L331.17,179 L337.56,178.91 L344.17,177.75 L350.56,178.2 L357.17,178.46 L363.77,178.55 L370.16,178.91 L376.77,178.64 L383.16,179 L389.77,178.91 L396.37,179 L402.34,178.82 L408.95,178.82 L415.34,178.55 L421.95,178.46 L428.34,178.73 L434.94,178.38 L441.55,178.91 L447.94,178.38 L454.55,178.82 L460.94,179 M0.67,180.94 L7.27,181 L13.24,181 L19.84,180.78 L26.24,180.1 L32.84,179.93 L39.24,179.99 L45.84,180.49 L58.84,180.49 L65.45,180.72 L71.84,180.78 L78.44,181 L85.05,180.94 L91.02,180.16 L97.62,180.16 L104.02,179.37 L110.62,178.75 L117.01,178.87 L123.62,179.37 L130.23,180.55 L136.62,180.33 L143.22,180.38 L149.62,180.89 L156.22,180.72 L162.83,181 L168.79,180.94 L175.4,180.94 L181.79,180.38 L188.4,179.93 L194.79,180.55 L201.4,180.72 L208,180.78 L214.4,180.89 L221,180.94 L227.39,180.83 L234,180.94 L240.61,181 L246.79,180.83 L253.39,180.49 L259.78,180.21 L266.39,179.82 L272.78,180.1 L279.39,180.49 L285.99,180.27 L292.39,180.55 L298.99,180.66 L305.39,180.94 L311.99,180.83 L318.6,180.94 L324.56,180.83 L331.17,180.72 L337.56,179.99 L344.17,180.33 L350.56,180.38 L357.17,180.44 L363.77,180.16 L370.16,180.38 L376.77,180.83 L383.16,180.72 L389.77,180.89 L396.37,180.38 L402.34,180.61 L408.95,180.27 L415.34,179.43 L421.95,176 L428.34,177.29 L434.94,178.08 L441.55,179.99 L447.94,180.61 L454.55,180.89 L460.94,180.94" id="Stroke-39" stroke="#000000" stroke-width="0.38"></path>
            <path d="M0.67,182.15 L7.27,182.56 L13.24,182.79 L19.84,182.61 L26.24,181.7 L32.84,181.29 L39.24,180.64 L45.84,181.16 L52.45,181.11 L58.84,181.58 L65.45,182.4 L71.84,182.9 L78.44,182.82 L85.05,182.9 L91.02,182.12 L97.62,182.12 L104.02,181.81 L110.62,181.16 L117.01,180.9 L123.62,181.34 L130.23,181.94 L136.62,181.39 L143.22,181.68 L149.62,182.12 L156.22,182.87 L162.83,182.79 L168.79,182.79 L175.4,182.74 L181.79,182.72 L188.4,182.15 L194.79,182.25 L201.4,181.55 L208,182.04 L214.4,181.65 L221,181.55 L227.39,182.04 L234,182.12 L240.61,181.55 L246.79,181.63 L253.39,181.91 L259.78,180.64 L266.39,180.44 L272.78,180.07 L279.39,181.63 L285.99,181.89 L292.39,181.32 L298.99,181.89 L305.39,182.35 L311.99,182.56 L318.6,182.53 L324.56,182.72 L331.17,182.66 L337.56,182.27 L344.17,182.07 L350.56,182.38 L357.17,181.99 L363.77,182.72 L370.16,182.38 L376.77,182.4 L383.16,182.84 L389.77,182.56 L396.37,181.96 L402.34,181.99 L408.95,182.46 L415.34,182.56 L421.95,182.17 L428.34,179.61 L434.94,178 L441.55,179.55 L447.94,182.33 L454.55,182.35 L460.94,182.95 M0.67,185 L13.24,185 L19.84,184.93 L26.24,184.86 L32.84,184.86 L39.24,184.93 L45.84,184.57 L52.45,184.86 L58.84,184.71 L65.45,185 L91.02,185 L97.62,184.93 L104.02,185 L110.62,184.71 L117.01,184.5 L123.62,184.93 L130.23,185 L181.79,185 L188.4,182.93 L194.79,183.5 L201.4,184.71 L208,185 L214.4,184.64 L221,184.86 L227.39,185 L240.61,185 L246.79,184.93 L253.39,184.64 L259.78,184.57 L266.39,183.79 L272.78,184 L279.39,184.29 L285.99,184.21 L292.39,183.86 L298.99,184.29 L305.39,184.79 L311.99,184.86 L318.6,184.86 L324.56,184.71 L331.17,184.86 L337.56,183.86 L344.17,183.43 L350.56,182.71 L357.17,182.14 L363.77,183.29 L370.16,183.5 L376.77,184.07 L383.16,184.79 L389.77,184.86 L396.37,184.93 L402.34,185 L408.95,184.64 L415.34,183.64 L421.95,183.29 L428.34,180.86 L434.94,180 L441.55,182.79 L447.94,184.64 L454.55,184.93 L460.94,185" id="Stroke-40" stroke="#000000" stroke-width="0.38"></path>
            <path d="M0.67,186.63 L7.27,186.46 L13.24,186.88 L19.84,186.96 L26.24,186.46 L32.84,186.08 L39.24,186.17 L45.84,186.42 L52.45,186.75 L58.84,186.88 L65.45,186.71 L71.84,186.92 L78.44,186.96 L85.05,186.92 L91.02,186.83 L97.62,186.88 L104.02,186.12 L110.62,185.46 L117.01,186.12 L123.62,186.42 L130.23,186.83 L136.62,186.67 L143.22,186.54 L149.62,186.75 L156.22,187 L162.83,186.96 L168.79,186.54 L175.4,186.12 L181.79,185 L188.4,183.37 L194.79,184.54 L201.4,184.79 L208,185.17 L214.4,186.42 L221,186.79 L227.39,187 L234,186.92 L240.61,186.88 L246.79,186.92 L253.39,186.67 L259.78,186.33 L266.39,185.58 L272.78,185.92 L279.39,185.92 L285.99,186.17 L292.39,186.54 L298.99,186.63 L305.39,186.92 L311.99,187 L318.6,186.96 L324.56,186.92 L331.17,186.92 L337.56,186.08 L344.17,185.96 L350.56,186.08 L357.17,184.54 L363.77,186.42 L370.16,186.54 L376.77,186.71 L383.16,187 L389.77,186.79 L396.37,186.92 L402.34,186.71 L408.95,186.79 L415.34,186.42 L421.95,185.58 L428.34,184.42 L434.94,182 L441.55,183.92 L447.94,185.62 L454.55,186.29 L460.94,186.92 M0.67,188.23 L7.27,188.23 L13.24,187.46 L19.84,184 L26.24,185.54 L32.84,186.69 L39.24,186.12 L45.84,187.08 L52.45,187.65 L58.84,188.62 L65.45,188.81 L71.84,188.62 L78.44,188.42 L85.05,188.62 L91.02,187.08 L97.62,187.08 L104.02,187.65 L110.62,187.65 L117.01,188.23 L123.62,188.42 L130.23,188.23 L136.62,188.23 L143.22,188.81 L156.22,188.81 L162.83,188.62 L168.79,188.23 L175.4,188.23 L181.79,187.46 L188.4,186.31 L194.79,185.92 L201.4,187.08 L208,186.69 L214.4,187.27 L221,188.04 L227.39,188.81 L234,187.65 L240.61,185.92 L246.79,187.46 L253.39,187.27 L259.78,185.73 L266.39,186.31 L272.78,188.23 L279.39,186.69 L285.99,188.42 L292.39,188.62 L298.99,188.81 L305.39,188.81 L311.99,188.23 L318.6,188.62 L324.56,189 L331.17,188.81 L337.56,188.42 L344.17,187.65 L350.56,188.81 L357.17,189 L370.16,189 L376.77,188.23 L383.16,189 L389.77,188.81 L396.37,187.85 L402.34,188.81 L408.95,189 L415.34,188.42 L421.95,188.23 L428.34,188.42 L434.94,187.27 L441.55,187.85 L447.94,188.23 L454.55,189 L460.94,189" id="Stroke-41" stroke="#000000" stroke-width="0.38"></path>
            <path d="M0.67,190.51 L7.27,190.68 L13.24,190.65 L19.84,190.49 L26.24,190.56 L32.84,190.75 L39.24,190.54 L45.84,190.17 L52.45,190.2 L58.84,190.13 L65.45,190.33 L71.84,190.56 L78.44,190.29 L85.05,190.43 L91.02,190.43 L97.62,190.68 L104.02,190.7 L110.62,190.19 L117.01,189.9 L123.62,190.03 L130.23,190.19 L136.62,189.69 L143.22,189.64 L149.62,190.1 L156.22,190.22 L162.83,190.68 L168.79,190.63 L175.4,190.77 L181.79,190.58 L188.4,189.45 L194.79,189.27 L201.4,188.79 L208,188.19 L214.4,188.97 L221,189.07 L227.39,189.75 L234,190.2 L240.61,190.19 L246.79,190.29 L253.39,189.87 L259.78,189.04 L266.39,188.19 L272.78,186.88 L279.39,186 L285.99,186.49 L292.39,187.8 L298.99,188.35 L305.39,189.46 L311.99,190.29 L318.6,190.42 L324.56,190.61 L331.17,190.51 L337.56,190.56 L344.17,190.26 L350.56,189.55 L357.17,188.33 L363.77,189.36 L370.16,189.23 L376.77,189.34 L383.16,190.17 L389.77,190.19 L396.37,190.06 L402.34,190.08 L408.95,190.36 L415.34,190.47 L421.95,190.31 L428.34,189.76 L434.94,189.16 L441.55,188.97 L447.94,188.42 L454.55,188.65 L460.94,190.65 M0.67,192.96 L7.27,192.92 L13.24,192.66 L19.84,192.28 L26.24,192.32 L32.84,192.15 L39.24,192.58 L45.84,192.87 L52.45,193 L71.84,193 L78.44,192.96 L85.05,192.92 L91.02,193 L97.62,192.49 L104.02,191.77 L110.62,191.98 L117.01,191.94 L123.62,191.94 L130.23,192.83 L136.62,192.92 L143.22,193 L149.62,192.96 L162.83,192.96 L168.79,192.92 L175.4,192.45 L181.79,192.15 L188.4,192.66 L194.79,192.96 L201.4,193 L208,192.96 L214.4,193 L234,193 L240.61,192.92 L246.79,192.96 L253.39,192.92 L259.78,192.75 L266.39,192.58 L272.78,192.58 L279.39,192.92 L285.99,192.92 L292.39,193 L311.99,193 L318.6,192.87 L324.56,193 L331.17,192.79 L337.56,192.49 L344.17,191.6 L350.56,192.75 L357.17,191.47 L363.77,191.98 L370.16,191.86 L376.77,192.28 L383.16,192.92 L389.77,192.87 L396.37,192.83 L402.34,192.28 L408.95,192.11 L415.34,190.54 L421.95,188 L428.34,189.1 L434.94,189.78 L441.55,191.39 L447.94,192.87 L454.55,192.87 L460.94,193" id="Stroke-42" stroke="#000000" stroke-width="0.38"></path>
            <path d="M0.67,194.95 L7.27,194.9 L13.24,194.87 L19.84,194.93 L26.24,194.6 L32.84,194.26 L39.24,194.19 L45.84,193.74 L52.45,194.4 L58.84,194.29 L65.45,194.8 L71.84,194.98 L78.44,194.9 L85.05,194.95 L91.02,194.95 L97.62,194.55 L104.02,194.11 L110.62,193.42 L117.01,193.48 L123.62,193.95 L130.23,194.05 L136.62,193.97 L143.22,194.21 L149.62,194.65 L156.22,194.85 L162.83,194.89 L168.79,194.87 L175.4,194.76 L181.79,194.3 L188.4,193.17 L194.79,193.87 L201.4,194.11 L208,194.2 L214.4,194.6 L221,194.8 L227.39,194.95 L234,194.76 L240.61,194.8 L246.79,194.75 L253.39,194.66 L259.78,193.85 L266.39,193.19 L272.78,193.37 L279.39,193.69 L285.99,194.24 L292.39,194.26 L298.99,194.44 L305.39,194.98 L311.99,194.89 L318.6,194.91 L324.56,194.78 L331.17,194.62 L337.56,194.23 L344.17,193.42 L350.56,194.02 L357.17,193.81 L363.77,194.35 L370.16,194.38 L376.77,194.37 L383.16,194.67 L389.77,194.67 L396.37,194.57 L402.34,194.15 L408.95,194.26 L415.34,193.44 L421.95,191.84 L428.34,191 L434.94,190 L441.55,191.35 L447.94,193.42 L454.55,194.36 L460.94,195 M0.67,196.83 L7.27,196.53 L13.24,196.28 L19.84,195.99 L26.24,195.39 L32.84,195.54 L39.24,195.89 L45.84,195.04 L52.45,195.05 L58.84,194.94 L65.45,195.69 L71.84,196.49 L78.44,196.32 L85.05,196.52 L91.02,196.57 L97.62,196.64 L104.02,196.45 L110.62,195.66 L117.01,194.57 L123.62,195.22 L130.23,196.35 L136.62,196.3 L143.22,196.38 L149.62,196.57 L156.22,196.86 L162.83,196.82 L168.79,196.63 L175.4,196.64 L181.79,196.11 L188.4,194.61 L194.79,194.87 L201.4,195.38 L208,195.66 L214.4,195.45 L221,196.02 L227.39,196.12 L234,196.13 L240.61,196.3 L246.79,195.72 L253.39,195.74 L259.78,194.71 L266.39,192 L272.78,192.57 L279.39,193.92 L285.99,194.93 L292.39,195.66 L298.99,196.16 L305.39,196.74 L311.99,196.69 L318.6,196.72 L324.56,196.72 L331.17,196.52 L337.56,195.79 L344.17,196.08 L350.56,196.03 L357.17,196.02 L363.77,196.23 L370.16,196.22 L376.77,196.16 L383.16,196.49 L389.77,196.72 L396.37,196.74 L402.34,196.63 L408.95,196.87 L415.34,196.89 L421.95,196.73 L428.34,196.33 L434.94,195.89 L441.55,196.23 L447.94,196.39 L454.55,196.3 L460.94,196.89" id="Stroke-43" stroke="#000000" stroke-width="0.38"></path>
            <path d="M0.67,198.62 L7.27,198.63 L13.24,198.69 L19.84,198.49 L26.24,197.33 L32.84,196.38 L39.24,195.39 L45.84,196.11 L52.45,197.52 L58.84,197.69 L65.45,198.2 L71.84,198.65 L78.44,198.56 L85.05,198.75 L91.02,198.73 L97.62,198.76 L104.02,198.76 L110.62,198.75 L117.01,198.87 L123.62,198.93 L136.62,198.93 L143.22,198.91 L149.62,198.85 L156.22,198.82 L162.83,198.83 L168.79,198.81 L175.4,198.77 L181.79,198.5 L188.4,198.55 L194.79,198.61 L201.4,198.86 L208,198.93 L214.4,198.83 L227.39,198.83 L234,198.75 L240.61,198.71 L246.79,198.67 L253.39,198.73 L259.78,198.36 L266.39,198.28 L272.78,198.38 L279.39,198.44 L285.99,198.45 L292.39,198.38 L298.99,198.54 L305.39,198.61 L311.99,198.56 L318.6,198.69 L324.56,198.69 L331.17,198.75 L337.56,198.46 L344.17,198.63 L350.56,198.71 L357.17,198.63 L363.77,198.73 L370.16,198.8 L376.77,198.79 L383.16,198.83 L389.77,198.59 L396.37,198.65 L402.34,198.5 L408.95,198.44 L415.34,197.83 L421.95,196.86 L428.34,194 L434.94,195.48 L441.55,196.14 L447.94,197.59 L454.55,198.46 L460.94,198.99 M0.67,201 L7.27,201 L13.24,200.84 L19.84,201 L26.24,200.68 L32.84,199.23 L39.24,200.35 L45.84,200.52 L52.45,200.68 L58.84,200.84 L65.45,201 L71.84,201 L78.44,200.84 L85.05,201 L91.02,201 L97.62,200.84 L104.02,200.52 L117.01,200.52 L123.62,200.19 L130.23,198.58 L136.62,200.03 L143.22,199.71 L149.62,200.84 L156.22,201 L162.83,201 L168.79,200.84 L175.4,200.35 L181.79,200.84 L188.4,199.55 L194.79,199.39 L201.4,200.19 L208,200.52 L214.4,200.52 L221,200.68 L227.39,201 L234,201 L240.61,200.84 L246.79,201 L253.39,201 L259.78,199.39 L266.39,196.16 L272.78,197.45 L279.39,200.52 L285.99,200.19 L292.39,200.52 L298.99,200.84 L305.39,200.84 L311.99,201 L318.6,200.84 L324.56,201 L331.17,200.84 L337.56,200.03 L344.17,199.87 L350.56,199.71 L357.17,199.71 L363.77,200.52 L370.16,200.68 L376.77,201 L383.16,200.84 L389.77,201 L396.37,200.84 L402.34,200.68 L408.95,199.71 L415.34,199.06 L421.95,196 L428.34,197.45 L434.94,196.32 L441.55,197.94 L447.94,198.74 L454.55,200.35 L460.94,200.84" id="Stroke-44" stroke="#000000" stroke-width="0.38"></path>
            <polyline id="Stroke-45" stroke="#000000" stroke-width="0.38" points="0.67 202.82 7.27 202.84 13.24 202.93 19.84 202.92 26.24 202.66 32.84 202.7 39.24 202.61 45.84 202.74 52.45 202.71 58.84 202.78 65.45 202.86 71.84 202.93 78.44 202.94 85.05 202.93 91.02 202.93 97.62 202.95 104.02 202.92 110.62 202.92 117.01 202.89 123.62 202.87 130.23 202.93 136.62 202.86 143.22 202.79 149.62 202.77 156.22 202.79 162.83 202.83 168.79 202.75 175.4 202.8 181.79 202.3 188.4 201.66 194.79 201.15 201.4 201.43 208 201.49 214.4 201.93 221 202.03 227.39 202.56 234 202.52 240.61 202.62 246.79 202.6 253.39 202.84 259.78 202.56 266.39 202.3 272.78 202.38 279.39 202.31 285.99 202.44 292.39 202.52 298.99 202.62 305.39 202.8 311.99 202.62 318.6 202.86 324.56 202.79 331.17 202.89 337.56 202.77 344.17 202.59 350.56 202.89 357.17 202.84 363.77 202.8 370.16 202.57 376.77 202.48 383.16 202.71 389.77 202.44 396.37 202.55 402.34 202.57 408.95 202.49 415.34 202.1 421.95 200.78 428.34 198.2 434.94 198 441.55 201.4 447.94 201.37 454.55 202.18 460.94 202.97"></polyline>
        </g>
    </g>
</svg>