<?xml version="1.0" encoding="UTF-8"?>
<svg viewBox="0 0 546 177" version="1.1" xmlns="http://www.w3.org/2000/svg" xmlns:xlink="http://www.w3.org/1999/xlink">
    <!-- Generator: Sketch 42 (36781) - http://www.bohemiancoding.com/sketch -->
    <title>logo</title>
    <desc>Created with Sketch.</desc>
    <defs>
        <polygon id="path-1" points="0.973798798 0.051 59.2734 0.051 59.2734 87.1647233 0.973798798 87.1647233 0.973798798 0.051"></polygon>
    </defs>
    <g id="Page-1" stroke="none" stroke-width="1" fill="none" fill-rule="evenodd">
        <g id="logo" transform="translate(0.000000, -1.000000)">
            <path d="M54.375,58.9729 C54.375,56.7959 51.008,58.0389 49.856,57.2419 C48.651,56.4069 49,53.3889 48.726,52.0409 C48.245,49.6739 47.574,47.3399 46.849,45.0369 C46.541,44.0549 46.21,43.0809 45.871,42.1089 C45.727,41.6959 45.572,40.9369 45.344,40.6149 C44.663,39.6539 45.005,40.2289 43.832,39.8789 C41.69,39.2389 39.835,37.9179 37.58,37.5189 C34.843,37.0349 31.84,37.1349 29.056,36.8689 C23.72,36.3589 19.014,37.5419 15.165,41.4519 C11.246,45.4319 9.78,50.4649 9.935,55.9389 C9.999,58.1929 10.115,60.5209 10.77,62.6939 C11.07,63.6869 11.585,64.3949 12.037,65.2849 C12.245,65.6929 12.286,66.6739 12.48,66.9779 C12.981,67.7569 13.263,67.2419 14.194,67.6889 C15.216,68.1799 15.285,69.1669 15.883,70.1319 C17.192,72.2439 19.418,73.3309 21.504,74.5299 C22.609,75.1649 23.414,75.9149 24.419,76.6559 C25.6,77.5269 24.779,77.1369 26.016,77.2839 C26.611,77.3539 27.327,77.2489 27.943,77.2709 C30.589,77.3649 33.503,78.3049 36.116,77.5329 C38.903,76.7089 40.229,74.2659 42.015,72.2259 C43.58,70.4389 45.536,69.3379 47.343,67.8569 C49.637,65.9779 48.344,64.7669 48.926,62.1959 C49.568,59.3589 51.752,57.9069 54.258,59.8519 C54.323,59.5619 54.362,59.2689 54.375,58.9729 M60.234,58.5039 C60.234,60.2679 58.78,61.1519 58.535,62.6059 C58.354,63.6809 60.588,66.7139 57.598,65.7109 C57.685,67.3979 58.112,69.1259 57.929,70.8219 C57.882,71.2559 57.881,71.8529 57.627,72.2439 C57.24,72.8409 56.496,72.7779 56.158,73.2959 C55.689,74.0159 55.818,74.7659 55.225,75.5549 C54.755,76.1779 54.069,76.7169 53.467,77.1959 C52.605,77.8809 50.439,79.6859 49.219,79.0709 C49.219,81.2299 49.604,81.5039 47.813,82.5859 C46.327,83.4839 45.113,84.6149 43.729,85.6599 C42.457,86.6219 41.139,87.6299 39.452,87.3909 C37.763,87.1509 36.934,86.2149 35.105,86.6769 C33.651,87.0439 32.613,88.1489 31.055,88.2109 C29.386,88.2779 27.981,87.3359 26.514,86.7099 C24.857,86.0029 23.223,85.8379 21.504,85.3989 C19.411,84.8639 18.67,83.7099 17.124,82.3669 C14.255,79.8739 10.281,78.9739 7.485,76.3969 C5.021,74.1259 2.739,70.6699 1.252,67.6889 C-0.367,64.4409 -0.155,61.7339 0.615,58.2989 C0.939,56.8549 1.538,55.1019 1.348,53.5969 C1.271,52.9889 0,51.4169 0,51.4139 C0.183,49.7519 0.75,48.0619 1.289,46.4829 C1.836,44.8809 3.121,43.8369 3.252,42.2299 C3.306,41.5679 2.868,40.4279 3.34,39.8419 C3.578,39.5469 4.348,39.6629 4.687,39.4099 C5.977,38.4509 6.533,35.8719 7.719,34.6279 C8.906,33.3829 10.494,32.6959 11.854,31.6749 C13.274,30.6089 14.56,29.1529 16.239,28.4749 C18.008,27.7609 20.186,27.7509 22.063,27.1959 C24.264,26.5459 26.584,26.2979 28.857,26.0139 C33.31,25.4579 37.2,25.9129 41.426,27.4549 C42.977,28.0209 45.875,28.8439 47.005,30.1739 C47.649,30.9319 47.581,30.9479 47.395,32.0379 C47.319,32.4839 46.662,33.9569 46.992,34.3639 C47.36,34.8159 48.934,34.2069 49.479,34.1189 C49.812,34.0639 50.595,33.8119 50.918,33.9529 C51.049,34.0109 51.035,34.6289 51.214,34.7709 C52.5,35.7889 53.862,36.0719 54.839,37.5209 C56.606,40.1429 58.512,43.9599 59.268,47.0199 C59.821,49.2609 60.186,51.7019 58.865,53.7139 C58.615,54.0949 55.277,58.5279 57.847,58.1529 C59.5,57.9109 57.172,56.2079 57.832,55.4279 C58.485,54.6559 60.176,56.9779 60.176,57.6249 C60.183,57.5709 60.234,58.3489 60.234,58.5039" id="Fill-1" fill="#FF0000"></path>
            <path d="M139.9219,80.4768 C139.9219,83.3558 136.5539,86.4828 133.8409,87.0258 C132.1589,87.3628 130.3329,86.8658 128.6649,86.6768 C127.0959,86.4988 125.4409,86.6948 123.8969,86.3948 C120.3829,85.7118 120.1789,83.7358 118.0959,81.2388 C116.8499,79.7458 116.1619,80.1088 114.5819,80.8358 C112.6389,81.7288 110.7629,82.7438 108.8439,83.6838 C105.9579,85.0968 102.9679,86.2908 99.8019,86.9068 C97.2779,87.3968 93.4829,88.1408 90.9669,87.2738 C89.5719,86.7928 89.3559,85.7468 88.4729,84.7018 C87.5929,83.6598 87.3109,83.8148 86.0449,83.4648 C84.6959,83.0928 84.7689,83.0658 84.1259,81.7408 C83.3839,80.2098 82.5569,78.7928 81.4419,77.4888 C80.8939,76.8478 79.9329,76.2738 79.6849,75.5398 C79.4449,74.8288 79.6659,73.6368 79.6579,72.8888 C79.6359,70.6838 79.6059,68.4778 79.6399,66.2718 C79.7579,58.6298 80.8179,50.9628 80.2759,43.3158 C80.1619,41.6958 80.1349,39.4108 79.1779,38.0148 C78.2049,36.5938 76.9059,36.6658 75.2639,36.6198 C71.9489,36.5248 68.8379,36.7078 66.7379,33.6668 C62.3879,27.3688 74.4509,25.4868 78.3969,25.8298 C81.2519,26.0768 85.2639,27.0148 87.3109,29.2568 C88.8019,30.8898 89.1089,35.5718 88.8209,37.8508 C88.4259,40.9638 88.6609,43.9308 88.5939,47.0788 C88.5149,50.7908 89.8219,53.9638 88.9409,57.7438 C88.1539,61.1158 86.6559,64.5138 87.2699,68.0438 C87.8299,71.2688 90.0789,74.0288 92.9769,75.4788 C95.4939,76.7388 98.7669,77.0798 101.4059,75.9658 C102.3729,75.5578 103.1709,74.5438 104.1289,74.2438 C105.9609,73.6708 106.8689,74.5568 108.5449,73.1528 C109.6739,72.2068 109.9849,71.9098 111.4249,71.4118 C112.0189,71.2058 112.9119,71.0348 113.3459,70.5218 C113.7809,70.0078 113.5889,69.1578 113.9059,68.7578 C114.6929,67.7688 115.0599,68.6418 115.8399,67.7618 C116.2209,67.3328 116.3549,66.2868 116.6859,65.7568 C117.0769,65.1308 117.6349,64.6898 117.9129,63.9858 C118.3749,62.8168 118.8929,61.0098 119.0689,59.7608 C119.2649,58.3718 118.6739,57.9388 118.3009,56.7338 C117.7999,55.1148 118.4139,53.8938 118.7499,52.3328 C119.1079,50.6708 117.9559,50.0768 117.9489,48.5428 C117.9429,47.2718 118.7189,46.7528 118.3889,45.4668 C118.0809,44.2688 116.9489,43.5468 116.8949,42.2148 C116.8469,41.0468 117.5269,40.2118 117.1949,38.9858 C116.6319,36.9098 114.4569,36.1288 112.5589,35.8288 C109.6419,35.3658 107.2769,35.8718 105.7009,32.8728 C103.7599,29.1778 106.7369,27.5238 110.0109,26.8088 C113.7039,26.0018 117.3569,26.8908 120.9669,26.1898 C125.3269,25.3438 126.8969,27.9148 127.3149,32.0608 C127.7149,36.0308 126.8899,39.9838 127.2279,43.9448 C127.3909,45.8548 127.9909,47.6988 128.0949,49.6128 C128.1869,51.3078 127.6279,52.1768 127.0389,53.6998 C126.2229,55.8078 127.1959,57.2928 127.0629,59.4518 C126.8879,62.2748 126.8449,65.3358 126.6469,68.3118 C126.3939,72.1158 129.0799,74.6078 132.8319,74.6178 C133.4089,74.6188 135.2179,73.9898 135.6449,74.1488 C135.8969,74.2428 136.5809,75.4738 136.7869,75.7018 C138.1549,77.2098 139.9219,78.2038 139.9219,80.4768" id="Fill-3" fill="#FF0000"></path>
            <g id="Group-7" transform="translate(141.000000, 0.949000)">
                <mask id="mask-2" fill="white">
                    <use xlink:href="#path-1"></use>
                </mask>
                <g id="Clip-6"></g>
                <path d="M59.2734,62.4185 C59.2734,65.3505 58.2994,68.1205 57.3914,70.8705 C56.4764,73.6395 56.2234,76.8585 54.8204,79.4175 C52.0154,84.5295 45.7604,85.7065 40.4804,86.3365 C37.3954,86.7055 34.2964,86.7655 31.2034,87.0145 C29.6834,87.1375 28.8134,87.4935 27.7044,86.3505 C26.6134,85.2275 25.9794,83.7905 24.5204,83.0635 C23.5094,82.5595 23.2734,83.0185 22.7404,81.9005 C22.2464,80.8645 22.3584,79.3685 22.1114,78.2355 C21.7154,76.4175 21.4474,77.0095 19.8724,76.3375 C18.8224,75.8905 18.1744,74.9235 17.7924,73.8905 C17.3554,72.7105 17.4804,71.5425 17.3204,70.3285 C17.1544,69.0685 16.5824,68.2025 16.0094,67.0875 C14.6934,64.5285 15.2094,62.0045 15.3864,59.1995 C15.5454,56.6915 15.2734,53.9465 16.5004,51.6955 C16.9304,50.9055 17.4234,50.4725 17.3384,49.4985 C17.2154,48.0835 16.6354,47.8965 17.1444,46.4515 C17.8064,44.5745 19.4814,40.0695 18.2574,38.1025 C16.6834,35.5695 10.8524,36.3815 8.4584,35.7345 C5.9334,35.0525 4.9444,32.5935 2.7894,31.3635 C-0.2606,29.6225 0.8604,27.0265 3.7264,25.8265 C4.8904,25.3395 6.1614,25.1675 7.3124,24.6535 C8.4164,24.1605 9.1664,23.5735 10.4064,23.4535 C13.2084,23.1835 15.8994,23.7175 16.9974,20.4175 C18.7734,15.0765 14.9404,8.9505 18.5784,3.9775 C19.3744,2.8895 21.3894,0.3415 22.8354,0.0895 C25.3564,-0.3495 26.5434,3.0395 26.5484,4.9085 C26.5564,7.6025 27.4114,10.1565 27.4424,12.8025 C27.4784,15.9235 25.8484,17.2955 27.8374,20.2315 C28.3554,20.9945 28.6744,22.5725 29.1564,23.1025 C29.7894,23.7985 31.7524,23.8345 32.6314,23.9595 C35.8814,24.4195 39.1794,24.5995 42.4574,24.7265 C44.9784,24.8235 47.3754,24.6135 49.7264,25.6695 C51.7214,26.5645 54.9074,26.6205 53.7964,29.6775 C52.0874,34.3825 42.8154,32.1335 39.1314,32.2575 C33.2344,32.4555 28.1204,34.9805 27.5784,41.3965 C27.2894,44.8245 27.9604,48.2015 28.1824,51.6075 C28.3724,54.5255 27.8664,57.7865 28.5774,60.6465 C29.2694,63.4275 30.2364,66.4195 31.1884,69.1355 C32.1134,71.7765 33.5944,74.1385 36.5934,74.4525 C39.1534,74.7195 44.2194,74.0035 45.7964,71.6635 C47.5004,69.1365 43.7204,66.6655 45.9144,64.0295 C46.7674,63.0045 48.0614,62.7035 49.0784,61.9495 C50.5404,60.8665 51.2604,59.5525 53.1714,59.0125 C54.4634,58.6485 55.8214,58.7505 57.0764,59.1955 C58.9674,59.8675 59.2734,60.4495 59.2734,62.4185" id="Fill-5" fill="#FF0000" mask="url(#mask-2)"></path>
            </g>
            <path d="M260.1562,56.4534 C260.0082,54.5244 257.1582,54.9774 257.2852,53.1724 C257.3142,52.7534 258.2212,52.4184 258.2222,52.4104 C258.2852,52.0234 257.8342,51.0904 257.7272,50.8484 C257.2002,49.6494 256.3912,48.6174 255.9372,47.3714 C255.1282,45.1494 255.1632,43.4244 253.0662,41.9804 C252.1722,41.3654 251.2502,41.0754 250.5762,40.1644 C249.9872,39.3684 249.8852,38.2924 249.1112,37.6154 C247.8252,36.4894 244.8892,36.2324 243.2662,35.7044 C240.7592,34.8884 238.3242,34.5134 235.6832,34.7314 C230.9902,35.1204 227.0522,37.4254 224.8652,41.6624 C222.5532,46.1414 222.7262,51.3944 221.5412,56.1984 C221.0582,58.1544 220.0712,60.7734 220.5032,62.8034 C220.6782,63.6294 221.2212,63.9274 221.6442,64.6894 C222.2952,65.8634 222.2682,67.1454 222.4182,68.4404 C222.6562,70.4854 222.9222,71.5354 224.8242,72.4494 C225.6692,72.8554 226.2602,73.0634 226.8752,73.7974 C227.5542,74.6064 227.6042,75.4574 228.5772,75.7014 C229.4662,75.9244 231.0082,75.1844 231.9562,75.2134 C232.2372,75.2224 232.9662,74.8594 233.2032,74.9694 C233.0242,74.8864 233.8212,76.1014 233.9352,76.1994 C235.6842,77.6954 239.5802,77.4524 241.7142,77.1844 C244.1952,76.8724 245.6142,76.0164 247.0852,74.0874 C248.7452,71.9114 251.1322,71.5774 253.2132,69.9744 C255.1702,68.4664 255.6352,65.7324 256.3252,63.4714 C257.0872,60.9734 257.6272,58.2584 256.5822,55.7504 C257.1462,56.0324 260.1562,58.2664 260.1562,56.4534 M266.1912,54.0514 C266.1912,55.4164 265.5062,56.5584 264.0822,56.6294 C264.5242,58.0294 265.6262,59.0874 265.8012,60.5684 C265.9802,62.0894 265.2352,63.5294 264.6602,64.8914 C263.4912,67.6614 262.5602,70.4184 261.1562,73.1054 C259.7032,75.8854 258.1732,79.0044 256.0372,81.3354 C254.0102,83.5484 250.9212,82.9974 248.4192,84.4014 C245.4842,86.0474 244.4872,86.2594 241.5742,84.7684 C239.4172,83.6644 236.3292,85.3804 233.8632,85.5804 C230.8622,85.8244 227.9092,85.7734 225.3992,83.9084 C224.7422,83.4204 222.9722,80.9214 222.3632,80.8284 C221.1962,80.6504 220.1942,82.7624 219.0232,82.7624 C219.1752,80.0064 216.3262,83.4714 215.5402,83.6594 C213.8712,84.0584 213.4382,82.9214 213.6222,81.5944 C213.8332,80.0584 213.6552,78.8784 213.6332,77.3124 C213.6062,75.4704 214.0612,74.0384 213.5262,72.1894 C212.9992,70.3654 212.0472,68.5574 212.3432,66.6034 C212.5872,64.9974 213.5822,63.7444 213.2222,62.0494 C212.9392,60.7124 212.6642,59.8524 212.6772,58.3984 C212.6912,56.7654 212.2972,55.1724 212.3662,53.5434 C212.4622,51.2934 213.2242,49.2174 213.1432,46.9324 C213.0712,44.8564 212.6062,42.8224 212.5392,40.7464 C212.4782,38.8214 213.0942,37.3494 213.5522,35.5244 C214.5892,31.3894 212.7902,26.9164 212.5172,22.7544 C212.3082,19.5694 213.4312,15.2784 211.0822,12.6584 C208.3782,9.6424 203.9852,11.5994 201.0242,9.4154 C197.9272,7.1314 200.5872,3.2614 203.4112,2.4014 C207.4162,1.1804 211.7942,2.2344 215.8072,2.7824 C217.0652,2.9534 219.9942,2.5744 220.7222,3.7774 C221.3762,4.8584 220.3962,7.6724 220.3682,8.8904 C220.2872,12.4664 220.1342,16.0274 220.2892,19.6044 C220.4122,22.4164 220.1302,28.0454 222.1222,30.3044 C223.1352,31.4534 224.0742,30.8734 225.1762,30.0274 C226.5922,28.9394 227.4472,28.2154 229.2922,27.8154 C230.8772,27.4724 232.5172,27.6704 233.9942,27.0064 C235.4252,26.3634 236.3082,25.4604 238.0002,25.6994 C239.9152,25.9684 241.5352,27.2404 243.4572,27.5664 C245.2312,27.8674 247.1282,27.7444 248.7002,28.7684 C250.0782,29.6644 250.6142,30.1094 252.3042,30.4374 C254.1372,30.7934 255.3282,31.7984 256.7282,32.9864 C258.1462,34.1904 259.6112,35.5324 260.3432,37.2844 C261.0652,39.0104 261.2422,41.0274 261.7822,42.8274 C262.9392,46.6754 266.1912,49.9074 266.1912,54.0514" id="Fill-8" fill="#FF0000"></path>
            <path d="M338.6719,41.3948 C338.6719,44.1898 335.7689,45.6288 335.3319,48.2498 C331.9439,46.7488 327.6859,49.9308 324.7469,47.0868 C322.0259,44.4538 321.7449,39.0898 322.7929,35.7108 C321.3979,35.1898 321.5429,36.1178 320.4999,36.3558 C319.4159,36.6038 319.2669,35.8848 318.3179,35.7588 C315.9659,35.4468 312.9489,37.6498 311.4829,39.2738 C310.8219,40.0058 310.4259,41.2058 309.8519,41.6338 C309.1919,42.1268 307.6769,42.3608 306.8799,42.8258 C304.6819,44.1068 304.0559,45.9148 303.1639,48.1998 C302.2629,50.5098 300.5079,52.3058 299.6499,54.5838 C298.6159,57.3278 299.8069,60.0178 300.2959,62.7208 C301.0129,66.6898 298.0609,73.3748 302.9819,75.3858 C305.1379,76.2678 307.7849,75.9758 310.0489,75.8768 C311.1149,75.8308 312.4669,75.3888 312.9929,76.4558 C313.4799,77.4448 312.3039,78.5028 312.6559,79.4218 C313.1359,80.6718 313.9959,79.5358 314.8529,79.0708 C315.3639,78.7938 315.2149,77.6008 316.0879,78.8068 C316.3319,79.1448 316.2359,79.3248 316.2009,79.7008 C316.1429,80.3288 315.3459,81.6078 315.1469,82.2488 C315.0229,82.6478 315.4839,82.7448 315.1759,83.1358 C314.6859,83.7568 313.7759,83.7898 313.0479,83.7218 C311.1369,83.5408 310.1659,81.7018 308.2029,81.9998 C304.6189,82.5458 307.7119,84.3438 306.0939,85.6768 C304.5799,86.9248 300.4169,85.5948 298.7159,85.3068 C297.5379,85.1078 296.2769,84.9248 295.0779,84.9888 C293.8049,85.0568 292.7529,85.7418 291.5099,85.8738 C289.4419,86.0948 289.0939,84.1718 287.0739,84.1938 C284.3689,84.2238 281.8209,85.6358 279.0819,85.5748 C277.5089,85.5398 274.2169,84.8898 274.2769,82.7618 C274.3379,80.6268 277.5729,78.2998 279.4839,78.2648 C284.0799,78.1808 290.1219,77.9108 291.2589,72.1898 C291.7279,69.8288 291.1299,67.3238 291.5039,64.8908 C291.9839,61.7738 291.5499,59.1378 291.1549,56.0458 C290.4999,50.9078 291.6479,45.6888 290.8569,40.5458 C290.6129,38.9568 290.1899,36.1378 288.4259,35.4988 C286.4219,34.7728 283.3559,36.1118 281.1719,35.9388 C279.1789,35.7818 276.2469,35.3468 275.1369,33.4068 C274.0509,31.5098 274.9779,28.5558 276.9719,27.6988 C279.3609,26.6718 282.5189,27.4638 285.0539,27.3588 C287.7939,27.2458 290.4909,26.8168 293.2419,27.0658 C296.3649,27.3478 297.4329,28.1798 298.7989,30.9068 C300.0199,33.3448 301.4329,34.1158 303.7499,32.4298 C305.5609,31.1128 307.6569,30.6888 309.6059,29.5198 C312.1019,28.0238 313.9279,27.6438 316.7289,27.2148 C318.0049,27.0198 319.2849,26.7048 320.4849,26.2228 C321.4219,25.8458 322.3169,25.0778 323.2059,24.9168 C325.5309,24.4988 329.4699,26.6128 331.3799,27.8108 C333.9769,29.4378 335.0969,31.0748 335.8919,33.9208 C336.6019,36.4628 338.6719,38.6628 338.6719,41.3948" id="Fill-10" fill="#FF0000"></path>
            <path d="M391.6406,48.1331 C391.6406,46.6301 390.9016,45.1481 390.7156,43.6511 C390.4966,41.8851 390.6296,40.1361 390.1176,38.4061 C389.8466,40.5721 387.5426,38.6821 386.7186,38.1721 C384.8486,37.0161 382.4986,36.1331 380.4706,35.2821 C378.4046,34.4141 376.2776,33.7751 374.0476,33.4991 C373.2956,33.4061 369.0946,32.6641 370.1366,34.1881 C367.6576,34.8221 365.6666,35.1081 363.6036,36.7371 C362.6196,37.5131 361.7646,38.5051 360.6486,39.0911 C359.6736,39.6031 358.2866,39.6681 357.4036,40.3181 C356.1266,41.2581 354.1326,45.5061 354.7486,47.2321 C355.5846,49.5721 359.5296,50.2111 361.6176,50.5741 C367.0236,51.5161 372.0326,50.0231 377.4136,50.2161 C379.4996,50.2921 391.6406,52.1271 391.6406,48.1331 M400.4296,71.9221 C400.4296,76.2401 395.7066,80.0091 392.0216,81.5311 C390.0676,82.3391 388.2786,83.1801 386.4256,84.2051 C384.2676,85.3991 382.0876,85.6551 379.6826,86.0031 C377.2606,86.3531 374.5856,87.1401 372.1286,86.8631 C370.2726,86.6541 368.5786,85.8061 366.6796,85.6331 C364.5586,85.4391 363.7186,84.3411 362.0656,83.1761 C359.9736,81.7021 357.5426,80.8691 355.5346,79.2071 C351.6216,75.9721 349.0676,71.5211 347.4256,66.7771 C345.8046,62.0901 344.0636,56.5461 345.8936,51.6791 C346.4396,50.2281 346.4706,49.9571 346.2016,48.4561 C346.0616,47.6781 346.0316,46.9101 346.1196,46.1261 C346.3846,43.7491 347.3786,41.3221 348.3696,39.1681 C349.2386,37.2791 350.3496,34.7791 352.0366,33.4801 C352.5376,33.0951 353.6046,32.9251 353.9946,32.4591 C354.7976,31.4991 354.2186,30.5431 355.4886,29.7201 C357.3936,28.4851 360.3286,27.7471 362.4576,26.9061 C365.1206,25.8541 367.8836,25.0701 370.7276,24.7041 C376.2516,23.9931 380.6096,25.1051 385.0196,28.2111 C388.1476,28.6311 390.6956,31.0631 393.0766,33.0161 C394.8986,34.5101 396.5286,36.2361 396.0356,38.7581 L396.2696,38.4651 C397.1096,39.0981 397.0866,40.5061 397.4706,41.3511 C397.8696,42.2291 398.3886,42.4921 399.0646,43.1531 C399.2476,43.3321 399.6196,43.5081 399.7296,43.7581 C400.2156,44.8721 399.7106,44.0011 399.6386,44.9401 C399.5406,46.2061 399.7566,47.0081 400.0556,48.2391 C400.4696,49.9401 400.2516,51.7221 400.0906,53.4561 C399.8306,56.2591 398.0176,55.6691 396.2616,57.3101 C395.8626,57.6841 395.9466,58.2161 395.5116,58.4861 C394.8476,58.8991 393.0986,58.4791 392.3356,58.4011 C389.9296,58.1551 387.6356,57.3651 385.2076,57.2411 C380.3766,56.9931 375.6016,58.1051 370.7486,57.9291 C366.3196,57.7691 362.3316,57.8011 358.0036,58.9571 C355.6466,59.5861 354.6526,59.7461 355.0136,62.2961 C355.3466,64.6401 356.4836,66.8181 357.8666,68.7141 C360.2076,71.9231 363.5226,74.5111 367.1496,76.1161 C371.1486,77.8871 375.7066,77.4621 379.9456,78.1681 C383.3866,78.7411 387.5486,73.4521 389.8976,71.1611 C391.7346,69.3681 393.6756,69.1511 396.2406,68.9631 C397.0866,68.9011 398.0226,68.7651 398.8576,68.9891 C400.4456,69.4161 400.4296,70.2891 400.4296,71.9221" id="Fill-12" fill="#FF0000"></path>
            <path d="M453.5742,59.3245 C453.5742,58.1245 453.8372,54.2935 452.2262,53.9925 C451.1192,53.7855 448.7942,55.7215 447.8322,56.1895 C443.8322,58.1345 440.2412,57.8655 435.9762,58.4585 C433.9012,58.7475 431.8302,59.2325 429.7842,59.6765 C428.4402,59.9685 426.5872,60.0815 425.3832,60.8485 C424.5402,61.3855 424.4832,62.2405 423.8522,62.9065 C423.1712,63.6255 422.3232,63.8715 421.5452,64.4375 C420.1192,65.4735 418.9162,67.3975 418.6202,69.1135 C417.0982,77.9095 433.0712,78.5465 438.4282,77.8105 C440.8982,77.4715 443.5882,76.9555 445.7662,75.6765 C447.5352,74.6375 447.9462,73.2905 449.0922,71.7465 C450.2452,70.1925 451.6432,69.3635 452.4682,67.4955 C453.6002,64.9255 453.5742,62.0775 453.5742,59.3245 M472.8512,73.9145 C472.8512,75.7665 471.7192,79.7705 470.2212,80.9095 C468.1882,82.4565 464.8862,84.0045 462.3332,84.1375 C459.6452,84.2785 457.5452,82.8625 455.4812,81.3055 C453.2812,79.6455 452.2072,78.2615 449.7212,80.0745 C447.6282,81.6015 445.4532,81.5945 443.0862,82.5565 C440.1552,83.7485 437.5202,84.5665 434.3262,84.7545 C432.4002,84.8665 418.7312,85.8055 420.1172,81.6485 C417.0562,85.1525 413.0702,78.5165 411.7492,76.3145 C410.8362,74.7915 409.9742,73.4225 410.3942,71.6735 C410.6112,70.7675 410.9472,70.4115 410.8672,69.4255 C410.7822,68.3855 410.4322,67.4635 410.5532,66.3985 C410.9222,63.1445 413.6012,57.7255 416.3152,55.8775 C417.9232,54.7825 419.8872,54.0665 421.6182,53.1915 C422.1962,52.8985 422.3212,52.6005 422.8142,52.6285 C423.0122,52.6395 423.3362,53.1225 423.5892,53.1575 C424.7182,53.3165 425.6362,53.4275 426.7902,53.2115 C428.9612,52.8035 430.6342,52.4495 432.8612,52.7625 C434.6182,53.0085 436.1812,53.2145 437.7262,52.2135 C439.6492,50.9685 441.1112,50.1285 443.4252,49.6665 C445.7632,49.1995 448.5502,49.1175 450.5932,47.7455 C454.5672,45.0765 451.7642,39.6575 449.3662,36.9145 C446.7422,33.9145 443.4302,31.9865 439.4312,32.4795 C436.0922,32.8915 430.7962,32.5825 430.1202,36.9455 C429.5332,40.7415 431.9232,44.3845 427.7852,46.9465 C424.9842,48.6815 419.0142,49.5245 416.8062,46.5035 C415.5762,44.8205 414.3032,42.2775 414.2582,40.1645 C414.2052,37.6395 415.6412,35.3505 416.7692,33.1915 C417.3112,32.1525 417.6862,31.0755 418.1792,30.0245 C418.7262,28.8575 418.5662,28.9005 419.9412,28.4455 C421.9252,27.7895 423.9742,27.3915 425.9372,26.6615 C429.5592,25.3155 432.9222,24.0145 436.8392,23.9955 C445.1632,23.9545 455.4402,27.4515 458.6482,35.8485 C460.5152,40.7375 460.5722,46.1035 460.3092,51.2605 C460.0402,56.5465 460.4082,61.5525 461.1522,66.7835 C461.5032,69.2445 461.7632,71.6885 461.8842,74.1715 C461.9872,76.2965 462.5882,78.2145 464.9122,76.3455 C466.5532,75.0265 467.0502,72.4775 469.3192,72.0265 C470.6812,71.7555 472.8512,72.1995 472.8512,73.9145" id="Fill-14" fill="#FF0000"></path>
            <path d="M545.332,81.9417 C545.332,83.3097 544.263,83.3957 543.691,84.4027 C543.554,84.6447 543.533,85.0997 543.398,85.2817 C543.626,85.7347 543.505,85.9437 543.038,85.9077 C542.755,85.9797 542.47,86.0407 542.183,86.0897 C540.06,86.7517 536.956,86.8877 534.746,86.6847 C534.175,86.6317 533.694,86.6187 533.159,86.3657 C532.643,86.1207 532.057,85.0757 531.797,84.9887 C531.238,84.8007 529.195,85.5547 528.603,85.7507 C527.631,86.0717 526.71,87.2897 525.937,87.5077 C525.279,87.6947 523.261,87.0057 522.615,86.9057 C518.723,86.3007 512.583,85.8177 513.428,80.5877 C513.526,79.9767 513.7,78.4147 514.299,78.0457 C514.987,77.6207 515.662,78.2747 516.35,78.3087 C516.984,78.3397 517.426,78.5537 517.603,77.9577 C517.992,76.6397 515.761,76.6687 515.098,76.6687 C516.861,74.9027 516.453,71.6447 515.853,69.4617 C515.495,68.1607 514.914,66.8167 514.048,65.7667 C513.18,64.7157 512.121,64.3567 511.377,63.3457 C509.857,61.2847 508.624,58.5697 505.518,59.6027 C502.837,60.4947 500.228,63.3537 498.434,65.4307 C496.667,67.4737 497.561,68.1167 497.292,70.5237 C497.149,71.8047 495.782,72.8737 496.055,73.9727 C496.337,75.1087 497.992,75.5897 498.915,75.8117 C500.227,76.1267 501.497,76.0287 502.639,76.7127 C503.63,77.3047 504.7,78.3367 505.353,79.2797 C507.63,82.5747 502.327,80.7567 503.379,83.3477 C499.157,83.5247 495.207,84.7417 491.055,85.2747 C489.555,85.4667 488.026,85.3677 486.52,85.4247 C484.684,85.4937 482.765,86.1307 480.937,85.8677 C477.506,85.3727 474.496,81.5567 475.574,78.0657 C476.005,76.6707 477.193,75.4267 478.784,75.8997 C479.222,76.0287 479.308,76.7057 479.883,76.6687 C480.46,76.6307 480.95,75.3337 481.428,75.0207 C482.625,74.2357 484.02,74.3617 485.168,73.3077 C486.833,71.7747 487.322,69.4107 487.493,67.2427 C487.627,65.5457 487.285,64.0827 487.104,62.4217 C486.904,60.5857 487.432,59.1077 487.831,57.3527 C488.839,52.9297 487.488,48.2117 487.5,43.7387 C487.511,39.6567 488.338,36.0437 487.098,32.0927 C486.626,30.5917 486.732,29.5687 487.09,28.0357 C487.595,25.8707 487.249,24.4277 486.816,22.2807 C486.173,19.0847 488.404,14.9727 485.373,12.5657 C482.606,10.3707 477.892,12.1397 475.494,9.6267 C472.713,6.7087 476.899,3.1107 479.603,2.5487 C483.249,1.7907 487.186,3.1127 490.675,4.2007 C491.596,4.4887 492.926,4.7407 493.579,5.5057 C494.534,6.6257 494.435,9.1867 494.582,10.5957 C494.965,14.2577 495.536,18.3037 495.124,21.9837 C494.902,23.9577 494.13,25.7057 494.266,27.7357 C494.391,29.6057 495.079,31.3757 495.234,33.2507 C495.657,38.3577 495.09,43.5017 495.447,48.6167 C495.586,50.6147 495.273,53.3237 497.991,52.3567 C500.002,51.6417 500.799,49.2967 502.422,48.0637 C504.177,46.7307 505.607,46.0217 507.002,44.1977 C508.252,42.5617 509.345,40.8137 511.141,39.7267 C513.201,38.4807 513.595,37.6717 512.919,35.1437 C512.442,33.3627 511.51,31.7587 511.758,29.8517 C511.827,29.8717 512.36,29.9717 512.402,29.9107 C512.515,29.7467 512.889,29.9387 513.105,29.6177 C513.152,29.5477 512.811,29.0017 512.849,28.8407 C513.26,27.0847 514.081,27.0677 515.957,27.4827 C517.98,27.9287 519.402,28.4307 521.474,27.8087 C523.7,27.1397 525.457,26.3097 527.854,26.6267 C529.854,26.8907 531.672,27.4807 533.721,27.2587 C535.603,27.0557 537.5,26.1007 539.414,26.4827 C540.792,26.7577 541.818,27.4927 541.875,28.6657 C541.894,29.0687 541.363,29.1147 541.436,29.6617 C541.48,29.9987 541.758,30.1227 541.896,30.3937 C542.193,30.9717 542.856,31.3457 543.039,32.0087 C543.866,35.0097 536.622,36.1037 534.555,36.4557 C533.032,36.7147 532.099,36.6597 530.654,36.2677 C528.627,35.7167 527.422,36.2617 525.535,37.4037 C522.299,39.3617 519.294,41.9677 516.811,44.8157 C514.862,47.0507 512.061,52.1267 514.849,54.6147 C515.692,55.3687 516.84,55.7407 517.58,56.6297 C518.133,57.2917 518.451,58.1927 518.9,58.9277 C520.166,60.9967 521.73,62.9097 523.191,64.8397 C525.402,67.7627 529.428,71.8567 529.277,75.7897 C531.484,75.3047 533.727,75.0967 535.984,75.1577 C537.64,75.2027 540.769,74.9367 542.167,75.7317 C542.957,76.1807 542.474,76.9147 542.819,77.9777 C543.281,79.3997 545.332,80.4407 545.332,81.9417" id="Fill-16" fill="#FF0000"></path>
            <path d="M67.3438,151.2503 C67.3438,153.6143 65.6538,155.8553 65.0198,158.0863 C64.2218,160.8953 62.6408,162.8553 60.4988,164.8133 C58.8698,166.3023 56.8708,168.5983 54.9558,169.6613 C53.0718,170.7083 51.0178,169.4073 49.0488,170.3613 C48.2288,170.7593 47.6228,171.4133 46.7398,171.7163 C45.7718,172.0483 44.7418,171.9453 43.7678,172.2623 C41.0508,173.1473 40.0688,172.2783 37.3938,171.7243 C35.2578,171.2813 33.1208,171.8623 30.9768,171.7583 C27.9918,171.6123 25.4238,169.4723 22.3878,169.8163 C18.0358,170.3123 16.2218,176.8113 11.9288,176.3823 C9.6598,176.1543 10.3768,174.5043 9.6648,172.8953 C9.2398,171.9323 8.2618,171.3133 7.8708,170.2883 C7.3328,168.8763 7.5068,167.1653 7.5938,165.6933 C7.9038,160.4503 9.6538,155.5213 7.5938,150.4303 C6.8128,148.5003 6.6528,147.3113 8.2038,145.6193 C9.8648,143.8083 10.8028,145.0123 12.5198,145.9793 C13.1348,146.3243 14.2858,146.3353 14.7068,146.6023 C15.5508,147.1363 16.0668,149.5493 16.3488,150.4373 C17.1758,153.0353 17.8638,155.9223 19.5728,158.1153 C20.6888,159.5463 22.7298,161.3233 24.4478,161.9823 C25.5988,162.4243 30.0278,161.1303 29.3358,163.2133 C31.5458,163.2303 33.6558,163.0093 35.8298,162.5983 C39.3178,161.9383 41.7998,162.1393 45.1688,162.7693 C46.0918,162.9413 46.0468,163.2323 47.0638,162.5033 C47.6698,162.0683 48.1388,161.5413 48.6588,161.0073 C49.6408,159.9983 50.5878,158.8363 51.8258,158.1203 C52.7198,157.6043 54.3838,157.6543 54.8938,156.8903 C55.4898,155.9963 55.0278,154.4873 55.6548,153.4383 C56.4798,152.0553 57.2818,151.4933 57.0258,149.6583 C56.8258,148.2293 56.0628,146.9633 55.1508,145.8733 C53.3838,143.7623 50.9568,142.3133 48.4828,141.1783 C43.2178,138.7613 36.7408,137.2093 31.2498,139.8343 C31.2498,136.2783 26.6438,137.7763 25.4398,134.9123 C22.9488,138.1343 17.9878,138.5753 14.6528,136.5133 C12.9048,135.4323 11.4908,133.7713 10.7998,131.8233 C10.1578,130.0143 10.2928,128.2193 9.4258,126.4533 C7.7038,122.9423 7.1108,119.2893 8.3918,115.4303 C9.0468,113.4603 10.2688,113.1233 11.6818,111.7993 C13.0518,110.5153 12.7358,108.2533 14.3138,107.3473 C15.1438,106.8703 15.8468,107.1763 16.5358,106.4403 C17.0498,105.8923 17.0428,105.2413 17.6468,104.6973 C19.0978,103.3893 21.5798,103.2883 23.3888,103.2623 C27.6708,103.1993 31.9078,102.9563 36.1868,102.8133 C38.4958,102.7363 40.7288,102.8463 42.9628,103.4563 C44.8478,103.9733 46.6268,105.1573 48.5188,105.5433 C50.3408,105.9153 51.9958,104.3373 53.6718,104.6973 C54.7508,104.9303 57.2378,107.3293 57.5688,104.6973 C62.5888,106.1353 62.7758,111.5863 62.2498,115.7843 C61.9158,118.4523 61.6038,121.1353 61.9848,123.8173 C62.2178,125.4583 62.7338,125.7953 61.4858,126.8673 C60.4958,127.7173 59.3438,127.9843 58.5258,129.1023 C57.7378,128.4023 56.9628,127.6823 56.1408,127.0213 C55.0718,126.1603 53.8878,125.8763 52.8518,125.2053 C51.6438,124.4243 52.0458,124.0263 52.3048,122.8133 C52.5988,121.4353 52.8278,121.5233 51.7708,120.2453 C49.9128,117.9993 48.0648,117.0763 45.5028,115.9423 C42.9588,114.8163 41.6108,115.2103 39.1118,115.4303 C38.1048,115.3173 37.0918,115.2303 36.0878,115.0943 C33.4708,114.7373 31.0738,113.5383 28.4608,113.2563 C26.0378,112.9943 24.3558,113.4343 22.9478,115.5143 C21.9358,117.0103 21.0878,120.1603 18.6038,119.3263 C19.3588,121.7473 20.1088,124.2893 21.7048,126.3083 C23.3478,128.3843 25.7758,129.8453 27.8318,131.4603 C30.1008,133.2423 32.4878,131.0073 35.1808,131.6653 C36.7468,132.0483 37.5448,131.7283 39.0768,131.5033 C40.7198,131.2623 42.3058,131.9353 43.9308,132.0793 C47.3378,132.3823 50.5808,131.7783 53.8188,133.1843 C56.3278,134.2723 58.4368,135.9793 60.2068,138.0423 C61.7688,139.8633 63.9378,141.4703 65.1368,143.5633 C66.2768,145.5543 67.3438,148.9533 67.3438,151.2503" id="Fill-18" fill="#000000"></path>
            <path d="M138.6426,161.9144 C138.6426,160.0354 135.9986,161.2894 136.4546,162.4614 C136.7736,163.2804 138.6426,162.8314 138.6426,161.9144 M143.5646,158.0864 C143.5646,158.9974 142.6716,159.1664 142.0606,159.5904 C141.1756,160.2034 140.5296,160.8304 139.9416,161.7434 C138.6736,163.7124 138.1296,165.4634 135.8056,166.4264 C133.7816,167.2654 131.2996,167.4024 129.5166,168.7844 C128.6916,169.4244 128.5636,170.1124 128.0176,170.9174 C127.2546,172.0434 127.8776,171.4794 125.9946,171.8424 C123.4276,172.3344 121.2466,174.0164 118.7656,174.7804 C116.1646,175.5834 114.6776,174.6374 112.3076,173.8164 C110.3076,173.1254 98.7566,174.8934 100.4976,169.7074 C98.9736,171.2314 95.7326,169.7164 94.2726,168.8444 C92.2356,167.6284 90.5676,165.9434 88.9796,164.2044 C87.5406,162.6294 85.8426,161.1374 84.7196,159.3094 C83.4746,157.2834 82.5336,154.9894 81.3806,152.8974 C79.0656,148.6954 78.5376,144.1664 78.3836,139.4354 C78.3406,138.1154 78.2186,136.6664 78.4526,135.3564 C78.7506,133.6854 79.1976,133.9194 80.3666,132.9644 C82.3076,131.3784 79.9176,129.9714 80.4096,127.8544 C80.7626,126.3314 81.8866,124.9414 82.2806,123.3254 C82.9026,120.7694 83.1706,117.7694 84.5366,115.4644 C85.8066,113.3184 87.1376,114.0764 89.2526,114.3364 C90.3716,114.4744 93.1366,114.2614 91.3036,112.6274 C90.3796,111.8044 87.1326,112.5974 89.3896,110.4574 C90.4366,109.4654 91.7536,109.5934 92.7046,108.2864 C93.6736,106.9564 93.7676,106.3164 95.5076,105.8594 C97.9996,105.2054 100.6656,105.8214 103.1636,105.1074 C101.4976,104.1924 103.9226,103.1094 104.8386,102.8514 C106.7706,102.3084 109.1596,102.5224 111.0936,102.8864 C113.2226,103.2854 115.2456,103.9434 117.4466,103.7794 C120.1816,103.5744 121.7216,103.1574 124.2646,104.5154 C124.7766,104.7894 125.4886,105.4324 126.0646,105.4324 C126.7476,105.4334 127.0486,104.6784 127.5686,104.6124 C128.5376,104.4894 128.5416,105.1734 129.2556,105.6334 C130.1816,106.2284 131.0606,106.5634 131.9266,107.2304 C132.6746,107.8084 133.0896,108.1484 133.9946,108.4574 C134.6536,108.6834 135.7726,108.5834 136.2756,109.1494 C136.8846,109.8354 136.5436,111.0264 137.1316,111.9364 C138.1656,113.5394 140.0486,114.4494 141.2746,115.8744 C142.4386,117.2264 142.9466,118.7624 143.1296,120.5134 C143.5276,124.3004 143.3086,129.4284 140.3926,132.2504 C137.8386,134.7234 134.1956,134.7364 130.8736,134.6854 C130.1476,134.6744 128.5476,134.9654 127.8856,134.6404 C126.7276,134.0704 125.3996,130.7704 124.7316,129.6574 C123.6766,127.8984 122.0096,125.6834 121.6706,123.6094 C121.2646,121.1334 122.6886,119.0424 120.6986,116.9344 C117.6546,113.7104 110.9976,114.7394 107.3336,116.1134 C107.3336,111.7804 100.0676,117.4784 98.9066,118.5294 C95.8416,121.3024 94.6596,125.3114 91.8916,128.2974 C91.5386,128.6774 89.9196,129.5754 89.8336,129.7854 C89.6146,130.3214 90.3686,132.2784 90.4636,132.7564 C90.8606,134.7274 91.1656,136.7164 91.4216,138.7094 C91.7006,140.8864 91.7886,142.8954 92.3786,145.0184 C93.0316,147.3704 92.3686,149.0594 92.1926,151.3644 C92.0036,153.8434 93.1316,153.3554 94.6436,154.5964 C96.0556,155.7554 95.8236,158.3304 97.6836,158.9754 C98.9116,159.4004 99.1256,158.5624 100.0156,159.7344 C100.7556,160.7084 100.5136,164.5334 102.1386,163.4864 C102.9146,162.9864 102.4916,162.1514 103.6386,161.9484 C104.5716,161.7834 105.0306,162.2404 105.6756,162.7604 C107.4616,164.1994 107.6066,164.9014 110.1956,164.2604 C112.5046,163.6864 114.6886,162.6034 116.8896,161.7254 C118.9436,160.9024 121.0756,160.3624 123.0326,159.2994 C125.1116,158.1694 126.7176,156.7244 128.0276,154.7554 C128.6186,153.8674 129.1486,153.0014 129.8086,152.1624 C130.2986,151.5384 130.9806,150.1014 131.5706,149.6184 C132.1396,149.1514 136.6506,148.5384 137.1556,149.5754 C137.8726,151.0464 134.6096,151.5774 134.6096,153.1644 C137.0986,152.7744 143.5646,155.0264 143.5646,158.0864" id="Fill-20" fill="#000000"></path>
            <path d="M195.791,86.3772 C195.791,90.4282 193.821,94.9522 190.288,97.1442 C186.83,99.2902 181.837,98.0322 178.425,96.3472 C174.123,94.2232 173.834,91.6562 174.513,87.2732 C174.64,86.4522 174.527,84.8972 174.873,84.1892 C175.081,83.7642 176.108,83.0942 176.466,82.6612 C177.395,81.5362 178.563,78.8172 180.205,78.6522 C180.091,78.6982 179.977,78.7442 179.863,78.7892 C183.024,77.4342 185.977,77.7732 189.071,79.1952 C191.794,80.4462 195.791,82.9452 195.791,86.3772 M228.877,169.5702 C228.877,171.8222 227.438,173.9222 225.391,174.8342 C222.723,176.0232 221.742,173.8702 219.255,173.4442 C216.389,172.9532 213.891,173.0762 212.145,170.4562 C210.482,167.9602 208.925,167.9392 205.908,168.4422 C200.137,169.4072 195.233,173.2162 189.459,174.1852 C187.792,174.4642 186.066,174.5002 184.39,174.2872 C183.161,174.1312 181.751,173.3382 180.584,173.2842 C179.738,173.2452 178.547,173.6332 177.505,173.6722 C176.626,173.7052 175.981,173.7292 175.146,174.1502 C176.912,175.8182 167.227,177.7842 165.99,177.9022 C161.327,178.3492 159.26,175.5072 156.373,172.3522 C154.97,170.8182 153.543,168.6402 155.596,167.0412 C157.462,165.5872 160.619,165.2322 162.902,165.1472 C164.843,165.0732 166.554,165.6502 168.447,165.9042 C171.017,166.2502 173.301,165.2462 175.83,165.1952 C179.161,165.1282 186.569,166.7922 187.259,161.9822 C187.939,157.2442 188.273,152.3442 187.994,147.5592 C187.854,145.1502 187.376,142.7922 187.151,140.3942 C187.061,139.4392 186.714,138.0282 186.978,137.0912 C187.224,136.2182 187.59,136.4062 187.861,135.5962 C188.436,133.8782 186.952,131.0032 187.071,129.1072 C187.217,126.7832 188.301,124.5602 187.937,122.1972 C187.079,116.6192 181.796,115.7312 177.237,116.9632 C172.266,118.3062 168.27,118.6902 163.156,117.8632 C159.435,117.2622 153.729,117.4482 154.775,112.1242 C155.692,107.4552 160.705,107.5132 164.495,107.2142 C169.909,106.7882 175.211,106.6212 180.622,107.1822 C185.154,107.6512 190.257,106.8382 194.003,110.0032 C197.399,112.8712 198.611,118.2272 196.851,122.3002 C196.456,123.2132 195.37,124.1612 195.128,125.0572 C194.857,126.0602 195.516,126.2622 196.252,126.8982 C197.306,127.8072 197.358,127.7912 197.637,129.1702 C197.725,129.6052 197.681,129.9862 197.808,130.4352 C197.942,130.9082 198.66,130.9982 198.73,131.2212 C199.112,132.4322 198.717,134.6672 198.702,135.9242 C198.683,137.4682 198.649,139.0112 198.628,140.5552 C198.591,143.2992 198.587,146.0442 198.602,148.7892 C198.623,152.5592 197.457,161.4872 202.776,161.9622 C208.22,162.4482 213.974,158.9702 219.123,161.7992 C221.294,162.9922 223.237,164.9772 225.535,165.8952 C227.873,166.8272 228.877,166.5592 228.877,169.5702" id="Fill-22" fill="#000000"></path>
            <path d="M288.8965,130.1273 C288.8965,128.1543 287.9345,126.2563 287.7505,124.2743 C287.5785,122.3983 287.6615,120.6113 287.1195,118.7793 C286.5555,121.3313 283.8865,118.9673 282.7285,118.3143 C280.4905,117.0533 277.9275,115.9803 275.5525,115.0033 C273.1945,114.0323 270.7465,113.3213 268.2065,113.0293 C267.3135,112.9273 262.6035,112.1213 263.8085,113.8573 C261.4475,114.4883 259.1875,114.6713 257.1185,116.1113 C256.0685,116.8433 255.1745,117.7653 254.1705,118.5543 C252.8335,119.6063 251.5735,119.9633 250.0175,120.5653 C247.7575,121.4393 246.0915,125.1223 245.8195,127.5403 C245.4625,130.7073 248.8485,131.7263 251.3505,132.4133 C254.2615,133.2133 257.4095,133.5833 260.4305,133.5353 C264.0705,133.4773 267.5705,132.4743 271.2325,132.5293 C273.7335,132.5673 288.8965,134.9263 288.8965,130.1273 M299.1505,157.8813 C299.1505,162.9403 293.6685,167.3043 289.3405,169.0923 C287.0545,170.0363 284.9745,170.9943 282.8125,172.2113 C280.2895,173.6313 277.6815,173.9133 274.8535,174.3233 C272.2625,174.6993 269.6745,175.2773 267.0445,175.2993 C264.7065,175.3183 262.5285,174.1523 260.1875,173.8913 C257.3415,173.5713 256.5545,172.4993 254.2835,170.8993 C251.9735,169.2733 249.2765,168.3873 247.0305,166.5853 C242.3655,162.8443 239.3015,157.5983 237.3595,152.0143 C235.5145,146.7093 233.5025,140.4433 235.3135,134.8703 C235.7535,133.5133 236.2505,132.8013 236.0975,131.4353 C235.9555,130.1613 235.6505,129.0973 235.7885,127.7863 C236.0785,125.0183 237.2605,122.1743 238.4135,119.6683 C239.4005,117.5223 240.5865,114.9363 242.3675,113.3183 C243.0645,112.6863 244.4095,112.4863 244.9755,111.8413 C245.6585,111.0623 245.2435,109.9853 246.0005,109.1413 C246.9825,108.0463 248.9575,107.8533 250.2645,107.3633 C251.6135,106.8593 252.8905,106.1663 254.2225,105.6163 C257.0985,104.4313 260.0935,103.4943 263.1665,102.9833 C266.2275,102.4743 269.7795,102.0373 272.8285,102.7373 C275.7715,103.4143 278.9045,105.2513 281.1715,106.8853 C284.6415,107.3513 287.1395,109.8463 289.8325,111.9163 C292.2045,113.7393 294.6715,115.9063 294.0235,119.1893 C294.1145,119.0753 294.2055,118.9623 294.2965,118.8483 C295.6135,119.8393 295.2815,122.0203 296.2075,123.2313 C296.7545,123.9463 297.9175,124.2213 298.3335,125.0233 C298.8075,125.9383 298.0435,126.5983 298.0835,127.7783 C298.1575,130.0143 299.0705,131.8203 298.9155,134.1783 C298.7255,137.0573 298.9865,138.3623 296.2455,139.7663 C295.8685,139.9583 294.9295,140.2503 294.5705,140.5863 C294.2725,140.8643 294.0005,141.5913 293.8185,141.7483 C293.2175,142.2653 293.0105,142.2163 292.1095,142.2273 C289.1955,142.2613 286.5025,141.4053 283.6555,140.9833 C277.9535,140.1413 272.2585,141.6623 266.5435,141.6063 C261.7475,141.5593 257.2935,141.1823 252.5495,142.1033 C251.0325,142.3983 247.6335,142.6743 246.5095,143.8313 C245.0935,145.2893 246.6465,149.0433 247.4165,150.6883 C249.4745,155.0833 253.1885,158.7083 257.3065,161.1923 C259.5525,162.5483 261.9885,163.6593 264.5875,164.1153 C267.3175,164.5953 270.1175,164.2503 272.8615,164.6413 C273.8725,164.7843 275.3985,165.6383 276.3185,165.5373 C277.6505,165.3913 279.4435,163.6983 280.4645,162.8973 C282.7535,161.1013 284.7835,159.0213 286.8625,156.9923 C288.8435,155.0613 290.8035,154.7943 293.4995,154.5053 C294.6025,154.3873 295.7175,154.2593 296.8255,154.3803 C299.0725,154.6253 299.1505,155.7043 299.1505,157.8813" id="Fill-24" fill="#000000"></path>
            <path d="M377.1484,157.7444 C377.1484,157.0954 376.4854,156.6944 375.9864,156.4454 C375.4644,157.9974 372.2194,160.1644 375.0294,161.3674 C375.2574,159.9774 377.1484,159.2684 377.1484,157.7444 M375.9864,144.6194 C375.9864,141.7134 372.4304,142.5364 373.1154,145.4234 C373.6954,147.8734 375.8754,146.5434 375.9864,144.6194 M331.6894,143.0474 C331.6894,141.2784 330.6524,138.6444 328.5274,139.1254 C326.8944,139.4944 325.8474,139.9734 326.1524,141.7484 C326.1754,141.6804 326.1974,141.6114 326.2204,141.5434 C326.7804,143.5984 329.7574,143.5494 331.1424,144.7564 C331.5464,144.3014 331.6894,143.6374 331.6894,143.0474 M390.7524,170.3904 C390.7524,172.9354 387.8954,173.4614 385.8984,173.4674 C384.4134,173.4714 382.8754,172.9774 381.4384,173.1774 C380.3294,173.3324 379.1914,173.9004 378.0914,174.1604 C375.8964,174.6784 373.8484,174.1064 371.7004,174.6074 C368.9604,175.2474 366.9884,175.0234 364.2344,174.4314 C361.9424,173.9354 359.4724,174.1334 357.5174,172.6294 C356.0514,171.5014 354.4754,169.0174 354.5924,167.0824 C354.8394,163.0104 366.1774,163.9424 369.1504,164.2384 C368.8164,155.8894 366.9624,147.6024 367.7474,139.2194 C368.0694,135.7664 369.9234,132.2254 369.5224,128.7564 C369.3494,127.2624 368.5684,126.1374 368.0484,124.7724 C367.3814,123.0224 367.5504,121.0554 366.7574,119.3264 C365.3314,116.2174 361.6454,115.6254 358.5544,115.7034 C355.4504,115.7824 350.7874,116.3594 348.1524,118.1454 C346.9564,118.9564 346.1884,120.3394 345.1644,121.3434 C344.0244,122.4624 342.8294,122.1644 341.6524,122.9844 C340.6874,123.6574 340.4384,124.8784 339.8924,125.8814 C339.5974,126.4224 339.3914,127.1354 338.7304,127.3244 C338.0564,127.5174 337.7844,126.2134 337.0214,127.2564 C336.7124,127.6784 337.2834,128.7104 337.0214,129.1704 C336.6164,129.8834 335.9314,129.4164 335.5514,129.8534 C334.9744,130.5174 335.3224,130.6174 335.1074,131.4944 C334.7464,132.9704 333.8794,133.9644 333.3304,135.3564 C332.5354,137.3694 333.5234,139.1754 333.6984,141.1904 C333.9524,144.1274 331.2454,145.6664 332.2704,148.6184 C332.9004,150.4334 334.1334,151.8444 334.2184,153.8484 C334.2994,155.7604 333.4054,157.5894 333.7214,159.5174 C334.3354,163.2664 339.1444,162.6564 341.5854,164.7784 C342.0844,165.2114 342.5604,165.9364 343.0374,166.1864 C343.4674,166.4124 344.0214,166.1884 344.5174,166.5784 C346.1214,167.8334 345.2594,169.7934 344.8604,171.2954 C344.4274,172.9184 344.6764,173.3684 342.9004,174.0144 C341.3444,174.5794 339.6044,174.7854 337.9714,174.9834 C334.4844,175.4044 330.9894,175.4204 327.4844,175.2954 C323.9934,175.1714 320.4234,175.0234 316.9924,174.3214 C313.5504,173.6174 309.6864,171.1894 311.2734,166.9274 C312.7664,162.9144 316.6444,164.1094 319.8294,163.3154 C323.3564,162.4354 323.6244,158.0294 323.6814,155.0164 C323.7324,152.2924 322.1454,149.0534 323.2304,146.5254 C323.8044,145.1854 324.4504,144.3134 324.2574,142.7594 C323.9894,140.6074 323.3454,139.4054 323.7594,137.1684 C323.9314,136.2444 324.2114,135.5474 323.9994,134.5884 C323.8194,133.7764 323.3194,133.2614 323.2814,132.3834 C323.2074,130.7014 323.9194,129.2014 323.7254,127.4354 C323.3664,124.1714 322.9544,119.7124 319.9224,117.8144 C317.1104,116.0534 313.2224,116.5134 310.9874,113.7674 C308.7534,111.0244 309.2074,106.7574 312.5764,105.3284 C315.8014,103.9604 320.0094,104.3084 323.3154,105.0734 C325.1114,105.4894 327.3354,105.4854 328.9554,106.3724 C331.0354,107.5124 331.6744,109.4124 332.0994,111.5584 C332.3904,113.0314 332.8204,114.6104 333.4854,115.9624 C334.5264,118.0774 334.7294,117.1804 335.5854,115.7714 C337.1994,113.1194 340.8194,112.3464 342.5244,109.7224 C343.3804,108.4044 343.3604,108.3124 344.8144,107.7734 C345.7214,107.4374 346.2304,107.3514 347.0924,106.6724 C350.1844,104.2344 353.0604,103.5224 356.9684,103.5394 C361.4894,103.5584 366.2404,103.6774 370.1414,106.2694 C371.9194,107.4504 373.0334,109.0234 374.2174,110.7564 C375.1424,112.1104 376.4774,113.3854 377.0904,114.9214 C377.7244,116.5074 377.4624,118.1564 377.6274,119.8054 C377.8444,121.9924 379.2774,123.6264 379.7304,125.7374 C380.1634,127.7514 379.7964,129.9834 379.6094,132.0074 C379.4144,134.1224 379.5734,136.3694 379.1734,138.4504 C378.7944,140.4214 377.7084,142.1784 378.1394,144.2614 C378.5944,146.4564 378.7354,147.6174 378.4314,149.8904 C378.1714,151.8424 379.0674,152.7954 379.2794,154.5544 C379.4864,156.2804 377.9114,156.8434 377.7634,158.4284 C377.4084,162.2534 381.9134,164.7354 385.0444,163.9314 C388.6384,163.0074 390.7524,167.0804 390.7524,170.3904" id="Fill-26" fill="#000000"></path>
            <path d="M459.5215,161.9144 C459.5215,160.0354 456.8775,161.2894 457.3335,162.4614 C457.6535,163.2804 459.5215,162.8314 459.5215,161.9144 M464.4435,158.0864 C464.4435,158.9974 463.5505,159.1664 462.9395,159.5904 C462.0545,160.2034 461.4085,160.8304 460.8205,161.7434 C459.5515,163.7124 459.0085,165.4634 456.6845,166.4264 C454.6605,167.2654 452.1785,167.4024 450.3955,168.7844 C449.5705,169.4244 449.4425,170.1124 448.8965,170.9174 C448.1335,172.0434 448.7565,171.4794 446.8735,171.8424 C444.3065,172.3344 442.1255,174.0164 439.6435,174.7804 C437.0425,175.5834 435.5565,174.6374 433.1855,173.8164 C431.1855,173.1254 419.6355,174.8934 421.3765,169.7074 C419.8525,171.2314 416.6125,169.7164 415.1525,168.8444 C413.1145,167.6284 411.4465,165.9434 409.8585,164.2044 C408.4195,162.6294 406.7215,161.1374 405.5975,159.3094 C404.3535,157.2834 403.4135,154.9894 402.2595,152.8974 C399.9445,148.6954 399.4165,144.1664 399.2625,139.4354 C399.2195,138.1154 399.0975,136.6664 399.3315,135.3564 C399.6295,133.6854 400.0765,133.9194 401.2455,132.9644 C403.1865,131.3784 400.7955,129.9714 401.2885,127.8544 C401.6415,126.3314 402.7655,124.9414 403.1595,123.3254 C403.7825,120.7694 404.0495,117.7694 405.4155,115.4644 C406.6855,113.3184 408.0165,114.0764 410.1315,114.3364 C411.2505,114.4744 414.0145,114.2614 412.1825,112.6274 C411.2585,111.8044 408.0105,112.5974 410.2685,110.4574 C411.3155,109.4654 412.6325,109.5934 413.5835,108.2864 C414.5525,106.9564 414.6465,106.3164 416.3865,105.8594 C418.8775,105.2054 421.5445,105.8214 424.0425,105.1074 C422.3755,104.1924 424.8015,103.1094 425.7175,102.8514 C427.6495,102.3084 430.0385,102.5224 431.9725,102.8864 C434.1015,103.2854 436.1245,103.9434 438.3265,103.7794 C441.0605,103.5744 442.5995,103.1574 445.1425,104.5154 C445.6555,104.7894 446.3685,105.4324 446.9435,105.4324 C447.6265,105.4334 447.9275,104.6784 448.4475,104.6124 C449.4175,104.4894 449.4205,105.1734 450.1345,105.6334 C451.0595,106.2284 451.9405,106.5634 452.8045,107.2304 C453.5535,107.8084 453.9675,108.1484 454.8735,108.4574 C455.5325,108.6834 456.6515,108.5834 457.1545,109.1494 C457.7625,109.8354 457.4225,111.0264 458.0105,111.9364 C459.0445,113.5394 460.9265,114.4494 462.1535,115.8744 C463.3185,117.2264 463.8255,118.7624 464.0085,120.5134 C464.4065,124.3004 464.1865,129.4284 461.2715,132.2504 C458.7165,134.7234 455.0745,134.7364 451.7515,134.6854 C451.0265,134.6744 449.4265,134.9654 448.7645,134.6404 C447.6065,134.0704 446.2785,130.7704 445.6105,129.6574 C444.5545,127.8984 442.8885,125.6834 442.5485,123.6094 C442.1435,121.1334 443.5675,119.0424 441.5775,116.9344 C438.5335,113.7104 431.8765,114.7394 428.2125,116.1134 C428.2125,111.7804 420.9475,117.4784 419.7855,118.5294 C416.7195,121.3024 415.5385,125.3114 412.7695,128.2974 C412.4175,128.6774 410.7985,129.5754 410.7125,129.7854 C410.4945,130.3214 411.2475,132.2784 411.3425,132.7564 C411.7395,134.7274 412.0445,136.7164 412.2995,138.7094 C412.5795,140.8864 412.6675,142.8954 413.2565,145.0184 C413.9115,147.3704 413.2475,149.0594 413.0715,151.3644 C412.8825,153.8434 414.0105,153.3554 415.5225,154.5964 C416.9335,155.7554 416.7025,158.3304 418.5625,158.9754 C419.7905,159.4004 420.0035,158.5624 420.8945,159.7344 C421.6345,160.7084 421.3925,164.5334 423.0175,163.4864 C423.7925,162.9864 423.3715,162.1514 424.5175,161.9484 C425.4515,161.7834 425.9095,162.2404 426.5545,162.7604 C428.3405,164.1994 428.4865,164.9014 431.0745,164.2604 C433.3835,163.6864 435.5675,162.6034 437.7675,161.7254 C439.8235,160.9024 441.9555,160.3624 443.9125,159.2994 C445.9905,158.1694 447.5965,156.7244 448.9065,154.7554 C449.4975,153.8674 450.0275,153.0014 450.6865,152.1624 C451.1765,151.5384 451.8595,150.1014 452.4495,149.6184 C453.0185,149.1514 457.5295,148.5384 458.0355,149.5754 C458.7505,151.0464 455.4885,151.5774 455.4885,153.1644 C457.9775,152.7744 464.4435,155.0264 464.4435,158.0864" id="Fill-28" fill="#000000"></path>
            <path d="M530.2051,130.1273 C530.2051,128.1543 529.2431,126.2563 529.0591,124.2743 C528.8871,122.3983 528.9701,120.6113 528.4281,118.7793 C527.8641,121.3313 525.1941,118.9673 524.0371,118.3143 C521.8001,117.0533 519.2361,115.9803 516.8611,115.0033 C514.5031,114.0323 512.0551,113.3213 509.5151,113.0293 C508.6221,112.9273 503.9121,112.1213 505.1171,113.8573 C502.7561,114.4883 500.4961,114.6713 498.4281,116.1113 C497.3771,116.8433 496.4821,117.7653 495.4791,118.5543 C494.1421,119.6063 492.8821,119.9633 491.3251,120.5653 C489.0661,121.4393 487.4001,125.1223 487.1281,127.5403 C486.7711,130.7073 490.1571,131.7263 492.6581,132.4133 C495.5701,133.2133 498.7181,133.5833 501.7391,133.5353 C505.3791,133.4773 508.8791,132.4743 512.5411,132.5293 C515.0421,132.5673 530.2051,134.9263 530.2051,130.1273 M540.4591,157.8813 C540.4591,162.9403 534.9771,167.3043 530.6491,169.0923 C528.3631,170.0363 526.2831,170.9943 524.1211,172.2113 C521.5991,173.6313 518.9891,173.9133 516.1621,174.3233 C513.5711,174.6993 510.9831,175.2773 508.3531,175.2993 C506.0161,175.3183 503.8381,174.1523 501.4961,173.8913 C498.6491,173.5713 497.8631,172.4993 495.5921,170.8993 C493.2821,169.2733 490.5851,168.3873 488.3391,166.5853 C483.6751,162.8443 480.6101,157.5983 478.6681,152.0143 C476.8231,146.7093 474.8111,140.4433 476.6221,134.8703 C477.0621,133.5133 477.5591,132.8013 477.4061,131.4353 C477.2641,130.1613 476.9591,129.0973 477.0971,127.7863 C477.3881,125.0183 478.5691,122.1743 479.7221,119.6683 C480.7091,117.5223 481.8951,114.9363 483.6761,113.3183 C484.3731,112.6863 485.7181,112.4863 486.2841,111.8413 C486.9681,111.0623 486.5521,109.9853 487.3091,109.1413 C488.2921,108.0463 490.2661,107.8533 491.5731,107.3633 C492.9231,106.8593 494.1991,106.1663 495.5311,105.6163 C498.4061,104.4313 501.4021,103.4943 504.4751,102.9833 C507.5361,102.4743 511.0881,102.0373 514.1371,102.7373 C517.0801,103.4143 520.2131,105.2513 522.4801,106.8853 C525.9501,107.3513 528.4481,109.8463 531.1411,111.9163 C533.5131,113.7393 535.9801,115.9063 535.3321,119.1893 C535.4231,119.0753 535.5151,118.9623 535.6051,118.8483 C536.9221,119.8393 536.5901,122.0203 537.5161,123.2313 C538.0631,123.9463 539.2261,124.2213 539.6431,125.0233 C540.1161,125.9383 539.3521,126.5983 539.3921,127.7783 C539.4661,130.0143 540.3791,131.8203 540.2241,134.1783 C540.0341,137.0573 540.2961,138.3623 537.5541,139.7663 C537.1771,139.9583 536.2381,140.2503 535.8791,140.5863 C535.5811,140.8643 535.3091,141.5913 535.1271,141.7483 C534.5261,142.2653 534.3191,142.2163 533.4181,142.2273 C530.5051,142.2613 527.8111,141.4053 524.9651,140.9833 C519.2631,140.1413 513.5671,141.6623 507.8521,141.6063 C503.0561,141.5593 498.6021,141.1823 493.8581,142.1033 C492.3411,142.3983 488.9411,142.6743 487.8171,143.8313 C486.4011,145.2893 487.9551,149.0433 488.7251,150.6883 C490.7821,155.0833 494.4971,158.7083 498.6151,161.1923 C500.8611,162.5483 503.2971,163.6593 505.8951,164.1153 C508.6261,164.5953 511.4271,164.2503 514.1711,164.6413 C515.1811,164.7843 516.7081,165.6383 517.6271,165.5373 C518.9601,165.3913 520.7531,163.6983 521.7731,162.8973 C524.0621,161.1013 526.0921,159.0213 528.1711,156.9923 C530.1521,155.0613 532.1121,154.7943 534.8081,154.5053 C535.9101,154.3873 537.0251,154.2593 538.1351,154.3803 C540.3821,154.6253 540.4591,155.7043 540.4591,157.8813" id="Fill-30" fill="#000000"></path>
        </g>
    </g>
</svg>