<?xml version="1.0" encoding="UTF-8"?>
<svg viewBox="0 0 261 63" version="1.1" xmlns="http://www.w3.org/2000/svg" xmlns:xlink="http://www.w3.org/1999/xlink">
    <!-- Generator: Sketch 42 (36781) - http://www.bohemiancoding.com/sketch -->
    <title>prereview-logo</title>
    <desc>Created with Sketch.</desc>
    <defs></defs>
    <g id="Page-1" stroke="none" stroke-width="1" fill="none" fill-rule="evenodd">
        <g id="prereview-logo" transform="translate(1.000000, 1.000000)">
            <g id="PreReview-Logo---Horizontal---Colour">
                <path d="M84.7,26 C84.8,28 84,30 82.5,31.3 C80.7,32.6 78.5,33.3 76.3,33.1 L74.3,33.1 L74.3,40.8 L69.7,40.8 L69.7,19.2 L76.6,19.2 C78.7,19 80.9,19.6 82.6,20.9 C84,22.2 84.8,24 84.7,26 Z M74.3,29.4 L75.8,29.4 C76.9,29.5 78,29.2 79,28.6 C79.7,28 80.1,27.1 80.1,26.2 C80.2,25.3 79.9,24.4 79.2,23.8 C78.4,23.2 77.4,22.9 76.4,23 L74.3,23 C74.3,23 74.3,29.4 74.3,29.4 Z" id="Shape" fill="#FF3333" fill-rule="nonzero"></path>
                <path d="M97.6,32.5 L97.6,40.8 L93.1,40.8 L93.1,19.2 L99.4,19.2 C102.3,19.2 104.5,19.7 105.9,20.8 C108.3,22.9 108.7,26.4 107,29.1 C106.2,30.1 105.2,30.9 104,31.4 C107.3,36.3 109.4,39.4 110.4,40.8 L105.3,40.8 L100.1,32.5 L97.6,32.5 Z M97.6,28.8 L99.1,28.8 C100.2,28.9 101.3,28.6 102.3,28.1 C103,27.6 103.4,26.7 103.3,25.8 C103.4,24.9 103,24.1 102.2,23.6 C101.2,23.1 100.1,22.9 98.9,22.9 L97.5,22.9 L97.6,28.8 Z" id="Shape" fill="#FF3333" fill-rule="nonzero"></path>
                <polygon id="Shape" fill="#FF3333" fill-rule="nonzero" points="129.7 40.8 117.2 40.8 117.2 19.2 129.7 19.2 129.7 23 121.8 23 121.8 27.8 129.1 27.8 129.1 31.6 121.8 31.6 121.8 37.2 129.7 37.2"></polygon>
                <path d="M140.3,31.4 L140.3,40.8 L138.8,40.8 L138.8,19.2 L143.9,19.2 C146.6,19.2 148.5,19.7 149.8,20.7 C151.1,21.8 151.8,23.5 151.7,25.2 C151.7,26.5 151.3,27.8 150.6,28.9 C149.7,30 148.5,30.7 147.1,31.1 L153,40.9 L151.2,40.9 L145.6,31.5 L140.3,31.4 L140.3,31.4 L140.3,31.4 Z M140.3,30.1 L144.4,30.1 C145.9,30.2 147.4,29.8 148.6,28.9 C149.6,28 150.2,26.7 150.1,25.3 C150.2,23.9 149.7,22.6 148.6,21.7 C147.6,21 146,20.6 143.8,20.6 L140.2,20.6 L140.3,30.1 Z" id="Shape" fill="#000000" fill-rule="nonzero"></path>
                <polygon id="Shape" fill="#000000" fill-rule="nonzero" points="172.9 40.8 161.1 40.8 161.1 19.2 172.9 19.2 172.9 20.6 162.6 20.6 162.6 28.8 172.3 28.8 172.3 30.2 162.6 30.2 162.6 39.5 172.9 39.5"></polygon>
                <path d="M194.8,19.2 L196.4,19.2 L188.4,40.8 L187.1,40.8 L179,19.2 L180.6,19.2 L186.1,33.9 C186.9,36.1 187.5,37.8 187.8,38.9 C188,38.2 188.4,37 189,35.5 L194.8,19.2 Z" id="Shape" fill="#000000" fill-rule="nonzero"></path>
                <polygon id="Shape" fill="#000000" fill-rule="nonzero" points="203.8 40.8 203.8 19.2 205.3 19.2 205.3 40.8 203.8 40.8"></polygon>
                <polygon id="Shape" fill="#000000" fill-rule="nonzero" points="227.4 40.8 215.6 40.8 215.6 19.2 227.4 19.2 227.4 20.6 217.1 20.6 217.1 28.8 226.8 28.8 226.8 30.2 217.1 30.2 217.1 39.5 227.4 39.5"></polygon>
                <path d="M253.8,40.8 L252.6,40.8 L247.8,24.1 C247.4,22.7 247.1,21.6 246.9,20.7 C246.7,21.6 246.5,22.6 246.2,23.7 C245.9,24.8 244.3,30.5 241.4,40.8 L240.1,40.8 L234.1,19.2 L235.7,19.2 L239.5,33.1 L239.9,34.7 C240,35.2 240.1,35.6 240.3,36 C240.5,36.4 240.5,36.8 240.6,37.2 C240.7,37.6 240.8,38 240.8,38.4 C241,37.1 241.5,35 242.3,32.3 L246,19.2 L247.7,19.2 L252,34.2 C252.5,35.9 252.9,37.3 253.1,38.4 C253.2,37.7 253.4,36.9 253.6,36.1 C253.8,35.3 255.3,29.6 258.2,19.1 L259.7,19.1 L253.8,40.8 Z" id="Shape" fill="#000000" fill-rule="nonzero"></path>
                <path d="M37.9,57.7 L2,57.7 C1.1,57.7 0.3,56.9 0.3,56 L0.3,56 L0.3,1.8 C0.3,0.9 1.1,0.1 2,0.1 L2,0.1 L46.6,0.1 C47.5,0.1 48.3,0.9 48.3,1.8 L48.3,1.8 L48.3,56" id="Shape" stroke="#000000"></path>
                <polyline id="Shape" fill="#FF3333" fill-rule="nonzero" points="33.9 61.5 40.4 57.7 33.9 53.9"></polyline>
                <path d="M11,15 L37.9,15" id="Shape" stroke="#000000"></path>
                <path d="M11,29.1 L37.9,29.1" id="Shape" stroke="#000000"></path>
                <path d="M11,43.3 L37.9,43.3" id="Shape" stroke="#000000"></path>
            </g>
        </g>
    </g>
</svg>