<?xml version="1.0" encoding="UTF-8"?>
<svg width="24px" height="24px" viewBox="0 0 24 24" version="1.1" xmlns="http://www.w3.org/2000/svg" xmlns:xlink="http://www.w3.org/1999/xlink">
    <!-- Generator: Sketch 42 (36781) - http://www.bohemiancoding.com/sketch -->
    <title>fav-icon</title>
    <desc>Created with Sketch.</desc>
    <defs></defs>
    <g id="Page-1" stroke="none" stroke-width="1" fill="none" fill-rule="evenodd">
        <g id="fav-icon">
            <rect id="Rectangle" x="2" y="0" width="20" height="23" rx="2"></rect>
            <g id="Group" transform="translate(3.500000, 1.500000)">
                <path d="M7.14273917,20 L0.602083333,20 C0.283333333,20 0,19.7222222 0,19.4097222 L0,0.590277778 C0,0.277777778 0.283333333,0 0.602083333,0 L16.3979167,0 C16.7166667,0 17,0.277777778 17,0.590277778 L17,19.4097222" id="Shape" stroke="#000000"></path>
                <polygon id="Shape" fill="#FF3333" fill-rule="nonzero" points="10 22 13.3448882 20 10 18"></polygon>
                <polygon id="Shape-Copy" fill="#FF3333" fill-rule="nonzero" points="6.5 22 9.84488819 20 6.5 18"></polygon>
            </g>
            <g id="Group-2" transform="translate(7.000000, 5.500000)" stroke="#000000" stroke-linecap="square">
                <path d="M0.5,1.5 L9.5,1.5" id="Line"></path>
                <path d="M0.5,6.5 L9.5,6.5" id="Line-Copy"></path>
                <path d="M0.5,11.5 L9.5,11.5" id="Line-Copy-2"></path>
            </g>
        </g>
    </g>
</svg>